<svg xmlns="http://www.w3.org/2000/svg" fill="none" aria-hidden="true" viewBox="0 0 24 24" role="img"><path vector-effect="non-scaling-stroke" stroke="var(--icon-color, #001e00)" stroke-linecap="round" stroke-linejoin="round" stroke-width="1.5" d="M21 9v9a3 3 0 01-3 3H6a3 3 0 01-3-3V9"></path><path vector-effect="non-scaling-stroke" stroke="var(--icon-color, #001e00)" stroke-linecap="round" stroke-linejoin="round" stroke-width="1.5" d="M21 9l-7.66 6.48a2 2 0 01-2.68 0L3 9m2.5-2.03L3 9m18 0l-2.5-2.03"></path><path vector-effect="non-scaling-stroke" stroke="var(--icon-color, #001e00)" stroke-linecap="round" stroke-linejoin="round" stroke-width="1.5" d="M18 11.54V5a2 2 0 00-2-2H8a2 2 0 00-2 2v6.54"></path><path vector-effect="non-scaling-stroke" stroke="var(--icon-color, #001e00)" stroke-linecap="round" stroke-linejoin="round" stroke-width="1.5" d="M14.5 6.2l-3.56 3.56L9.5 8.32"></path></svg>