<svg fill="none" xmlns="http://www.w3.org/2000/svg" viewBox="0 0 145 130" aria-hidden="true" role="img"><path d="M122.4 123H22.6c-2.8 0-5-2.2-5-5V86.8c0-2.8 2.2-5 5-5h99.7c2.8 0 5 2.2 5 5v31.3c.1 2.7-2.2 4.9-4.9 4.9z" fill="url(#paint0_linear_48080_21719-uid-52)"></path><path d="M104 106.1H66.2c-.5 0-.9-.4-.9-.9s.4-.9.9-.9H104c.5 0 .9.4.9.9-.1.5-.5.9-.9.9z" fill="#C2D1C2"></path><path d="M127.3 82.5H17.6v20.6h109.7V82.5z" fill="#C6D4C8"></path><path d="M41.8 117.8c8.505 0 15.4-6.895 15.4-15.4S50.304 87 41.8 87c-8.506 0-15.4 6.895-15.4 15.4s6.894 15.4 15.4 15.4z" fill="#C2D1C2"></path><path d="M45.4 105.2l-.7-4.6h-5.8l-.6 4.6h7.1z" fill="url(#paint1_radial_48080_21719-uid-52)"></path><path d="M41.8 87c-8.5 0-15.4 6.9-15.4 15.4v.7h30.7v-.7c.1-8.5-6.8-15.4-15.3-15.4z" fill="#ABBFAC"></path><path d="M41.8 103.5c1.2 0 2.4.4 3.4.9l-.2-1.8h-3.6l.4.9z" fill="url(#paint2_linear_48080_21719-uid-52)"></path><path d="M38.2 102.3l.1.1c2.1 1.5 5 1.4 7.1-.1 2.8-2 3.4-5.9 1.4-8.6-2-2.8-5.9-3.4-8.6-1.4-2.8 2-3.4 5.9-1.4 8.6.4.5.9 1 1.4 1.4z" fill="url(#paint3_radial_48080_21719-uid-52)"></path><path d="M55 107c-1.3-1.9-3.4-3.1-5.7-3.1-.6 0-1.2.1-1.8.2l-1.7.4c-2.6.7-5.4.7-8 0l-1.7-.4c-.6-.2-1.2-.2-1.8-.2-2.3 0-4.4 1.2-5.7 3.1-.3.5-.6 1.1-.8 1.7 3.4 7.8 12.5 11.3 20.3 7.8 3.5-1.5 6.3-4.3 7.8-7.8-.2-.7-.5-1.2-.9-1.7z" fill="url(#paint4_radial_48080_21719-uid-52)"></path><path d="M116.5 100.4H66.2c-.5 0-.9-.4-.9-.9s.4-.9.9-.9h50.3c.5 0 .9.4.9.9s-.4.9-.9.9z" fill="#ACBEAC"></path><path d="M131.4 95.8H13.6c-2.8 0-5-2.2-5-5V52.7c0-2.8 2.2-5 5-5h117.9c2.8 0 5 2.2 5 5v38.1c-.1 2.7-2.3 5-5.1 5z" fill="url(#paint5_linear_48080_21719-uid-52)"></path><path d="M109.2 76H65.1c-.6 0-1-.4-1-1s.4-1 1-1h44.1c.6 0 1 .4 1 1s-.5 1-1 1z" fill="#C2D1C2"></path><path d="M136.5 48.6H8.6v24h127.9v-24z" fill="#C6D4C8"></path><path d="M36.7 89.6c9.886 0 17.9-8.014 17.9-17.9s-8.014-17.9-17.9-17.9-17.9 8.014-17.9 17.9 8.014 17.9 17.9 17.9z" fill="#C2D1C2"></path><path d="M40.9 75l-.8-5.3h-6.8l-.7 5.3h8.3z" fill="url(#paint6_radial_48080_21719-uid-52)"></path><path d="M36.7 53.8c-9.9 0-17.9 8-17.9 17.9v.8h35.8v-.8c.1-9.9-8-17.9-17.9-17.9z" fill="#ABBFAC"></path><path d="M36.7 73c1.4 0 2.7.4 4 1.1l-.3-2.1h-4.2l.5 1z" fill="url(#paint7_linear_48080_21719-uid-52)"></path><path d="M32.5 71.6l.2.1c2.5 1.7 5.8 1.6 8.2-.1 3.2-2.3 4-6.8 1.7-10.1-2.3-3.2-6.8-4-10.1-1.7-3.2 2.3-4 6.8-1.7 10.1.5.7 1.1 1.3 1.7 1.7z" fill="url(#paint8_radial_48080_21719-uid-52)"></path><path d="M52.1 77c-1.5-2.2-4-3.6-6.7-3.6-.7 0-1.4.1-2.1.3l-1.9.5c-3.1.8-6.3.8-9.3 0l-1.9-.5c-.7-.2-1.4-.3-2.1-.3-2.7 0-5.2 1.4-6.6 3.6-.4.6-.7 1.3-1 1.9 4 9.1 14.6 13.2 23.7 9.1 4.1-1.8 7.3-5.1 9.1-9.1-.4-.6-.8-1.3-1.2-1.9z" fill="url(#paint9_radial_48080_21719-uid-52)"></path><path d="M123.8 69.4H65.1c-.6 0-1-.4-1-1s.4-1 1-1h58.7c.6 0 1 .4 1 1s-.4 1-1 1z" fill="#ACBEAC"></path><path d="M140 63.6H5c-2.8 0-5-2.2-5-5V11c0-2.8 2.2-5 5-5h135c2.8 0 5 2.2 5 5v47.6c0 2.8-2.2 5-5 5z" fill="url(#paint10_linear_48080_21719-uid-52)"></path><path d="M127.3 41.1H69c-.6 0-1.1-.5-1.1-1.1 0-.6.5-1.1 1.1-1.1h58.3c.6 0 1.1.5 1.1 1.1 0 .6-.5 1.1-1.1 1.1zm-8.4 7.5H69c-.6 0-1.1-.5-1.1-1.1 0-.6.5-1.1 1.1-1.1h49.9c.6 0 1.1.5 1.1 1.1 0 .5-.5 1.1-1.1 1.1z" fill="#C2D1C2"></path><path d="M33.7 56.3c11.874 0 21.5-9.626 21.5-21.5s-9.626-21.5-21.5-21.5-21.5 9.626-21.5 21.5 9.626 21.5 21.5 21.5z" fill="#C4D0C2"></path><path d="M38.7 38.7l-.9-6.4h-8.1l-.9 6.4h9.9z" fill="url(#paint11_linear_48080_21719-uid-52)"></path><path d="M33.7 36.3c1.7.1 3.3.5 4.7 1.3l-.3-2.5H33l.7 1.2z" fill="url(#paint12_linear_48080_21719-uid-52)"></path><path d="M28.7 34.7l.2.2c3 2 6.9 2 9.9-.1 3.9-2.8 4.8-8.2 2-12.1-2.8-3.9-8.2-4.8-12.1-2-3.9 2.8-4.8 8.2-2 12.1.6.6 1.2 1.3 2 1.9z" fill="url(#paint13_radial_48080_21719-uid-52)"></path><path d="M52.2 41.2c-1.8-2.7-4.8-4.3-8-4.3-.9 0-1.7.1-2.6.3l-2.3.6c-3.7 1-7.5 1-11.2 0l-2.3-.6c-.8-.2-1.7-.3-2.6-.3-3.2 0-6.2 1.6-8 4.3-.5.7-.9 1.5-1.2 2.3 4.8 10.9 17.5 15.8 28.4 11 4.9-2.2 8.8-6.1 11-11-.3-.8-.7-1.6-1.2-2.3z" fill="url(#paint14_radial_48080_21719-uid-52)"></path><path d="M120.684 32H73.316C69.82 32 67 29.098 67 25.5s2.82-6.5 6.316-6.5h47.368c3.496 0 6.316 2.902 6.316 6.5s-2.82 6.5-6.316 6.5z" fill="#1F57C2"></path><path d="M75 22.158h3.236c.596 0 1.07.134 1.435.414.365.28.536.693.536 1.24 0 .341-.085.621-.243.864a1.63 1.63 0 01-.706.56c.413.11.718.304.937.596.207.304.316.681.316 1.131 0 .256-.049.511-.146.73a1.575 1.575 0 01-.438.584c-.195.159-.45.292-.766.39a3.757 3.757 0 01-1.108.146H75v-6.655zm1.168 2.786h1.898c.28 0 .51-.073.693-.243.183-.158.28-.39.28-.681 0-.341-.085-.572-.255-.706-.17-.134-.414-.207-.73-.207h-1.886v1.837zm0 2.92h2.056c.353 0 .632-.085.827-.28.195-.195.292-.438.292-.779 0-.34-.097-.584-.292-.766-.195-.183-.474-.268-.827-.268h-2.056v2.093zM84.586 22c.5 0 .95.097 1.339.28.389.182.73.438.997.754.268.316.487.681.633 1.107.146.426.219.876.219 1.338 0 .463-.073.925-.22 1.35a3.189 3.189 0 01-.632 1.108 2.928 2.928 0 01-.997.754c-.39.183-.84.28-1.339.28-.498 0-.948-.085-1.338-.28a2.928 2.928 0 01-.997-.754 3.21 3.21 0 01-.633-1.107 4.134 4.134 0 01-.219-1.35c0-.475.073-.925.219-1.339a3.21 3.21 0 01.633-1.107 2.92 2.92 0 01.997-.754c.39-.183.84-.28 1.338-.28zm0 .949c-.352 0-.657.073-.924.219a1.899 1.899 0 00-.633.572 2.58 2.58 0 00-.353.815 4.03 4.03 0 00-.121.936c0 .317.036.633.121.937.073.304.195.572.353.815.158.244.377.426.633.572.255.146.56.22.924.22.365 0 .657-.074.925-.22a1.9 1.9 0 00.633-.572c.158-.243.28-.51.352-.815.073-.304.122-.62.122-.937 0-.316-.036-.632-.122-.936a2.587 2.587 0 00-.352-.815 1.79 1.79 0 00-.633-.572c-.255-.146-.56-.22-.925-.22zM91.861 22c.5 0 .95.097 1.338.28.39.182.73.438.998.754s.487.681.633 1.107c.146.426.219.876.219 1.338 0 .463-.073.925-.22 1.35a3.21 3.21 0 01-.632 1.108 2.93 2.93 0 01-.998.754c-.389.183-.839.28-1.338.28-.499 0-.949-.085-1.338-.28a2.93 2.93 0 01-.998-.754 3.21 3.21 0 01-.632-1.107 4.137 4.137 0 01-.219-1.35c0-.475.073-.925.219-1.339a3.21 3.21 0 01.632-1.107 2.93 2.93 0 01.998-.754c.39-.183.84-.28 1.338-.28zm0 .949c-.353 0-.657.073-.924.219a1.9 1.9 0 00-.633.572 2.59 2.59 0 00-.353.815 4.03 4.03 0 00-.121.936c0 .317.036.633.121.937.073.304.195.572.353.815.158.244.377.426.633.572.255.146.56.22.924.22.365 0 .657-.074.925-.22.255-.146.462-.328.632-.572.159-.243.28-.51.353-.815.073-.304.122-.62.122-.937 0-.316-.037-.632-.122-.936a2.59 2.59 0 00-.353-.815 1.79 1.79 0 00-.632-.572c-.256-.146-.56-.22-.925-.22zm5.207 3.65c0 .255.049.474.134.657.085.182.207.328.365.437.158.11.328.195.535.256.207.049.426.085.657.085.256 0 .475-.024.657-.085.183-.06.329-.134.438-.231a.846.846 0 00.316-.681c0-.256-.061-.438-.17-.56a1.039 1.039 0 00-.377-.256 6.934 6.934 0 00-.827-.243c-.317-.073-.706-.182-1.156-.304a2.602 2.602 0 01-.718-.292 1.63 1.63 0 01-.45-.402 1.465 1.465 0 01-.243-.474 1.85 1.85 0 01-.073-.51c0-.341.073-.621.206-.877.134-.255.329-.45.56-.608a2.39 2.39 0 01.779-.353c.292-.073.584-.122.888-.122.353 0 .681.05.985.134.304.085.584.231.815.402.231.182.414.401.56.669.134.268.207.572.207.912h-1.168c-.037-.425-.183-.73-.438-.912-.256-.183-.596-.268-.998-.268-.134 0-.28.012-.426.037a1.076 1.076 0 00-.389.146.885.885 0 00-.292.267.765.765 0 00-.121.426c0 .231.073.426.219.56.146.134.34.23.571.304.025 0 .122.036.292.073.17.036.365.097.572.158.207.06.414.11.62.158.207.049.353.098.438.122.219.073.414.158.572.28.158.121.292.255.402.401.109.158.194.316.243.487.049.17.085.352.085.523 0 .377-.073.693-.231.96a2.023 2.023 0 01-.596.646c-.243.17-.535.292-.852.365a4.35 4.35 0 01-.973.121c-.377 0-.742-.048-1.07-.146a2.45 2.45 0 01-.876-.425 2.115 2.115 0 01-.596-.743 2.436 2.436 0 01-.232-1.07h1.168l-.012-.024zm4.83-4.44h5.389v1.009h-2.117v5.657h-1.168v-5.657h-2.104v-1.01zm6.35 0h4.793v1.009h-3.625v1.74h3.358v.948h-3.358v1.947h3.698v1.01h-4.854v-6.655h-.012zm6.059 0h2.761c.511 0 .949.084 1.326.255.377.17.681.413.913.717.231.305.413.657.523 1.059a5.041 5.041 0 010 2.603c-.11.414-.292.754-.523 1.059-.232.304-.548.535-.913.717-.377.17-.815.256-1.326.256h-2.761v-6.667zm1.167 5.705h1.144c.45 0 .827-.061 1.119-.183a1.71 1.71 0 00.681-.498c.171-.22.28-.463.341-.755s.085-.608.085-.937a4.61 4.61 0 00-.085-.936 1.777 1.777 0 00-.341-.755 1.604 1.604 0 00-.681-.498c-.292-.122-.657-.183-1.119-.183h-1.144v4.757-.012z" fill="#fff"></path><defs><radialGradient id="paint1_radial_48080_21719-uid-52" cx="0" cy="0" r="1" gradientUnits="userSpaceOnUse" gradientTransform="translate(36.938 104.052) scale(8.1348)"><stop offset=".677" stop-color="#D4DFD4"></stop><stop offset=".801" stop-color="#C0CDBF"></stop><stop offset="1" stop-color="#99A996"></stop></radialGradient><radialGradient id="paint3_radial_48080_21719-uid-52" cx="0" cy="0" r="1" gradientUnits="userSpaceOnUse" gradientTransform="translate(40.374 95.238) scale(7.35096)"><stop offset=".677" stop-color="#BCB"></stop><stop offset=".801" stop-color="#ACBBAC"></stop><stop offset="1" stop-color="#889A84"></stop></radialGradient><radialGradient id="paint4_radial_48080_21719-uid-52" cx="0" cy="0" r="1" gradientUnits="userSpaceOnUse" gradientTransform="translate(40.94 103.903) scale(15.95)"><stop offset=".677" stop-color="#99A996"></stop><stop offset=".804" stop-color="#879681"></stop><stop offset="1" stop-color="#65735B"></stop></radialGradient><radialGradient id="paint6_radial_48080_21719-uid-52" cx="0" cy="0" r="1" gradientUnits="userSpaceOnUse" gradientTransform="matrix(9.4826 0 0 9.48261 31.046 73.656)"><stop offset=".677" stop-color="#D4DFD4"></stop><stop offset=".801" stop-color="#C0CDBF"></stop><stop offset="1" stop-color="#99A996"></stop></radialGradient><radialGradient id="paint8_radial_48080_21719-uid-52" cx="0" cy="0" r="1" gradientUnits="userSpaceOnUse" gradientTransform="translate(35.053 63.383) scale(8.56887)"><stop offset=".677" stop-color="#BCB"></stop><stop offset=".801" stop-color="#ACBBAC"></stop><stop offset="1" stop-color="#889A84"></stop></radialGradient><radialGradient id="paint9_radial_48080_21719-uid-52" cx="0" cy="0" r="1" gradientUnits="userSpaceOnUse" gradientTransform="translate(35.713 73.483) scale(18.5926)"><stop offset=".677" stop-color="#99A996"></stop><stop offset=".804" stop-color="#879681"></stop><stop offset="1" stop-color="#65735B"></stop></radialGradient><radialGradient id="paint13_radial_48080_21719-uid-52" cx="0" cy="0" r="1" gradientUnits="userSpaceOnUse" gradientTransform="translate(31.75 24.798) scale(10.2645)"><stop offset=".68" stop-color="#F7AFB1"></stop><stop offset=".8" stop-color="#E59A9E"></stop><stop offset="1" stop-color="#C07078"></stop></radialGradient><radialGradient id="paint14_radial_48080_21719-uid-52" cx="0" cy="0" r="1" gradientUnits="userSpaceOnUse" gradientTransform="translate(32.539 36.897) scale(22.2719)"><stop offset=".68" stop-color="#F56DBB"></stop><stop offset=".76" stop-color="#F06BB8"></stop><stop offset=".93" stop-color="#CC5A9E"></stop><stop offset="1" stop-color="#A74883"></stop></radialGradient><linearGradient id="paint0_linear_48080_21719-uid-52" x1="17.64" y1="102.392" x2="127.359" y2="102.392" gradientUnits="userSpaceOnUse"><stop stop-color="#E3EAE3"></stop><stop offset=".61" stop-color="#E1E8E1"></stop><stop offset=".89" stop-color="#DAE3DA"></stop><stop offset="1" stop-color="#D4DFD4"></stop></linearGradient><linearGradient id="paint2_linear_48080_21719-uid-52" x1="43.273" y1="104.357" x2="43.273" y2="102.569" gradientUnits="userSpaceOnUse"><stop stop-color="#65735B" stop-opacity="0"></stop><stop offset="1" stop-color="#65735B"></stop></linearGradient><linearGradient id="paint5_linear_48080_21719-uid-52" x1="8.552" y1="71.722" x2="136.448" y2="71.722" gradientUnits="userSpaceOnUse"><stop stop-color="#E3EAE3"></stop><stop offset=".61" stop-color="#E1E8E1"></stop><stop offset=".89" stop-color="#DAE3DA"></stop><stop offset="1" stop-color="#D4DFD4"></stop></linearGradient><linearGradient id="paint7_linear_48080_21719-uid-52" x1="38.431" y1="74.012" x2="38.431" y2="71.927" gradientUnits="userSpaceOnUse"><stop stop-color="#65735B" stop-opacity="0"></stop><stop offset="1" stop-color="#65735B"></stop></linearGradient><linearGradient id="paint10_linear_48080_21719-uid-52" x1="72.5" y1="88.268" x2="72.5" y2="6.953" gradientUnits="userSpaceOnUse"><stop stop-color="#fff"></stop><stop offset=".605" stop-color="#FDFEFD"></stop><stop offset=".877" stop-color="#F6F9F6"></stop><stop offset="1" stop-color="#EFF5F0"></stop></linearGradient><linearGradient id="paint11_linear_48080_21719-uid-52" x1="28.789" y1="35.509" x2="38.694" y2="35.509" gradientUnits="userSpaceOnUse"><stop offset=".52" stop-color="#F7AFB1"></stop><stop offset=".64" stop-color="#EDA4A7"></stop><stop offset=".86" stop-color="#D4868C"></stop><stop offset="1" stop-color="#C07078"></stop></linearGradient><linearGradient id="paint12_linear_48080_21719-uid-52" x1="35.791" y1="37.529" x2="35.791" y2="35.033" gradientUnits="userSpaceOnUse"><stop stop-color="#9F6069" stop-opacity="0"></stop><stop offset=".46" stop-color="#9F6069" stop-opacity=".5"></stop><stop offset=".82" stop-color="#9F6069" stop-opacity=".86"></stop><stop offset="1" stop-color="#9F6069"></stop></linearGradient></defs></svg>