<svg xmlns="http://www.w3.org/2000/svg" viewBox="0 0 145 130" aria-hidden="true" role="img"><linearGradient id="catalog-47-a-uid-22-uid-34-uid-36-uid-58-uid-70-uid-72-uid-74-uid-76-uid-78-uid-100-uid-112-uid-114-uid-116-uid-118" gradientUnits="userSpaceOnUse" x1=".006" y1="38.899" x2="64.55" y2="38.899" gradientTransform="matrix(1 0 0 -1 0 130)"><stop offset="0" stop-color="#9aaa97"></stop><stop offset=".93" stop-color="#e4ebe4"></stop></linearGradient><path d="M59.7 93.1H4.9c-2.7 0-4.9-2.2-4.9-4.9v.9C0 91.8 2.2 94 4.9 94h54.8c2.7 0 4.9-2.2 4.9-4.9v-.9c-.1 2.7-2.2 4.9-4.9 4.9z" fill="url(#catalog-47-a-uid-22-uid-34-uid-36-uid-58-uid-70-uid-72-uid-74-uid-76-uid-78-uid-100-uid-112-uid-114-uid-116-uid-118)"></path><linearGradient id="catalog-47-b-uid-22-uid-34-uid-36-uid-58-uid-70-uid-72-uid-74-uid-76-uid-78-uid-100-uid-112-uid-114-uid-116-uid-118" gradientUnits="userSpaceOnUse" x1=".006" y1="81.6" x2="64.55" y2="81.6" gradientTransform="matrix(1 0 0 -1 0 130)"><stop offset="0" stop-color="#c3d2c3"></stop><stop offset=".93" stop-color="#c3d2c3"></stop></linearGradient><path d="M4.9 3.7h54.8c2.7 0 4.9 2.2 4.9 4.9v79.6c0 2.7-2.2 4.9-4.9 4.9H4.9c-2.7 0-4.9-2.2-4.9-4.9V8.6c0-2.7 2.2-4.9 4.9-4.9z" fill="url(#catalog-47-b-uid-22-uid-34-uid-36-uid-58-uid-70-uid-72-uid-74-uid-76-uid-78-uid-100-uid-112-uid-114-uid-116-uid-118)"></path><rect x="6.4" y="9.7" width="51.8" height="43.4" fill="#13544e"></rect><path d="M27.5 59.5H6.9c-.3 0-.6-.2-.6-.6 0-.3.2-.6.6-.6h20.5c.3 0 .6.2.6.6 0 .4-.2.6-.5.6zm.5 3.7c0-.3-.2-.6-.6-.6H6.9c-.3 0-.6.2-.6.6 0 .3.2.6.6.6h20.5c.4 0 .6-.3.6-.6zm-7.5 4.2c0-.3-.2-.6-.6-.6h-13c-.3 0-.6.2-.6.6 0 .3.2.6.6.6h13c.3 0 .6-.3.6-.6zm-5.3 14.1c0-.7-.2-1.3-.5-1.7-.3-.4-.7-.8-1.2-1-.7-.3-1.4-.6-2.1-.8v-3.7c1.1.3 1.7 1 1.9 2.3h1.5c-.1-1.1-.4-1.9-1-2.5-.6-.6-1.4-1-2.3-1.2v-1h-1v1c-1.1 0-2 .3-2.7.9-.7.6-1 1.3-1 2.2 0 .6.2 1.1.5 1.6.4.4.8.7 1.3 1 .6.3 1.2.5 1.8.6v4.2c-1.6-.2-2.5-1.1-2.6-2.7H6.4c.1 1.2.5 2.1 1.2 2.8s1.7 1.1 2.9 1.2v1.2h1v-1.2c1.2 0 2.1-.4 2.7-1 .7-.5 1-1.3 1-2.2zm-6.8-5.7c0-.5.2-.9.6-1.2.4-.3.9-.4 1.6-.5v3.5c-.7-.2-1.3-.5-1.6-.7-.5-.2-.7-.6-.6-1.1zm3.1 7.6v-3.9c.8.3 1.4.5 1.7.8.3.3.5.7.5 1.2s-.2 1-.5 1.3c-.4.3-1 .5-1.7.6z" fill="#f66dbc"></path><path d="M58.2 79.9l-4.2-12c-.7-2-2-3.7-3.7-5l-.3-1.8c-.3-1.8-.9-3.6-1.6-5.4-.4-.9-.8-1.8-1.3-2.7h-19c-.9 3.7.8 7.6 4.2 9.4 1.3.7 2.5 1.7 3.4 2.8-1.7 2.3-2.3 5.2-1.8 8L37.6 93h21.9c2.7 0 4.9-2.2 4.9-4.9V67.9l-6.2 12z" fill="#9aaa97"></path><path d="M36 42.5l-4.7-2.4c-1.2-.6-2.7-.2-3.5.9-.9 1.2-.6 3 .6 3.9.1 0 .1.1.2.1l4.3 2.6c-1.2.5-2.3 1.3-3.1 2.3-.8 1-1.4 2.1-1.7 3.3h19c-2.5-4.7-6.4-8.4-11.1-10.7z" fill="#0d3a35"></path><linearGradient id="catalog-47-c-uid-22-uid-34-uid-36-uid-58-uid-70-uid-72-uid-74-uid-76-uid-78-uid-100-uid-112-uid-114-uid-116-uid-118" gradientUnits="userSpaceOnUse" x1="76.422" y1="91.584" x2="76.422" y2="98.897" gradientTransform="matrix(1 0 0 -1 0 130)"><stop offset="0" stop-color="#9aaa97"></stop><stop offset=".93" stop-color="#e4ebe4"></stop></linearGradient><path d="M75.5 34.8c0-2 1.3-3.7 2.8-3.7h-1c-1.6 0-2.8 1.6-2.8 3.7 0 2 1.3 3.7 2.8 3.7h1c-1.5-.1-2.8-1.7-2.8-3.7z" fill="url(#catalog-47-c-uid-22-uid-34-uid-36-uid-58-uid-70-uid-72-uid-74-uid-76-uid-78-uid-100-uid-112-uid-114-uid-116-uid-118)"></path><linearGradient id="catalog-47-d-uid-22-uid-34-uid-36-uid-58-uid-70-uid-72-uid-74-uid-76-uid-78-uid-100-uid-112-uid-114-uid-116-uid-118" gradientUnits="userSpaceOnUse" x1="75.498" y1="95.24" x2="81.121" y2="95.24" gradientTransform="matrix(1 0 0 -1 0 130)"><stop offset="0" stop-color="#9aaa97"></stop><stop offset=".93" stop-color="#e4ebe4"></stop></linearGradient><ellipse cx="78.3" cy="34.8" rx="2.8" ry="3.7" fill="url(#catalog-47-d-uid-22-uid-34-uid-36-uid-58-uid-70-uid-72-uid-74-uid-76-uid-78-uid-100-uid-112-uid-114-uid-116-uid-118)"></ellipse><radialGradient id="catalog-47-e-uid-22-uid-34-uid-36-uid-58-uid-70-uid-72-uid-74-uid-76-uid-78-uid-100-uid-112-uid-114-uid-116-uid-118" cx="80.912" cy="51.516" r="21.628" gradientTransform="matrix(1 0 0 -1.37 0 120.96)" gradientUnits="userSpaceOnUse"><stop offset=".38" stop-color="#bc5118"></stop><stop offset=".59" stop-color="#ba5018"></stop><stop offset=".69" stop-color="#b24c17"></stop><stop offset=".77" stop-color="#a54616"></stop><stop offset=".84" stop-color="#933d14"></stop><stop offset=".9" stop-color="#7b3212"></stop><stop offset=".92" stop-color="#6d2b11"></stop></radialGradient><path d="M114.9 64.4l-1.5-14.6c-.5-5.2-.7-10.4-.3-15.6v-1.5c-.1-9.6-8.1-17.4-17.7-17.2-9.6.1-17.4 8.1-17.2 17.7.1 7.6 5.1 14.3 12.4 16.5l2.6 14.7h21.7z" fill="url(#catalog-47-e-uid-22-uid-34-uid-36-uid-58-uid-70-uid-72-uid-74-uid-76-uid-78-uid-100-uid-112-uid-114-uid-116-uid-118)"></path><radialGradient id="catalog-47-f-uid-22-uid-34-uid-36-uid-58-uid-70-uid-72-uid-74-uid-76-uid-78-uid-100-uid-112-uid-114-uid-116-uid-118" cx="85.438" cy="93.882" r="7.122" gradientTransform="matrix(1 0 0 -.91 0 129.65)" gradientUnits="userSpaceOnUse"><stop offset=".38" stop-color="#6d2b11" stop-opacity="0"></stop><stop offset=".58" stop-color="#6d2b11" stop-opacity=".02"></stop><stop offset=".67" stop-color="#6d2b11" stop-opacity=".09"></stop><stop offset=".74" stop-color="#6d2b11" stop-opacity=".21"></stop><stop offset=".8" stop-color="#6d2b11" stop-opacity=".38"></stop><stop offset=".85" stop-color="#6d2b11" stop-opacity=".6"></stop><stop offset=".9" stop-color="#6d2b11" stop-opacity=".87"></stop><stop offset=".92" stop-color="#6d2b11"></stop></radialGradient><path d="M90.5 49.8l-.9-5.1h-7.1c2.2 2.3 4.9 4.1 8 5.1z" fill="url(#catalog-47-f-uid-22-uid-34-uid-36-uid-58-uid-70-uid-72-uid-74-uid-76-uid-78-uid-100-uid-112-uid-114-uid-116-uid-118)"></path><path d="M78.2 34.7h8c-.2-.4-.4-.8-.5-1.2h-7.6c0 .4.1.8.1 1.2z" fill="#6d2b11"></path><radialGradient id="catalog-47-g-uid-22-uid-34-uid-36-uid-58-uid-70-uid-72-uid-74-uid-76-uid-78-uid-100-uid-112-uid-114-uid-116-uid-118" cx="65.498" cy="109.734" r="20.201" gradientTransform="matrix(.9756 -.2197 -.3866 -1.717 60.216 230.757)" gradientUnits="userSpaceOnUse"><stop offset=".38" stop-color="#fccd81"></stop><stop offset=".61" stop-color="#fbcb7f"></stop><stop offset=".72" stop-color="#f9c477"></stop><stop offset=".8" stop-color="#f5b76a"></stop><stop offset=".87" stop-color="#f0a658"></stop><stop offset=".92" stop-color="#eb9546"></stop></radialGradient><path d="M113.1 32.8c-.1-9.4-7.7-17-17-17.2h-2.6c-.3 0-.6.1-.9.1h-.1c-.1 0-.2 0-.3.1h-.1c-.1 0-.3.1-.4.1-.1 0-.3.1-.4.1h-.1c-.1 0-.2.1-.4.1-.1 0-.3.1-.4.1-.1 0-.3.1-.4.1h-.1c-.3.1-.6.2-.8.3-.1.1-.3.1-.4.2-.3.1-.5.3-.8.4-.4.2-.8.4-1.2.7-3.5 2.2-6.1 5.6-7.4 9.6 1.5.2 3.1.2 4.6.1l.1.4c1 5.8 4.4 10.9 9.4 14 4.5 2.8 10 3.8 15.2 2.7l4.6-1c-.2-3.3-.1-6.5.1-9.8-.2-.1-.2-.6-.2-1.1z" fill="url(#catalog-47-g-uid-22-uid-34-uid-36-uid-58-uid-70-uid-72-uid-74-uid-76-uid-78-uid-100-uid-112-uid-114-uid-116-uid-118)"></path><radialGradient id="catalog-47-h-uid-22-uid-34-uid-36-uid-58-uid-70-uid-72-uid-74-uid-76-uid-78-uid-100-uid-112-uid-114-uid-116-uid-118" cx="90.111" cy="92.718" r="12.191" gradientTransform="matrix(.9756 -.2197 -.2592 -1.1512 31.522 160.059)" gradientUnits="userSpaceOnUse"><stop offset=".38" stop-color="#eb9546" stop-opacity="0"></stop><stop offset=".54" stop-color="#eb9546" stop-opacity=".01"></stop><stop offset=".62" stop-color="#eb9546" stop-opacity=".04"></stop><stop offset=".67" stop-color="#eb9546" stop-opacity=".1"></stop><stop offset=".72" stop-color="#eb9546" stop-opacity=".18"></stop><stop offset=".77" stop-color="#eb9546" stop-opacity=".28"></stop><stop offset=".81" stop-color="#eb9546" stop-opacity=".4"></stop><stop offset=".84" stop-color="#eb9546" stop-opacity=".56"></stop><stop offset=".88" stop-color="#eb9546" stop-opacity=".73"></stop><stop offset=".91" stop-color="#eb9546" stop-opacity=".92"></stop><stop offset=".92" stop-color="#eb9546"></stop></radialGradient><path d="M92.6 25.9l-4.5 1.3c-1.5.4-3 .7-4.5.8l.1.4c.6 3.6 2.2 7.1 4.6 9.9l4.3-12.4z" fill="url(#catalog-47-h-uid-22-uid-34-uid-36-uid-58-uid-70-uid-72-uid-74-uid-76-uid-78-uid-100-uid-112-uid-114-uid-116-uid-118)"></path><linearGradient id="catalog-47-i-uid-22-uid-34-uid-36-uid-58-uid-70-uid-72-uid-74-uid-76-uid-78-uid-100-uid-112-uid-114-uid-116-uid-118" gradientUnits="userSpaceOnUse" x1="80.488" y1="96.098" x2="80.488" y2="97.273" gradientTransform="matrix(1 0 0 -1 0 130)"><stop offset="0" stop-color="#9aaa97"></stop><stop offset=".93" stop-color="#e4ebe4"></stop></linearGradient><path d="M75.6 33.9h9.8c-.2-.4-.4-.8-.5-1.2H76c-.2.4-.4.8-.4 1.2z" fill="url(#catalog-47-i-uid-22-uid-34-uid-36-uid-58-uid-70-uid-72-uid-74-uid-76-uid-78-uid-100-uid-112-uid-114-uid-116-uid-118)"></path><path d="M28.4 54.7h16c.2 0 .4.2.4.4s-.2.4-.4.4h-16c-.2 0-.4-.2-.4-.4.1-.3.2-.4.4-.4z"></path><path d="M44.4 55.5h-16c-.3 0-.5-.2-.5-.5s.2-.5.5-.5h16c.3 0 .5.2.5.5s-.2.5-.5.5zm-16-.7c-.2 0-.3.1-.3.3 0 .2.1.3.3.3h16c.2 0 .3-.1.3-.3 0-.2-.1-.3-.3-.3h-16zm0 3.4h16c.2 0 .4.2.4.4s-.2.4-.4.4h-16c-.2 0-.4-.2-.4-.4.1-.2.2-.4.4-.4z"></path><path d="M44.4 59.1h-16c-.3 0-.5-.2-.5-.5s.2-.5.5-.5h16c.3 0 .5.2.5.5s-.2.5-.5.5zm-16-.8c-.2 0-.3.1-.3.3 0 .2.1.3.3.3h16c.2 0 .3-.1.3-.3 0-.2-.1-.3-.3-.3h-16z"></path><radialGradient id="catalog-47-j-uid-22-uid-34-uid-36-uid-58-uid-70-uid-72-uid-74-uid-76-uid-78-uid-100-uid-112-uid-114-uid-116-uid-118" cx="35.934" cy="-142.904" r="13.874" gradientTransform="matrix(.91 -.44 -.6 -1.24 -88.415 -104.29)" gradientUnits="userSpaceOnUse"><stop offset=".38" stop-color="#bc5118"></stop><stop offset=".59" stop-color="#ba5018"></stop><stop offset=".69" stop-color="#b24c17"></stop><stop offset=".77" stop-color="#a54616"></stop><stop offset=".84" stop-color="#933d14"></stop><stop offset=".9" stop-color="#7b3212"></stop><stop offset=".92" stop-color="#6d2b11"></stop></radialGradient><path d="M35.1 72.6v-1c0-3.5-1.8-6.8-4.8-8.8-3.8-2.5-5-7.6-2.5-11.5.3-.5.7-.9 1.1-1.4.9-.9 2.1-1.6 3.3-2l-4-3c-1.2-.9-1.5-2.6-.6-3.9 0-.1.1-.1.1-.2.9-1 2.4-1.3 3.6-.5l4.5 2.8c5.3 3.3 9.2 8.4 11.1 14.4.5 1.8.9 3.6 1.1 5.5l.8 9.4" fill="url(#catalog-47-j-uid-22-uid-34-uid-36-uid-58-uid-70-uid-72-uid-74-uid-76-uid-78-uid-100-uid-112-uid-114-uid-116-uid-118)"></path><radialGradient id="catalog-47-k-uid-22-uid-34-uid-36-uid-58-uid-70-uid-72-uid-74-uid-76-uid-78-uid-100-uid-112-uid-114-uid-116-uid-118" cx="31.228" cy="53.995" r="57.651" gradientTransform="matrix(1.01 0 0 -1.01 7.105 131.13)" gradientUnits="userSpaceOnUse"><stop offset=".52" stop-color="#95df00"></stop><stop offset=".66" stop-color="#93de00"></stop><stop offset=".72" stop-color="#8bdb00"></stop><stop offset=".78" stop-color="#7ed500"></stop><stop offset=".82" stop-color="#6ccd00"></stop><stop offset=".86" stop-color="#54c300"></stop><stop offset=".89" stop-color="#36b700"></stop><stop offset=".92" stop-color="#14a800"></stop></radialGradient><path d="M69.9 121.9h71.7l2.3-14.2c2.2-13.2 1.1-26.6-3.1-39.3-2.6-7.8-9.9-12.9-18.1-12.7-3.8.1-7.4 1.3-10.5 3.5-2.7 2-6.2 2.4-9.3 1.2L99 59c-5.2-2-10.8-2.6-16.3-1.6-8.4 1.5-15.9 6.3-20.5 13.5l-7.7 11.8-3-12.3c-1.1-4.7-5.3-7.9-10.1-7.9-5.7 0-10.4 4.7-10.4 10.4v.9l2.9 31.8c1.1 11.7 10.9 20.7 22.7 20.7 4.7 0 9.4-1.5 13.2-4.2l.1-.2" fill="url(#catalog-47-k-uid-22-uid-34-uid-36-uid-58-uid-70-uid-72-uid-74-uid-76-uid-78-uid-100-uid-112-uid-114-uid-116-uid-118)"></path><radialGradient id="catalog-47-l-uid-22-uid-34-uid-36-uid-58-uid-70-uid-72-uid-74-uid-76-uid-78-uid-100-uid-112-uid-114-uid-116-uid-118" cx="51.779" cy="28.211" r="35.974" gradientTransform="matrix(1.01 0 0 -1.01 7.105 131.13)" gradientUnits="userSpaceOnUse"><stop offset=".52" stop-color="#126b00"></stop><stop offset=".67" stop-color="#126b00" stop-opacity=".98"></stop><stop offset=".73" stop-color="#126b00" stop-opacity=".91"></stop><stop offset=".79" stop-color="#126b00" stop-opacity=".79"></stop><stop offset=".83" stop-color="#126b00" stop-opacity=".61"></stop><stop offset=".87" stop-color="#126b00" stop-opacity=".39"></stop><stop offset=".91" stop-color="#126b00" stop-opacity=".12"></stop><stop offset=".92" stop-color="#126b00" stop-opacity="0"></stop></radialGradient><path d="M119.7 90.9H94.2l-5.4 9.8c-4.6 8.4-11.1 15.7-18.9 21.2h49.8v-31z" fill="url(#catalog-47-l-uid-22-uid-34-uid-36-uid-58-uid-70-uid-72-uid-74-uid-76-uid-78-uid-100-uid-112-uid-114-uid-116-uid-118)"></path><radialGradient id="catalog-47-m-uid-22-uid-34-uid-36-uid-58-uid-70-uid-72-uid-74-uid-76-uid-78-uid-100-uid-112-uid-114-uid-116-uid-118" cx="113.37" cy="-341.433" r="17.729" gradientTransform="matrix(1.01 0 0 -2.71 7.105 -811.86)" gradientUnits="userSpaceOnUse"><stop offset=".52" stop-color="#126b00"></stop><stop offset=".67" stop-color="#126b00" stop-opacity=".98"></stop><stop offset=".73" stop-color="#126b00" stop-opacity=".91"></stop><stop offset=".79" stop-color="#126b00" stop-opacity=".79"></stop><stop offset=".83" stop-color="#126b00" stop-opacity=".61"></stop><stop offset=".87" stop-color="#126b00" stop-opacity=".39"></stop><stop offset=".91" stop-color="#126b00" stop-opacity=".12"></stop><stop offset=".92" stop-color="#126b00" stop-opacity="0"></stop></radialGradient><path d="M140.8 68.5c-1.4-4.3-4.4-7.9-8.3-10.2v10.9c0 3.3.1 6.6.4 9.9l.9 12.6c.4 5.3.2 10.6-.7 15.9v.1l-2.3 13.9-.1.3h10.8l2.3-14.2c2.3-13.1 1.2-26.5-3-39.2z" fill="url(#catalog-47-m-uid-22-uid-34-uid-36-uid-58-uid-70-uid-72-uid-74-uid-76-uid-78-uid-100-uid-112-uid-114-uid-116-uid-118)"></path><radialGradient id="catalog-47-n-uid-22-uid-34-uid-36-uid-58-uid-70-uid-72-uid-74-uid-76-uid-78-uid-100-uid-112-uid-114-uid-116-uid-118" cx="30.292" cy="-154.038" r="13.971" gradientTransform="matrix(1.01 0 0 -2.77 7.105 -347.25)" gradientUnits="userSpaceOnUse"><stop offset=".52" stop-color="#14a800" stop-opacity="0"></stop><stop offset=".65" stop-color="#14a800" stop-opacity=".01"></stop><stop offset=".71" stop-color="#14a800" stop-opacity=".06"></stop><stop offset=".76" stop-color="#14a800" stop-opacity=".14"></stop><stop offset=".8" stop-color="#14a800" stop-opacity=".25"></stop><stop offset=".83" stop-color="#14a800" stop-opacity=".39"></stop><stop offset=".87" stop-color="#14a800" stop-opacity=".57"></stop><stop offset=".9" stop-color="#14a800" stop-opacity=".77"></stop><stop offset=".92" stop-color="#14a800"></stop></radialGradient><path d="M41.2 62.4c-.6 0-1.2.1-1.8.1l5.2 34.9 9.7-14.8-3-12.3c-1.1-4.6-5.3-7.9-10.1-7.9z" fill="url(#catalog-47-n-uid-22-uid-34-uid-36-uid-58-uid-70-uid-72-uid-74-uid-76-uid-78-uid-100-uid-112-uid-114-uid-116-uid-118)"></path></svg>