<svg xmlns="http://www.w3.org/2000/svg" viewBox="0 0 145 130" aria-hidden="true" role="img"><path d="M107.5 111.1L44.6 70.4c-3.1-2.1-4.1-6.2-1.9-9.5l27-41.6c2.1-3.1 6.2-4.1 9.5-1.9L141.9 58c3.1 2.1 4.1 6.2 1.9 9.5l-27 41.6c-1.9 3.1-6.2 4.1-9.3 2z" fill="#8d77af"></path><path d="M106.3 110.2l-63-40.5c-3.1-2.1-4.1-6.2-1.9-9.5l27-41.6c2.1-3.1 6.2-4.1 9.5-1.9l62.7 40.6c3.1 2.1 4.1 6.2 1.9 9.5l-27 41.6c-1.8 3-6.1 4-9.2 1.8z" fill="#bda1e7"></path><linearGradient id="payment-method-225-a-uid-56" gradientUnits="userSpaceOnUse" x1="640.24" y1="1116.837" x2="659.594" y2="1116.837" gradientTransform="scale(1 -1) rotate(-10.457 -6007.18 3710.45)"><stop offset=".23" stop-color="#fccd81"></stop><stop offset=".676" stop-color="#fccd81"></stop><stop offset=".993" stop-color="#eb9546"></stop></linearGradient><path d="M70.5 57.8l-11.3-7.4c-.7-.5-.7-1.3-.4-1.8l6-9.2c.5-.7 1.3-.7 1.8-.4l11.3 7.4c.7.5.7 1.3.4 1.8l-6 9.2c-.2.5-1.1.7-1.8.4z" fill="url(#payment-method-225-a-uid-56)"></path><path d="M60.1 51c-.7-.5-.7-1.3-.4-1.8l6-9.2c.5-.7 1.3-.7 1.8-.4l-.7-.6c-.7-.5-1.5-.3-1.8.4l-6 9c-.5.7-.3 1.5.4 1.8" fill="#eb9546"></path><path d="M97.7 57.7H43l-1.7 2.6c-2.2 3.3-1.2 7.4 1.9 9.5l57.1 36.7 3.9 2.5V64.3c.1-3.7-2.9-6.6-6.5-6.6z" fill="#8d77af"></path><linearGradient id="payment-method-225-b-uid-56" gradientUnits="userSpaceOnUse" x1="0" y1="16.69" x2="143.748" y2="16.69" gradientTransform="matrix(1 0 0 -1 0 130)"><stop offset="0" stop-color="#c3d2c3" stop-opacity="0"></stop><stop offset=".255" stop-color="#c3d2c3"></stop><stop offset=".337" stop-color="#c3d2c3"></stop><stop offset=".82" stop-color="#c3d2c3"></stop><stop offset="1" stop-color="#c3d2c3" stop-opacity=".014"></stop></linearGradient><path d="M.9 112.1h141.9c.5 0 .9.5.9 1.2s-.4 1.2-.9 1.2H.9c-.5 0-.9-.5-.9-1.2s.4-1.2.9-1.2z" fill="url(#payment-method-225-b-uid-56)"></path><linearGradient id="payment-method-225-c-uid-56" gradientUnits="userSpaceOnUse" x1="57.376" y1="15.399" x2="57.376" y2="76.161" gradientTransform="matrix(1 0 0 -1 0 130)"><stop offset="0" stop-color="#126b00"></stop><stop offset="1" stop-color="#14a800"></stop></linearGradient><path d="M93.2 114.5H21.5c-3.6 0-6.6-3-6.6-6.6V60.4c0-3.6 3-6.6 6.6-6.6h71.7c3.6 0 6.6 3 6.6 6.6V108c0 3.6-2.9 6.5-6.6 6.5z" fill="url(#payment-method-225-c-uid-56)"></path><linearGradient id="payment-method-225-d-uid-56" gradientUnits="userSpaceOnUse" x1="13.541" y1="45.855" x2="98.435" y2="45.855" gradientTransform="matrix(1 0 0 -1 0 130)"><stop offset="0" stop-color="#95df00"></stop><stop offset="1" stop-color="#01cdbe"></stop></linearGradient><path d="M91.8 114.5H20.1c-3.6 0-6.6-3-6.6-6.6V60.4c0-3.6 3-6.6 6.6-6.6h71.7c3.6 0 6.6 3 6.6 6.6V108c0 3.6-2.9 6.5-6.6 6.5z" fill="url(#payment-method-225-d-uid-56)"></path><linearGradient id="payment-method-225-e-uid-56" gradientUnits="userSpaceOnUse" x1="13.541" y1="61.477" x2="98.435" y2="61.477" gradientTransform="matrix(1 0 0 -1 0 130)"><stop offset="0" stop-color="#0d3a35"></stop><stop offset="1" stop-color="#13544e"></stop></linearGradient><path d="M98.4 63.8H13.5v9.4h84.9v-9.4z" fill="url(#payment-method-225-e-uid-56)"></path></svg>