<svg data-name="Layer 1" xmlns="http://www.w3.org/2000/svg" viewBox="0 0 145 130" aria-hidden="true" role="img"><defs><linearGradient id="education-104-a-uid-108" x1="72.17" y1="23" x2="103.47" y2="117.84" gradientTransform="matrix(1 0 0 -1 0 132)" gradientUnits="userSpaceOnUse"><stop offset=".35" stop-color="#f2f7f2"></stop><stop offset=".79" stop-color="#dde6dd"></stop><stop offset=".93" stop-color="#d5e0d5"></stop></linearGradient><linearGradient id="education-104-b-uid-108" x1="117.38" y1="115.76" x2="122.56" y2="124.74" gradientTransform="matrix(1 0 0 -1 0 132)" gradientUnits="userSpaceOnUse"><stop offset=".26" stop-color="#e4ebe4"></stop><stop offset="1" stop-color="#f2f7f2"></stop></linearGradient><linearGradient id="education-104-c-uid-108" x1="29.68" y1="17.74" x2="54.25" y2="17.74" gradientTransform="matrix(1 0 0 -1 0 132)" gradientUnits="userSpaceOnUse"><stop offset=".32" stop-color="#c3d2c3"></stop><stop offset=".46" stop-color="#c8d6c8"></stop><stop offset=".93" stop-color="#e9f0e9"></stop></linearGradient><linearGradient id="education-104-d-uid-108" x1="36.5" y1="7.52" x2="47.41" y2="7.52" gradientTransform="matrix(1 0 0 -1 0 132)" gradientUnits="userSpaceOnUse"><stop offset="0" stop-color="#092622"></stop><stop offset=".6" stop-color="#104741"></stop><stop offset=".93" stop-color="#13544e"></stop></linearGradient><linearGradient id="education-104-e-uid-108" x1="43.53" y1="8.05" x2="43.22" y2="11.27" gradientTransform="matrix(1 0 0 -1 0 132)" gradientUnits="userSpaceOnUse"><stop offset="0" stop-color="#c3d2c3"></stop><stop offset=".48" stop-color="#c6d4c6"></stop><stop offset=".8" stop-color="#cedbce"></stop><stop offset=".93" stop-color="#d5e0d5"></stop></linearGradient><linearGradient id="education-104-f-uid-108" x1="178.99" y1="-8186.08" x2="178.79" y2="-8174.15" gradientTransform="matrix(1 0 0 -1 0 132)" gradientUnits="userSpaceOnUse"><stop offset="0" stop-color="#c3d2c3"></stop><stop offset=".48" stop-color="#c6d4c6"></stop><stop offset=".8" stop-color="#cedbce"></stop><stop offset=".93" stop-color="#d5e0d5"></stop></linearGradient><linearGradient id="education-104-g-uid-108" x1="179.11" y1="-8204.63" x2="178.91" y2="-8192.69" gradientTransform="matrix(1 0 0 -1 0 132)" gradientUnits="userSpaceOnUse"><stop offset="0" stop-color="#c3d2c3"></stop><stop offset=".48" stop-color="#c6d4c6"></stop><stop offset=".8" stop-color="#cedbce"></stop><stop offset=".93" stop-color="#d5e0d5"></stop></linearGradient><linearGradient id="education-104-i-uid-108" x1="112.26" y1="14.73" x2="106.77" y2="2.21" gradientTransform="matrix(1 0 0 -1 0 132)" gradientUnits="userSpaceOnUse"><stop offset=".02" stop-color="#126b00"></stop><stop offset=".26" stop-color="#138600"></stop><stop offset=".5" stop-color="#139900"></stop><stop offset=".74" stop-color="#14a400"></stop><stop offset="1" stop-color="#14a800"></stop></linearGradient><linearGradient id="education-104-j-uid-108" x1="24965.63" y1="-38703.57" x2="25081.33" y2="-38883.87" gradientTransform="matrix(1 0 0 -1 0 132)" gradientUnits="userSpaceOnUse"><stop offset=".02" stop-color="#126b00"></stop><stop offset=".26" stop-color="#138600"></stop><stop offset=".5" stop-color="#139900"></stop><stop offset=".74" stop-color="#14a400"></stop><stop offset="1" stop-color="#14a800"></stop></linearGradient><linearGradient id="education-104-k-uid-108" x1="106.11" y1="22.39" x2="125.49" y2="37.35" gradientTransform="matrix(1 0 0 -1 0 132)" gradientUnits="userSpaceOnUse"><stop offset=".44" stop-color="#bda1e7"></stop><stop offset="1" stop-color="#8d77af"></stop></linearGradient><radialGradient id="education-104-h-uid-108" cx="-870.54" cy="597.2" fx="-870.54" fy="597.2" r="1" gradientTransform="matrix(53.89 0 0 -53.89 46975.5 32224.77)" gradientUnits="userSpaceOnUse"><stop offset="0" stop-color="#fccd81"></stop><stop offset=".5" stop-color="#fbcb7f"></stop><stop offset=".68" stop-color="#fac578"></stop><stop offset=".8" stop-color="#f6ba6d"></stop><stop offset=".91" stop-color="#f1aa5c"></stop><stop offset=".99" stop-color="#eb9546"></stop></radialGradient></defs><path d="M131.12 12.66C124.34 8.6 113.9 2.6 112.28 1.62 109.36 0 105.78 0 102.86 0H41.95v122.09h92.1V17.37c0-.7-.14-1.4-.42-2.04-.28-.64-.69-1.22-1.21-1.7-.49-.32-.81-.64-1.3-.97z" fill="url(#education-104-a-uid-108)"></path><path d="M41.95 107.95h16.1a1.994 1.994 0 001.43-.59c.19-.19.34-.41.44-.66.1-.24.15-.51.15-.77.01-4.39.91-8.73 2.63-12.77a32.63 32.63 0 017.4-10.73 31.407 31.407 0 009.71-22.86c0-4.7-1.03-9.33-3.03-13.58-2-4.25-4.9-8.01-8.52-11-3.61-3-7.85-5.16-12.39-6.33a32.014 32.014 0 00-13.91-.46v79.76zm18.27 13.72h.24c.22-.03.42-.15.56-.33.14-.18.21-.4.19-.63-.02-.22-.12-.43-.29-.58s-.39-.23-.61-.23h-.08v-2.26h.24c.22-.04.42-.16.56-.33a.902.902 0 00-.1-1.22.878.878 0 00-.61-.23h-.08v-2.26h.24c.22-.04.42-.15.56-.33.14-.18.21-.4.19-.63s-.12-.44-.29-.59a.926.926 0 00-.61-.23h-.08v-2.09c-.03-.43-.22-.83-.53-1.12-.31-.3-.72-.47-1.15-.48H41.99v14.1h18.27v-.55zm72.19-108.03c-.49-.32-.81-.64-1.3-.97-4.06-2.43-9.04-5.36-12.99-7.63-.83-.22-1.64-.49-2.44-.81 3.39 1.94 9.43 15.27 9.43 15.27 1.94-.5 5.03-4.87 8.6-4.23-.39-.57-.83-1.12-1.3-1.63z" fill="#d5e0d5"></path><path d="M131.11 12.66c-6.99-4.06-17.06-9.9-18.84-11.04 3.39 1.96 9.43 15.27 9.43 15.27 2.26-.66 6.33-6.78 10.72-3.24-.49-.33-.81-.66-1.3-.98z" fill="url(#education-104-b-uid-108)"></path><path d="M97.65 27.54h-35.7c-.22 0-.42-.09-.58-.24-.15-.15-.24-.36-.24-.58s.09-.42.24-.58c.15-.15.36-.24.58-.24h35.7c.11 0 .22.01.32.05s.19.1.27.18a.8.8 0 01.18.27c.04.1.06.21.05.32-.16.49-.49.81-.81.81zm-7.91 68.67H61.95c-.11 0-.22 0-.32-.04s-.19-.1-.27-.17a.8.8 0 01-.18-.27.696.696 0 01-.05-.32c0-.11 0-.22.05-.32a.8.8 0 01.18-.27.8.8 0 01.27-.18c.1-.04.21-.06.32-.05h27.79c.11 0 .22 0 .32.05.1.04.19.1.27.18a.8.8 0 01.18.27c.04.1.06.21.05.32-.16.49-.49.8-.81.8zm25.13-42.85a.86.86 0 00-.05-.32.8.8 0 00-.18-.27.8.8 0 00-.27-.18.696.696 0 00-.32-.05H62.36c-.22 0-.42.09-.58.24-.15.15-.24.36-.24.58s.09.42.24.58c.15.15.36.24.58.24h51.86c.17-.07.31-.19.42-.33.11-.14.19-.31.22-.49zm0 8.12a.86.86 0 00-.05-.32.77.77 0 00-.45-.44.691.691 0 00-.32-.04H62.36c-.11-.01-.23 0-.34.03-.11.03-.21.09-.3.17-.09.08-.15.17-.2.27s-.07.22-.07.33.02.23.07.33.12.2.2.27c.09.08.19.13.3.17.11.03.23.05.34.03h51.86c.19-.02.37-.12.49-.27s.18-.35.15-.54zm0 8.13a.86.86 0 00-.05-.32.8.8 0 00-.18-.27.8.8 0 00-.27-.18.696.696 0 00-.32-.05H62.36c-.22 0-.42.09-.58.24-.15.15-.24.36-.24.58s.09.42.24.58c.15.15.36.24.58.24h51.86c.19-.03.37-.12.49-.28a.74.74 0 00.16-.54zm0 8.29a.86.86 0 00-.05-.32.8.8 0 00-.18-.27.8.8 0 00-.27-.18.696.696 0 00-.32-.05H62.36c-.11-.01-.23 0-.34.03-.11.03-.21.09-.3.17-.09.08-.15.17-.2.27-.05.1-.07.22-.07.33s.02.23.07.33.12.2.2.27c.09.08.19.13.3.17.11.03.23.05.34.03h51.86c.16-.07.31-.18.42-.32.11-.14.19-.3.23-.48z" fill="#8d77af"></path><path d="M52.63 102.26H31.28a1.606 1.606 0 00-1.6 1.6v15.83c0 .85.34 1.66.94 2.27.6.6 1.41.94 2.26.94h3.62c.24 0 .48.04.71.13.23.09.43.23.6.4.17.17.31.38.4.6.09.23.14.47.13.71 0 .41.16.79.45 1.08.29.29.67.45 1.08.45h4.25c.4 0 .79-.16 1.08-.45.29-.29.45-.67.45-1.08 0-.24.04-.48.13-.71.09-.22.23-.43.4-.6.17-.17.38-.31.6-.4.23-.09.47-.14.71-.13h3.62c.85 0 1.67-.34 2.27-.94.6-.6.94-1.42.94-2.27v-15.83c-.03-.43-.22-.83-.53-1.12-.31-.3-.72-.47-1.15-.48z" fill="url(#education-104-c-uid-108)"></path><path d="M29.67 111.25l24.55-3.04v-.49l-24.55 2.41v1.12zm24.55.56l-24.55 2.41v1.04l24.55-2.97v-.47zm-24.54 7.6l24.55-2.97v-.47l-24.55 2.32v1.13z" fill="#9aaa97"></path><path d="M38.34 124.64c0 .4.16.79.45 1.08.29.29.67.45 1.08.45h4.25c.4 0 .79-.16 1.08-.45.29-.29.45-.68.45-1.08 0-.24.04-.48.13-.71.09-.22.23-.43.4-.6.17-.17.38-.31.6-.4.22-.09.47-.14.71-.13H36.5c.48.02.94.22 1.28.56.34.34.54.8.56 1.28z" fill="url(#education-104-d-uid-108)"></path><path d="M29.36 108.35l25.04-2.41a.916.916 0 01.66.19c.09.07.16.17.22.27.05.11.08.22.09.34.02.12.01.24-.02.35-.03.11-.09.22-.16.31-.08.09-.17.17-.28.22-.11.05-.22.08-.34.09l-25.04 2.41a.916.916 0 01-.66-.19.966.966 0 01-.22-.27c-.05-.11-.08-.22-.09-.34a.916.916 0 01.19-.66c.08-.09.17-.17.27-.22.11-.05.22-.08.34-.09z" fill="url(#education-104-e-uid-108)"></path><path d="M29.35 112.36l25.04-2.41a.916.916 0 01.66.19c.09.08.16.17.22.27.05.11.08.22.09.34.02.12.01.24-.02.35-.03.11-.09.22-.16.31a.808.808 0 01-.62.3l-25.04 2.41a.82.82 0 01-.35-.02.916.916 0 01-.31-.16c-.09-.08-.16-.17-.22-.28a.808.808 0 01-.08-.34.95.95 0 01.8-.96z" fill="url(#education-104-f-uid-108)"></path><path d="M29.35 116.46l25.04-2.41c.12-.02.24 0 .35.02.11.03.22.09.31.16.09.08.16.17.22.28.05.1.08.22.09.34.02.12.01.24-.02.35-.03.11-.09.22-.16.31a.808.808 0 01-.62.3l-25.04 2.41a.82.82 0 01-.35-.02.916.916 0 01-.31-.16c-.09-.08-.16-.17-.22-.28a.808.808 0 01-.08-.34.88.88 0 01.2-.64c.15-.18.36-.29.6-.32z" fill="url(#education-104-g-uid-108)"></path><path d="M73.89 53.84c0-5.28-1.31-10.48-3.81-15.13s-6.11-8.61-10.52-11.52a31.96 31.96 0 00-14.72-5.17c-5.26-.48-10.55.35-15.41 2.42A31.982 31.982 0 0017 33.87c-3.3 4.12-5.53 9-6.48 14.19-.95 5.19-.61 10.54 1.01 15.57 1.62 5.03 4.46 9.57 8.26 13.23a32.34 32.34 0 017.31 10.67c1.7 4.01 2.57 8.32 2.57 12.68 0 .26.05.53.15.77.1.24.25.47.43.65.19.19.41.33.65.44.24.1.51.15.77.15h20.46c.26 0 .52-.06.76-.17.24-.1.46-.26.64-.44.18-.19.32-.41.42-.66.1-.24.14-.5.14-.77.01-4.39.91-8.73 2.63-12.77a32.63 32.63 0 017.4-10.73c3.09-2.95 5.55-6.49 7.23-10.42 1.68-3.93 2.54-8.16 2.53-12.43z" fill="url(#education-104-h-uid-108)"></path><path d="M46.53 102.02V74.49c0-5.29 6.18-6.78 6.18-12.04 0-3.69-2.33-4.82-3.85-4.82-1.76 0-4.01 1.13-4.01 2.89-.03.25 0 .5.07.74.08.24.2.46.37.64.17.19.37.34.6.44.23.1.48.15.73.15s.5-.05.73-.15c.23-.1.43-.25.6-.44.17-.19.29-.41.37-.64.08-.24.1-.49.07-.74 0-1.76-2.26-2.89-4.01-2.89s-4 1.13-4 2.89c-.03.25 0 .5.07.74.08.24.2.46.37.64.17.19.37.34.6.44.23.1.48.15.73.15s.5-.05.73-.15c.23-.1.43-.25.6-.44.17-.19.29-.41.37-.64.08-.24.1-.49.07-.74 0-1.76-2.33-2.89-4.01-2.89s-4.01 1.13-4.01 2.89a1.748 1.748 0 001.04 1.78c.23.1.47.15.72.14.24 0 .49-.05.71-.15.22-.1.42-.24.59-.42a1.766 1.766 0 00.46-1.34c0-1.76-2.26-2.89-4.01-2.89-1.51 0-3.84 1.13-3.84 4.82 0 5.22 6.17 6.78 6.17 12.04v27.53" fill="none" stroke="#eb9546" stroke-linejoin="round" stroke-width=".8"></path><path d="M112.07 130l-4.07-3.71-5.11-.4 7.52-16.73 9.19 4.1-7.53 16.73z" fill="#13544e"></path><path d="M108 126.29l2.91 2.63 7.29-16.28-6.42-2.86-7.26 16.24 3.48.26z" fill="url(#education-104-i-uid-108)"></path><path d="M116.89 112.07l-1.08-.5-3.35.95 2.24 7.88 3.49-7.75-1.3-.58z" fill="#126b00"></path><path d="M116.89 112.07l-1.08-.5 1.08.5z" fill="#092622"></path><path d="M120.67 130l4.06-3.71 5.12-.4-7.53-16.73-9.18 4.1 7.53 16.73z" fill="#13544e"></path><path d="M124.73 126.29l-2.89 2.63-7.29-16.28 6.41-2.86 7.27 16.24-3.49.26z" fill="url(#education-104-j-uid-108)"></path><path d="M117.06 114.64c7.44 0 13.47-6.03 13.47-13.47S124.5 87.7 117.06 87.7s-13.47 6.03-13.47 13.47 6.03 13.47 13.47 13.47z" fill="url(#education-104-k-uid-108)"></path></svg>