<svg xmlns="http://www.w3.org/2000/svg" viewBox="0 0 145 130" aria-hidden="true" role="img"><linearGradient id="happy-client-145-a-uid-4" gradientUnits="userSpaceOnUse" x1="25.262" y1="33.755" x2="49.931" y2="110.499" gradientTransform="matrix(1 0 0 -1 0 130)"><stop offset=".35" stop-color="#f2f7f2"></stop><stop offset=".79" stop-color="#dde6dd"></stop><stop offset=".93" stop-color="#d5e0d5"></stop></linearGradient><path d="M64.9 16c-5.6-2.5-14-6.3-15.2-6.8-2.4-1.1-5-.7-7.4-.5L0 13.1l10 93.6 66.1-7-8.5-80.2c-.1-.8-.4-1.8-1.6-2.7-.3-.4-.7-.6-1.1-.8z" fill="url(#happy-client-145-a-uid-4)"></path><path d="M76.1 99.4c-3.5-2.8-7.3-5.4-11.3-7.6l-.4.3.5-.4-.3-.5C62 86.4 58.5 82 54.5 78.3c-.8-.7-1.8-.7-2.6-.2-.1.1-.2.1-.2.2-.2.2-.4.5-.5.8 0 .1-.1.2-.1.2-.2.6-.1 1.2.3 1.7.1.1.1.2.2.2l2 2.1h-.8c-.6 0-1.1-.1-1.7-.2-1.7-.3-3.2-1.1-4.5-2.2-.7-.6-1.1-1.4-1.3-2.3l-.1-.6c-.2-.6-.6-1-1.2-1.2-.2-.1-.4-.1-.6 0-.1-.4-.4-.8-.8-1-.2-.1-.3-.2-.5-.2h-.4c-.9.1-1.7.8-1.6 1.7v.5c.1 1.9.7 3.8 1.7 5.4.1.1.1.2.2.2.4 2.9 1.7 5.6 3.9 7.6 1.4 1.4 3.3 2.3 5.2 2.9L55 95l2.6 2.8-1.8 1.5.1.1c-.4.1-.7.5-.7 1l.3 1.4 20.8-2.2-.2-.2z" fill="#c3d2c3"></path><linearGradient id="happy-client-145-b-uid-4" gradientUnits="userSpaceOnUse" x1="54.246" y1="110.15" x2="57.723" y2="116.956" gradientTransform="matrix(1 0 0 -1 0 130)"><stop offset=".264" stop-color="#e4ebe4"></stop><stop offset="1" stop-color="#f2f7f2"></stop></linearGradient><path d="M64.9 16c-5.7-2.6-13.8-6.2-15.2-6.8 2.7 1.3 8.4 10.9 8.4 10.9 1.7-.7 4.3-5.7 7.9-3.4-.3-.3-.7-.5-1.1-.7z" fill="url(#happy-client-145-b-uid-4)"></path><path d="M23.7 20.1L12 21.3c-.2 0-.5-.1-.5-.4 0-.2.1-.5.4-.5l11.7-1.3c.2 0 .5.1.5.4s-.2.6-.4.6zm.6 2.1c0-.2-.2-.4-.5-.4L12.1 23c-.2 0-.4.2-.4.5 0 .2.2.4.5.4l11.7-1.3c.3 0 .5-.2.4-.4zm.3 2.5c0-.2-.2-.4-.5-.4l-11.7 1.3c-.2 0-.4.2-.4.5 0 .2.2.4.5.4l11.7-1.3c.2 0 .4-.2.4-.5 0 .1 0 0 0 0zm34.3 12.7c0-.2-.2-.4-.5-.4l-44.2 4.7c-.2 0-.4.2-.4.5 0 .2.2.4.5.4l44.2-4.7c.3 0 .4-.2.4-.5zm.5 5.2c0-.2-.2-.4-.5-.4l-44.2 4.7c-.2 0-.4.2-.4.5 0 .2.2.4.5.4L59 43.1c.3 0 .5-.2.4-.5zm.6 5.1c0-.2-.2-.4-.5-.4L15.4 52c-.2 0-.4.2-.4.5 0 .2.2.4.5.4l44.2-4.7c.1.1.3-.2.3-.5zm.6 5.2c0-.2-.2-.4-.5-.4l-44.2 4.7c-.2 0-.4.2-.4.5 0 .2.2.4.5.4l44.2-4.7c.2 0 .4-.2.4-.5zm.5 5.1c0-.2-.2-.4-.5-.4l-44.2 4.7c-.2 0-.4.2-.4.5 0 .2.2.4.5.4l44.2-4.7c.2.1.4-.2.4-.5zm-16 7c0-.2-.2-.4-.5-.4l-27.7 2.9c-.2 0-.4.2-.4.5 0 .2.2.4.5.4l27.7-2.9c.2 0 .4-.2.4-.5zM31.5 89.9c0-.2-.2-.4-.5-.4l-11.6 1.3c-.2 0-.4.2-.4.5 0 .2.2.4.5.4l11.7-1.3c.2-.1.3-.3.3-.5zm16-4.3c0-.1-.1-.1 0 0-.1-.1-.1-.1-.2-.1l-28.5 3c-.1 0-.1.1-.1.1v.1c0 .1.1.1.1.1l28.5-3c.1 0 .1-.1.1-.1l.1-.1zm-28.3.4c-.1.3.1.7.4.8.2.2.3.2.4.2.2 0 .4-.1.6-.3l3.7-4.5c.1-.1.3-.2.4 0l.1.1 1.6 4.1c.1.4.6.6 1.1.4.2-.1.4-.3.5-.5l2.6-10.7c0-.1 0-.2-.2-.3-.1 0-.2 0-.3.2l-2.6 10.7c0 .2-.2.3-.4.2-.1 0-.2-.1-.2-.2L25.2 82c-.1-.4-.6-.6-1.1-.4-.1 0-.2.1-.3.2l-3.7 4.5c-.1.1-.3.2-.4.1-.1-.1-.1-.2-.1-.3l1.5-6.3c.6-.2 1.3-.5 1.8-.8.5-.3.7-1.1.3-1.6-.3-.5-1.1-.7-1.6-.3-.2.2-.4.4-.5.7l-.4 1.8c-1.6.5-3.4.5-4.9 0l-.3-.1c-.1 0-.2 0-.3.1 0 .1 0 .2.1.3l.3.1c1.6.5 3.4.6 4.9.1L19.2 86zm2.4-8.2c.1-.4.4-.6.8-.5.1 0 .3.1.4.2.2.3.2.7-.1.9l-.1.1c-.4.3-.9.5-1.4.7l.4-1.4zm8 6.9s.1.1.2.1.1 0 .1-.1l1.4-1.2c.3-.3.8-.2 1.1.1.3.4.7.5 1.3.4l1.8-.4c.4.8 1.4 1.3 2.3 1.2l6.9-.8c.1 0 .2-.1.2-.2s-.1-.2-.2-.2l-6.9.8c-.7.1-1.4-.2-1.8-.8.3-.1.5-.4.4-.7 0-.1-.1-.2-.2-.3-.3-.2-.6-.2-.8.1-.1.1-.1.3-.1.5v.1l-1.7.4c-.3.1-.6 0-.8-.3-.4-.5-1.2-.6-1.8-.2l-1.3 1.3c-.3 0-.3.2-.1.2zm6.1-1.8c0-.2.1-.2 0 0h.2c.1.1.1.2 0 .2 0 0-.1 0-.1.1h-.1V83c-.2 0 0-.1 0-.1z" fill="#f66dbc"></path><path d="M42.5 86c0 .1.1.2.1.3l4.7-.5c.1 0 .1-.1.1-.1l.1-.1c-.1-.1-.1-.1-.2-.1l-4.8.5zm2.3-2.2c0-.1-.1-.2-.2-.2l-2.6.3c0 .1 0 .3.1.4l2.5-.3c.1 0 .2-.1.2-.2zm2.7 1.8c0-.1-.1-.1 0 0z" fill="#c64f99"></path><path d="M47.6 19.4c.8 1.1 1.5 1.7 1.5 1.7 1.3-.7 2.6-4.2 5-4.8-2.8-1.2-4.9 1.8-6.5 3.1z" fill="#d5e0d5"></path><radialGradient id="happy-client-145-c-uid-4" cx=".231" cy="130.08" r=".756" gradientTransform="matrix(40.2246 23.3109 20.2818 -34.9976 -2532.773 4634.629)" gradientUnits="userSpaceOnUse"><stop offset=".53" stop-color="#4ea42f"></stop><stop offset=".69" stop-color="#4ba12d"></stop><stop offset=".79" stop-color="#429926"></stop><stop offset=".88" stop-color="#338b1a"></stop><stop offset=".96" stop-color="#1e770a"></stop><stop offset="1" stop-color="#126b00"></stop></radialGradient><path d="M73.3 113.9c6.2 3.8 13.3 5.7 20.6 5.7h40c4.7 0 8.8-2.9 10.3-7.3 1.1-3 .9-6.3-.5-9.2l-10.1-22.2c-1.8-4-5.3-7-9.5-8.2-3.2-.8-6.6-.6-9.7.5l-.8.3c-2.6 1-5.5 1-8.2 0-2.4-.9-5.1-1-7.6-.2-4.2 1.3-7.3 4.7-8.3 8.9l-4.6 21.1C79.4 97.8 73.2 93 66.4 89.2l-9.2 7.5 3.2 4.8c3.5 5.1 7.8 9.3 12.9 12.4z" fill="url(#happy-client-145-c-uid-4)"></path><radialGradient id="happy-client-145-d-uid-4" cx="-.281" cy="130.374" r=".756" gradientTransform="matrix(-14.9013 24.6069 20.6688 12.5165 -2587.172 -1522.426)" gradientUnits="userSpaceOnUse"><stop offset=".53" stop-color="#126b00"></stop><stop offset=".66" stop-color="#126b00" stop-opacity=".97"></stop><stop offset=".74" stop-color="#126b00" stop-opacity=".89"></stop><stop offset=".82" stop-color="#126b00" stop-opacity=".75"></stop><stop offset=".88" stop-color="#126b00" stop-opacity=".55"></stop><stop offset=".95" stop-color="#126b00" stop-opacity=".3"></stop><stop offset="1" stop-color="#126b00" stop-opacity="0"></stop></radialGradient><path d="M75.5 115.1c5.7 2.9 12 4.5 18.4 4.5h2.3l-1.1-29.7-6.9-.8c-1.4 6.2-3.1 14.3-3.1 14.3-3-3-6.2-5.7-9.6-8.3v20z" fill="url(#happy-client-145-d-uid-4)"></path><radialGradient id="happy-client-145-e-uid-4" cx=".38" cy="129.936" r=".756" gradientTransform="matrix(32.0072 0 0 -26.886 98.713 3583.648)" gradientUnits="userSpaceOnUse"><stop offset=".53" stop-color="#4ea42f"></stop><stop offset=".69" stop-color="#4ba12d"></stop><stop offset=".79" stop-color="#429926"></stop><stop offset=".88" stop-color="#338b1a"></stop><stop offset=".96" stop-color="#1e770a"></stop><stop offset="1" stop-color="#126b00"></stop></radialGradient><path d="M110.3 110l4.1-.9c4.5-1 9.1-1.2 13.5-.6l-.5-.8c-3.3-5.4-5.3-11.4-5.6-17.8H95.1l1.1 30 14.1-9.9z" fill="url(#happy-client-145-e-uid-4)"></path><radialGradient id="happy-client-145-f-uid-4" cx=".04" cy="130.024" r=".756" gradientTransform="matrix(32.0072 0 0 -26.886 143.411 3593.334)" gradientUnits="userSpaceOnUse"><stop offset=".53" stop-color="#126b00"></stop><stop offset=".66" stop-color="#126b00" stop-opacity=".97"></stop><stop offset=".74" stop-color="#126b00" stop-opacity=".89"></stop><stop offset=".82" stop-color="#126b00" stop-opacity=".75"></stop><stop offset=".88" stop-color="#126b00" stop-opacity=".55"></stop><stop offset=".95" stop-color="#126b00" stop-opacity=".3"></stop><stop offset="1" stop-color="#126b00" stop-opacity="0"></stop></radialGradient><path d="M110.3 110l4.1-.9c4.5-1 9.1-1.2 13.5-.6l-.5-.8c-3.3-5.4-5.3-11.4-5.6-17.8H95.1l1.1 30 14.1-9.9z" fill="url(#happy-client-145-f-uid-4)"></path><radialGradient id="happy-client-145-g-uid-4" cx=".763" cy="130.652" r=".756" gradientTransform="matrix(22.6301 13.0058 8.3597 -14.5458 -1031.342 1984.705)" gradientUnits="userSpaceOnUse"><stop offset=".53" stop-color="#4ea42f"></stop><stop offset=".64" stop-color="#4da42e" stop-opacity=".98"></stop><stop offset=".71" stop-color="#4aa42c" stop-opacity=".93"></stop><stop offset=".78" stop-color="#45a527" stop-opacity=".84"></stop><stop offset=".83" stop-color="#3da521" stop-opacity=".71"></stop><stop offset=".89" stop-color="#33a619" stop-opacity=".54"></stop><stop offset=".94" stop-color="#27a710" stop-opacity=".33"></stop><stop offset=".98" stop-color="#19a804" stop-opacity=".09"></stop><stop offset="1" stop-color="#14a800" stop-opacity="0"></stop></radialGradient><path d="M95.2 114.4l-6.7-7.5-.3-.3c-1-1.1-2-2.2-3.1-3.3-5.5-5.5-11.7-10.3-18.5-14.1l-9.2 7.5 3.2 4.8c3.3 5 7.6 9.2 12.7 12.3 6.2 3.8 13.3 5.7 20.6 5.7h2.7l-1.4-5.1z" fill="url(#happy-client-145-g-uid-4)"></path><radialGradient id="happy-client-145-h-uid-4" cx=".149" cy="130.141" r=".756" gradientTransform="matrix(17.2525 20.1721 17.0216 -14.5579 -2084.604 1984.19)" gradientUnits="userSpaceOnUse"><stop offset=".53" stop-color="#126b00" stop-opacity="0"></stop><stop offset=".66" stop-color="#126b00" stop-opacity=".03"></stop><stop offset=".74" stop-color="#126b00" stop-opacity=".11"></stop><stop offset=".82" stop-color="#126b00" stop-opacity=".25"></stop><stop offset=".88" stop-color="#126b00" stop-opacity=".45"></stop><stop offset=".95" stop-color="#126b00" stop-opacity=".7"></stop><stop offset="1" stop-color="#126b00"></stop></radialGradient><path d="M135.6 85.1L122 89.9c.3 6.3 2.2 12.4 5.6 17.8l.5.8c1.2.2 2.3.4 3.6.7l12.8 2.8c.9-2.9.7-6.1-.5-8.8l-8.4-18.1z" fill="url(#happy-client-145-h-uid-4)"></path><radialGradient id="happy-client-145-i-uid-4" cx=".59" cy="128.926" r=".756" gradientTransform="matrix(14.1682 0 0 -14.1682 114.32 1874.954)" gradientUnits="userSpaceOnUse"><stop offset=".68" stop-color="#ae572a"></stop><stop offset=".78" stop-color="#994c25"></stop><stop offset="1" stop-color="#652f19"></stop></radialGradient><path d="M118.2 59.7c4.3 0 7.8-3.5 7.8-7.8s-3.5-7.8-7.8-7.8-7.8 3.5-7.8 7.8 3.5 7.8 7.8 7.8z" fill="url(#happy-client-145-i-uid-4)"></path><radialGradient id="happy-client-145-j-uid-4" cx=".632" cy="129.396" r=".756" gradientTransform="matrix(20.9192 0 0 -20.9192 94.323 2763.154)" gradientUnits="userSpaceOnUse"><stop offset=".68" stop-color="#fccd81"></stop><stop offset=".81" stop-color="#f6b96c"></stop><stop offset="1" stop-color="#eb9546"></stop></radialGradient><path d="M115.1 68.4c-.2-2.2-.2-4.4.3-6.5.1-.5.2-1 .2-1.4l-20.1-9.3c-4.6 4.6-4.7 12-.1 16.6 1.1 1.1 2.6 2 4.1 2.6 1.2.5 2.2 1.4 2.7 2.6l.5 1.1c1 2.1 3.6 3 5.7 2l7.2-3.3-.5-4.4z" fill="url(#happy-client-145-j-uid-4)"></path><radialGradient id="happy-client-145-k-uid-4" cx=".565" cy="129.304" r=".756" gradientTransform="matrix(20.3073 0 0 -20.3073 101.519 2677.519)" gradientUnits="userSpaceOnUse"><stop offset=".68" stop-color="#ae572a"></stop><stop offset=".78" stop-color="#994c25"></stop><stop offset="1" stop-color="#652f19"></stop></radialGradient><path d="M114.5 54.4c-.1-.2-.1-.2-.2-.3V54c-.1-.1-.1-.2-.2-.3l-.6-.9-.1-.1c-.1-.1-.1-.2-.2-.2l-.1-.1c-.1-.1-.1-.2-.2-.2l-.1-.1c-.1-.1-.1-.2-.2-.2l-.1-.1-.2-.2-.1-.1-.2-.2-.2-.2-.1-.1c-.1-.1-.2-.1-.2-.2-1.9-1.7-4.4-2.9-7-3.1-5.1-.5-9.8 2.5-11.8 7 3.7.8 7.5 1.1 11.3.8-.6 3.1.4 6.4 2.6 8.6 1.4 1.4 3.3 2.4 5.3 2.7l2.8.5c-.1-1.8 0-3.6.4-5.4.1-.5.2-1 .2-1.4.5-2 .1-4.2-.8-6.1z" fill="url(#happy-client-145-k-uid-4)"></path><radialGradient id="happy-client-145-l-uid-4" cx="5.767" cy="121.875" r=".756" gradientTransform="matrix(2.4694 0 0 -1.6051 90.166 250.683)" gradientUnits="userSpaceOnUse"><stop offset=".35" stop-color="#6d2b11"></stop><stop offset=".5" stop-color="#6b2c13" stop-opacity=".81"></stop><stop offset=".81" stop-color="#682e16" stop-opacity=".32"></stop><stop offset="1" stop-color="#652f19" stop-opacity="0"></stop></radialGradient><path d="M106.7 55.3l-1.1.2c-.5.1-.8.1-1.3.2-.2.7-.2 1.4-.2 2.2.7-.6 2.6-2.6 2.6-2.6z" fill="url(#happy-client-145-l-uid-4)"></path><path d="M102.9 71.4c-1.1-.1-2.3-.4-3.4-.8 1.2.5 2.2 1.4 2.7 2.5l.1.2c.6-.5 1.8-1.5 3.4-2.1-.8.2-1.8.3-2.8.2z" fill="#ce7e3c"></path><radialGradient id="happy-client-145-m-uid-4" cx=".792" cy="130.55" r=".756" gradientTransform="matrix(19.7009 0 0 -9.6534 84.567 1372.312)" gradientUnits="userSpaceOnUse"><stop offset=".68" stop-color="#fccd81"></stop><stop offset=".81" stop-color="#f6b96c"></stop><stop offset="1" stop-color="#eb9546"></stop></radialGradient><path d="M115.8 114.8c0-2.5-2-4.6-4.5-4.8-1.3-.1-2.6-.2-3.9-.2-6 0-11.8 1.7-16.9 4.8-1 .6-1.5 1.8-1.2 2.9.3 1.2 1.4 2 2.6 2H111c2.6.1 4.8-2.1 4.8-4.7z" fill="url(#happy-client-145-m-uid-4)"></path><radialGradient id="happy-client-145-n-uid-4" cx="1.246" cy="130.273" r=".756" gradientTransform="matrix(13.1762 -4.089 -2.0036 -6.4562 343.972 963)" gradientUnits="userSpaceOnUse"><stop offset=".68" stop-color="#eb9546"></stop><stop offset=".72" stop-color="#eb9546" stop-opacity=".91"></stop><stop offset=".8" stop-color="#eb9546" stop-opacity=".68"></stop><stop offset=".91" stop-color="#eb9546" stop-opacity=".32"></stop><stop offset="1" stop-color="#eb9546" stop-opacity="0"></stop></radialGradient><path d="M92.6 117.4c0-.8.4-1.5 1.1-2 .2-.2.5-.3.8-.5 3.4-2 7.3-3.2 11.2-3.5h.1l-.9-1.4c-5.1.4-10 2-14.3 4.7-1 .6-1.5 1.8-1.2 2.9.3 1.2 1.4 2 2.6 2h2.8c-1.3 0-2.2-1-2.2-2.2z" fill="url(#happy-client-145-n-uid-4)"></path><radialGradient id="happy-client-145-o-uid-4" cx="1.381" cy="130.481" r=".756" gradientTransform="matrix(11.0441 -3.5869 -1.6858 -5.1906 308.51 800.901)" gradientUnits="userSpaceOnUse"><stop offset=".68" stop-color="#eb9546"></stop><stop offset=".72" stop-color="#eb9546" stop-opacity=".91"></stop><stop offset=".8" stop-color="#eb9546" stop-opacity=".68"></stop><stop offset=".91" stop-color="#eb9546" stop-opacity=".32"></stop><stop offset="1" stop-color="#eb9546" stop-opacity="0"></stop></radialGradient><path d="M101 119.6c-.8 0-1.4-.6-1.4-1.4 0-.5.2-.9.7-1.2 2.6-1.7 5.7-2.5 8.8-2.5l-1-1.7c-4 0-7.9 1.2-11.2 3.4-.5.4-.8 1-.8 1.6 0 1.1.8 1.9 1.7 1.9h3.2z" fill="url(#happy-client-145-o-uid-4)"></path><radialGradient id="happy-client-145-p-uid-4" cx="1.202" cy="130.341" r=".756" gradientTransform="matrix(13.1264 -4.2632 -2.0037 -6.1693 347.123 927.23)" gradientUnits="userSpaceOnUse"><stop offset=".68" stop-color="#eb9546"></stop><stop offset=".72" stop-color="#eb9546" stop-opacity=".91"></stop><stop offset=".8" stop-color="#eb9546" stop-opacity=".68"></stop><stop offset=".91" stop-color="#eb9546" stop-opacity=".32"></stop><stop offset="1" stop-color="#eb9546" stop-opacity="0"></stop></radialGradient><path d="M97.8 119.6c-1 0-1.7-.8-1.7-1.9 0-.6.3-1.2.8-1.6 3.3-2.2 7.3-3.3 11.2-3.4l-2.4-1.4h-.1c-3.9.3-7.8 1.4-11.2 3.5-.3.2-.5.3-.8.5-.7.5-1.1 1.1-1.1 2 0 1.3 1 2.3 2.2 2.3h3.1z" fill="url(#happy-client-145-p-uid-4)"></path><radialGradient id="happy-client-145-q-uid-4" cx="1.336" cy="131.084" r=".756" gradientTransform="matrix(14.3845 12.6584 9.6906 -11.0121 -1233.135 1506.71)" gradientUnits="userSpaceOnUse"><stop offset=".73" stop-color="#fccd81"></stop><stop offset=".84" stop-color="#f6b96c"></stop><stop offset="1" stop-color="#eb9546"></stop></radialGradient><path d="M59.4 95.4l-2.6-2.9-3.9-1.1c-2-.5-3.8-1.5-5.2-2.9-2.1-2-3.5-4.7-3.9-7.6-.1-.1-.1-.2-.2-.2-1-1.7-1.6-3.6-1.7-5.4v-.5c-.1-.9.7-1.7 1.6-1.7h.4c.6.2 1.1.6 1.3 1.2.2-.1.4-.1.6 0 .6.2 1.1.6 1.2 1.2l.2.9c.2.9.6 1.7 1.3 2.3 1.3 1.1 2.8 1.9 4.5 2.2.5.1 1.1.2 1.7.2h1l-2.1-2.2c-.8-.8-.8-2.1.1-2.9.1-.1.2-.1.2-.2.8-.5 1.8-.5 2.6.2 4.1 3.7 7.5 8.1 10.1 12.9l.3.5" fill="url(#happy-client-145-q-uid-4)"></path><radialGradient id="happy-client-145-r-uid-4" cx="2.498" cy="135.702" r=".756" gradientTransform="matrix(3.2115 6.9582 4.1943 -1.9358 -527.745 321.176)" gradientUnits="userSpaceOnUse"><stop offset=".68" stop-color="#fccd81"></stop><stop offset=".81" stop-color="#f6b96c"></stop><stop offset="1" stop-color="#eb9546"></stop></radialGradient><path d="M50.1 81.1c.2-.3.5-.6.8-.8-.9-.4-1.8-.9-2.6-1.6-.7-.6-1.1-1.4-1.3-2.3l-.2-.9c-.2-.8-1-1.4-1.7-1.2v.2c0 .2.1.4.1.5.2.7.4 1.4.7 2h.1c.6 1.2 1.6 2.3 2.7 3.1l1.4 1z" fill="url(#happy-client-145-r-uid-4)"></path><radialGradient id="happy-client-145-s-uid-4" cx="2.116" cy="133.905" r=".756" gradientTransform="matrix(3.7174 8.2508 6.2531 -2.8173 -796.781 435.31)" gradientUnits="userSpaceOnUse"><stop offset=".68" stop-color="#fccd81"></stop><stop offset=".81" stop-color="#f6b96c"></stop><stop offset="1" stop-color="#eb9546"></stop></radialGradient><path d="M49.1 83.4c.2-.8.6-1.7 1.1-2.3l-1.4-1c-1.1-.8-2-1.8-2.7-3.1l-.1-.1c-.3-.6-.5-1.3-.7-2 0-.2-.1-.4-.1-.5v-.2c-.2-.9-1.1-1.4-2-1.1-.8.2-1.3.9-1.2 1.7v.5c.1 1.9.7 3.8 1.7 5.4.1.1.1.2.2.2 0-.2 0-.4-.1-.5l-.1-1.2c-.1-.9.6-1.7 1.4-1.7.8-.1 1.7.6 1.7 1.4v.1c.1 1.8.8 3.6 2.1 4.8l.2-.4z" fill="url(#happy-client-145-s-uid-4)"></path><radialGradient id="happy-client-145-t-uid-4" cx="1.643" cy="134.322" r=".756" gradientTransform="matrix(2.2418 7.7676 5.9034 -1.7038 -738.673 294.88)" gradientUnits="userSpaceOnUse"><stop offset=".68" stop-color="#eb9546" stop-opacity="0"></stop><stop offset=".72" stop-color="#eb9546" stop-opacity=".09"></stop><stop offset=".8" stop-color="#eb9546" stop-opacity=".32"></stop><stop offset=".91" stop-color="#eb9546" stop-opacity=".68"></stop><stop offset="1" stop-color="#eb9546"></stop></radialGradient><path d="M56.2 75.9c-.7-.6-1.7-.7-2.6-.2-.9.7-1.1 1.9-.5 2.8.1.1.1.2.2.2l2.1 2.2 1.1 1.2 3.6-2.2c-1.2-1.3-2.5-2.7-3.9-4z" fill="url(#happy-client-145-t-uid-4)"></path><radialGradient id="happy-client-145-u-uid-4" cx="2.559" cy="134.049" r=".756" gradientTransform="matrix(4.7547 7.2714 4.944 -3.2328 -626.207 493.178)" gradientUnits="userSpaceOnUse"><stop offset=".68" stop-color="#fccd81"></stop><stop offset=".81" stop-color="#f6b96c"></stop><stop offset="1" stop-color="#eb9546"></stop></radialGradient><path d="M46.1 77.8c-.8-.5-1.7-.3-2.3.4-.2.3-.3.7-.3 1l.1 1.2c0 .2 0 .4.1.5-.1-.1-.1-.2-.2-.2-.5-1.1-.7-2.3-.8-3.5l-.1-1c-.1-.8.6-1.6 1.4-1.7h.4c.7.2 1.2.7 1.3 1.4l.2 1.4c.1.2.2.4.2.5zm2.8 6.1l.2-.5c.1-.4.2-.8.4-1.1l-.7-.5c-.8-.5-1.4-1.2-1.9-2 .2 1.6 1 3 2 4.1z" fill="url(#happy-client-145-u-uid-4)"></path><radialGradient id="happy-client-145-v-uid-4" cx="4.858" cy="129.699" r=".756" gradientTransform="matrix(6.0781 0 0 -6.0781 27.416 878.193)" gradientUnits="userSpaceOnUse"><stop offset=".68" stop-color="#ce7e3c"></stop><stop offset=".72" stop-color="#ce7e3c" stop-opacity=".9"></stop><stop offset=".81" stop-color="#ce7e3c" stop-opacity=".64"></stop><stop offset=".94" stop-color="#ce7e3c" stop-opacity=".22"></stop><stop offset="1" stop-color="#ce7e3c" stop-opacity="0"></stop></radialGradient><path d="M56.7 92.4l3.3.8 1.1 1.3-1.8.8-2.6-2.9z" fill="url(#happy-client-145-v-uid-4)"></path><radialGradient id="happy-client-145-w-uid-4" cx="10.135" cy="129.158" r=".756" gradientTransform="matrix(2.9323 .2932 .2227 -2.2268 -1.541 365.142)" gradientUnits="userSpaceOnUse"><stop offset=".68" stop-color="#eb9546"></stop><stop offset=".72" stop-color="#eb9546" stop-opacity=".91"></stop><stop offset=".8" stop-color="#eb9546" stop-opacity=".68"></stop><stop offset=".91" stop-color="#eb9546" stop-opacity=".32"></stop><stop offset="1" stop-color="#eb9546" stop-opacity="0"></stop></radialGradient><path d="M55.5 81h-1c-.5 0-.9-.1-1.4-.2l1.4 2 2.2-.6-1.2-1.2z" fill="url(#happy-client-145-w-uid-4)"></path><linearGradient id="happy-client-145-x-uid-4" gradientUnits="userSpaceOnUse" x1="95.206" y1="8.393" x2="95.206" y2="12.226" gradientTransform="matrix(1 0 0 -1 0 130)"><stop offset="0" stop-color="#9aaa97"></stop><stop offset=".93" stop-color="#e4ebe4"></stop></linearGradient><path d="M80.8 119.6h28.9c0 1.1-.9 2-2 2H80.8v-2z" fill="url(#happy-client-145-x-uid-4)"></path><linearGradient id="happy-client-145-y-uid-4" gradientUnits="userSpaceOnUse" x1="74.368" y1="8.393" x2="74.368" y2="33.231" gradientTransform="matrix(1 0 0 -1 0 130)"><stop offset="0" stop-color="#9aaa97"></stop><stop offset=".93" stop-color="#e4ebe4"></stop></linearGradient><path d="M91 121.6H62c-.5 0-.8-.3-.8-.7l-4.3-23.1c-.1-.5.2-.9.7-1h29.2c.5 0 .8.3.8.7l4.3 23.1c.1.5-.2.9-.7 1H91z" fill="url(#happy-client-145-y-uid-4)"></path><path d="M92.9 120.5l-4.3-23.1c-.1-.4-.5-.7-.8-.7h-1c.5 0 .8.3.8.7l4.3 23.1c.1.5-.2.9-.7 1H91h1c.5 0 .8-.4.8-.8.1 0 .1-.1.1-.2z" fill="#9aaa97"></path><path d="M71.1 66c-2.2.2-3.8 2-4 4.2l-.2 4.1-.2-4.1c-.1-2.2-1.8-4-4-4.2 2.2-.2 3.8-2 4-4.1l.2-3.6.2 3.6c.1 2.1 1.8 3.8 4 4.1zM81 47.1c-1.6.2-2.8 1.5-2.9 3.1l-.1 3-.2-3c-.1-1.6-1.3-2.9-2.9-3.1 1.6-.2 2.8-1.4 2.9-3l.1-2.7.1 2.7c.2 1.5 1.4 2.8 3 3z" fill="#debe1a"></path></svg>