<svg fill="none" xmlns="http://www.w3.org/2000/svg" viewBox="0 0 145 130" aria-hidden="true" role="img"><g clip-path="url(#clip0_11368_50382)"><path d="M48.413 128.172h48.131c.457 0 .914.381.914.914 0 .457-.38.914-.914.914H48.413c-.457 0-.914-.381-.914-.914 0-.457.457-.914.914-.914z" fill="url(#paint0_linear_11368_50382-uid-16-uid-52-uid-94)"></path><path d="M79.105 0L60.599 42.496h23.76L102.867 0H79.105z" fill="url(#paint1_linear_11368_50382-uid-16-uid-52-uid-94)"></path><path d="M85.426 0L66.92 42.496h11.119L96.545 0H85.426z" fill="#91E6B2"></path><path d="M77.277 18.736L66.92 42.497h11.119l3.732-8.605-4.494-15.156z" fill="#80C498"></path><path d="M66.92 42.496h-6.321l14.089-32.29 2.589 8.529-10.357 23.76zm11.119 0h6.32L81.77 33.89l-3.731 8.606z" fill="#126B00"></path><path d="M74.003 123.527c19.306 0 34.956-16.571 34.956-37.013 0-20.441-15.65-37.012-34.956-37.012-19.306 0-34.956 16.571-34.956 37.012 0 20.442 15.65 37.013 34.956 37.013z" fill="url(#paint2_linear_11368_50382-uid-16-uid-52-uid-94)"></path><path d="M74.002 49.426h-3.046C51.612 49.426 36 66.028 36 86.438s15.688 37.013 34.956 37.013h3.046c19.344 0 34.957-16.603 34.957-37.013 0-20.41-15.613-37.012-34.957-37.012z" fill="url(#paint3_linear_11368_50382-uid-16-uid-52-uid-94)"></path><path d="M74.003 123.527c19.306 0 34.956-16.571 34.956-37.013 0-20.441-15.65-37.012-34.956-37.012-19.306 0-34.956 16.571-34.956 37.012 0 20.442 15.65 37.013 34.956 37.013z" fill="url(#paint4_linear_11368_50382-uid-16-uid-52-uid-94)"></path><path d="M74.002 119.261c17.076 0 30.92-14.662 30.92-32.748s-13.844-32.747-30.92-32.747c-17.077 0-30.92 14.661-30.92 32.747s13.843 32.748 30.92 32.748z" fill="url(#paint5_linear_11368_50382-uid-16-uid-52-uid-94)"></path><path d="M82.227 89.332l.38 1.219 11.195-8.682-.533-1.066-11.042 8.53zm-17.515 0l-12.49-9.672 1.218 2.209 10.967 8.453.305-.99zm20.257 15.535l-11.5-8.834-11.5 8.834h-1.98L61.132 107l12.49-9.596L86.111 107l-.686-2.133h-.457z" fill="#DA7928"></path><path d="M75.22 55.9c11.12 0 20.791 6.169 26.275 15.46-5.18-10.51-15.537-17.669-27.493-17.669-17.06 0-30.92 14.699-30.92 32.748 0 6.321 1.675 12.261 4.646 17.288a34.393 34.393 0 01-3.504-15.156c0-17.973 13.861-32.671 30.996-32.671z" fill="#DA7928"></path><path d="M74.003 53.691h-.99c16.602.533 29.929 15.003 29.929 32.748 0 17.745-13.327 32.214-29.93 32.748h.99c17.06 0 30.921-14.699 30.921-32.748 0-18.05-13.785-32.748-30.92-32.748z" fill="url(#paint6_linear_11368_50382-uid-16-uid-52-uid-94)"></path><path d="M86.95 104.867h-2.057l-11.5-8.834.99-.762 12.566 9.596zM74.46 64.123h-1.98l-4.798 15.536h2.056l4.722-15.536zM54.278 79.659h-2.056l12.49 9.596-4.722 15.612h2.056l4.798-15.536-12.566-9.672z" fill="url(#paint7_linear_11368_50382-uid-16-uid-52-uid-94)"></path><path d="M74.459 64.123l4.798 15.536H94.64l-12.414 9.672 4.722 15.536-12.49-9.596-12.49 9.596 4.798-15.536-12.49-9.672H69.66l4.798-15.536z" fill="url(#paint8_linear_11368_50382-uid-16-uid-52-uid-94)"></path><path d="M85.502 44.019v7.463c.914.38 1.904.762 2.742 1.142V44.02c0-2.514-1.904-4.57-4.189-4.57H60.98c-2.284 0-4.188 2.056-4.188 4.57v8.225c0 .837.61.913 1.37.913.762 0 1.372-.076 1.372-.913V44.02c0-.838.609-1.523 1.447-1.523h23.075c.838-.077 1.447.609 1.447 1.523z" fill="url(#paint9_linear_11368_50382-uid-16-uid-52-uid-94)"></path><path d="M65.854 0H42.093l18.506 42.496H84.36L65.854 0z" fill="url(#paint10_linear_11368_50382-uid-16-uid-52-uid-94)"></path><path d="M59.532 0H48.413L66.92 42.496h11.12L59.531 0z" fill="#91E6B2"></path><path d="M50.393 54.072c-3.199.305-5.712 2.97-5.864 6.245l-.305 6.169-.304-6.17c-.153-3.274-2.666-5.863-5.94-6.244 3.198-.305 5.711-2.97 5.94-6.169l.228-5.407.305 5.407c.228 3.275 2.741 5.864 5.94 6.169z" fill="#E4EBE4"></path></g><defs><linearGradient id="paint0_linear_11368_50382-uid-16-uid-52-uid-94" x1="47.499" y1="129.086" x2="97.393" y2="129.086" gradientUnits="userSpaceOnUse"><stop stop-color="#C3D2C3" stop-opacity="0"></stop><stop offset=".01" stop-color="#C3D2C3" stop-opacity=".05"></stop><stop offset=".06" stop-color="#C3D2C3" stop-opacity=".3"></stop><stop offset=".12" stop-color="#C3D2C3" stop-opacity=".51"></stop><stop offset=".18" stop-color="#C3D2C3" stop-opacity=".69"></stop><stop offset=".23" stop-color="#C3D2C3" stop-opacity=".83"></stop><stop offset=".28" stop-color="#C3D2C3" stop-opacity=".92"></stop><stop offset=".34" stop-color="#C3D2C3" stop-opacity=".98"></stop><stop offset=".39" stop-color="#C3D2C3"></stop><stop offset=".44" stop-color="#C3D2C3"></stop><stop offset=".72" stop-color="#C3D2C3"></stop><stop offset=".78" stop-color="#C3D2C3" stop-opacity=".78"></stop><stop offset=".93" stop-color="#C3D2C3" stop-opacity=".23"></stop><stop offset="1" stop-color="#C3D2C3" stop-opacity=".01"></stop></linearGradient><linearGradient id="paint1_linear_11368_50382-uid-16-uid-52-uid-94" x1="81.732" y1="42.496" x2="81.732" y2="0" gradientUnits="userSpaceOnUse"><stop stop-color="#126B00"></stop><stop offset=".71" stop-color="#14A800"></stop></linearGradient><linearGradient id="paint2_linear_11368_50382-uid-16-uid-52-uid-94" x1="48.56" y1="111.965" x2="99.512" y2="61.014" gradientUnits="userSpaceOnUse"><stop stop-color="#F88F2E"></stop><stop offset=".399" stop-color="#FFCA74"></stop><stop offset=".743" stop-color="#FB993B"></stop><stop offset=".745" stop-color="#FB9A3C"></stop><stop offset=".802" stop-color="#FDAF55"></stop><stop offset=".861" stop-color="#FEBE66"></stop><stop offset=".925" stop-color="#FFC771"></stop><stop offset="1" stop-color="#FFCA74"></stop></linearGradient><linearGradient id="paint3_linear_11368_50382-uid-16-uid-52-uid-94" x1="72.512" y1="123.527" x2="72.512" y2="49.452" gradientUnits="userSpaceOnUse"><stop stop-color="#FB993B"></stop><stop offset=".306" stop-color="#FB9C3E"></stop><stop offset=".547" stop-color="#FCA448"></stop><stop offset=".766" stop-color="#FDB359"></stop><stop offset=".971" stop-color="#FFC770"></stop><stop offset="1" stop-color="#FFCA74"></stop></linearGradient><linearGradient id="paint4_linear_11368_50382-uid-16-uid-52-uid-94" x1="48.56" y1="111.965" x2="99.512" y2="61.014" gradientUnits="userSpaceOnUse"><stop stop-color="#F88F2E"></stop><stop offset=".399" stop-color="#FFCA74"></stop><stop offset=".743" stop-color="#FB993B"></stop><stop offset=".745" stop-color="#FB9A3C"></stop><stop offset=".802" stop-color="#FDAF55"></stop><stop offset=".861" stop-color="#FEBE66"></stop><stop offset=".925" stop-color="#FFC771"></stop><stop offset="1" stop-color="#FFCA74"></stop></linearGradient><linearGradient id="paint5_linear_11368_50382-uid-16-uid-52-uid-94" x1="51.498" y1="109.025" x2="96.571" y2="63.952" gradientUnits="userSpaceOnUse"><stop offset=".206" stop-color="#FFCA74"></stop><stop offset=".52" stop-color="#FB993B"></stop><stop offset=".523" stop-color="#FB9A3C"></stop><stop offset=".586" stop-color="#FDAF55"></stop><stop offset=".652" stop-color="#FEBE66"></stop><stop offset=".723" stop-color="#FFC771"></stop><stop offset=".807" stop-color="#FFCA74"></stop></linearGradient><linearGradient id="paint6_linear_11368_50382-uid-16-uid-52-uid-94" x1="89.007" y1="119.254" x2="89.007" y2="53.726" gradientUnits="userSpaceOnUse"><stop stop-color="#FFCA74"></stop><stop offset=".5" stop-color="#FDB35A"></stop><stop offset="1" stop-color="#FB993B"></stop></linearGradient><linearGradient id="paint7_linear_11368_50382-uid-16-uid-52-uid-94" x1="69.599" y1="104.842" x2="69.599" y2="64.157" gradientUnits="userSpaceOnUse"><stop stop-color="#FB993B"></stop><stop offset=".181" stop-color="#FB9C3E"></stop><stop offset=".323" stop-color="#FCA448"></stop><stop offset=".453" stop-color="#FDB359"></stop><stop offset=".574" stop-color="#FFC770"></stop><stop offset=".591" stop-color="#FFCA74"></stop><stop offset="1" stop-color="#FB993B"></stop></linearGradient><linearGradient id="paint8_linear_11368_50382-uid-16-uid-52-uid-94" x1="60.007" y1="102.869" x2="88.93" y2="73.946" gradientUnits="userSpaceOnUse"><stop offset=".074" stop-color="#F88F2E"></stop><stop offset=".42" stop-color="#FFCA74"></stop><stop offset=".423" stop-color="#FFC973"></stop><stop offset=".478" stop-color="#FDB45A"></stop><stop offset=".537" stop-color="#FCA549"></stop><stop offset=".6" stop-color="#FB9C3E"></stop><stop offset=".674" stop-color="#FB993B"></stop></linearGradient><linearGradient id="paint9_linear_11368_50382-uid-16-uid-52-uid-94" x1="72.512" y1="53.087" x2="72.512" y2="39.449" gradientUnits="userSpaceOnUse"><stop stop-color="#F88F2E"></stop><stop offset=".087" stop-color="#F99B3C"></stop><stop offset=".271" stop-color="#FCB055"></stop><stop offset=".464" stop-color="#FEBE66"></stop><stop offset=".671" stop-color="#FFC771"></stop><stop offset=".917" stop-color="#FFCA74"></stop></linearGradient><linearGradient id="paint10_linear_11368_50382-uid-16-uid-52-uid-94" x1="51.289" y1="33.185" x2="75.14" y2="9.335" gradientUnits="userSpaceOnUse"><stop offset=".29" stop-color="#126B00"></stop><stop offset="1" stop-color="#14A800"></stop></linearGradient><clipPath id="clip0_11368_50382-uid-16-uid-52-uid-94"><rect width="145" height="130" fill="#fff"></rect></clipPath></defs></svg>