<svg fill="none" xmlns="http://www.w3.org/2000/svg" viewBox="0 0 145 130" aria-hidden="true" role="img"><g clip-path="url(#clip0_11448_57172)"><path d="M53.227 120.078h90.817c.546 0 .956.41.956.956s-.41.956-.956.956H53.227a.934.934 0 01-.955-.956c0-.546.41-.956.956-.956z" fill="url(#paint0_linear_11448_57172-uid-12-uid-48-uid-90)"></path><path d="M115.365 122.125c14.749 0 27.04-11.881 27.313-26.63v-.683c0-14.203-4.916-25.81-10.242-34.278-5.599-8.74-8.467-18.846-8.467-29.089H50.906a54.365 54.365 0 01-8.467 29.089c-5.463 8.467-10.38 20.075-10.38 34.278v.683c.274 14.749 12.428 26.63 27.314 26.63h55.992z" fill="url(#paint1_radial_11448_57172-uid-12-uid-48-uid-90)"></path><path d="M90.51 115.979a80.041 80.041 0 01-4.097-6.145h2.868c-1.23-2.049-2.458-4.097-3.55-6.282h-3.142a134.855 134.855 0 01-3.14-6.282H64.152c8.194 0 9.97-9.833 7.784-21.987-2.322-12.428-7.92-21.715-16.388-21.305H53.09c-8.33-.683-16.661 8.74-14.34 21.305C40.937 87.437 52.271 97.27 60.33 97.27H33.016c.956 2.185 2.048 4.233 3.14 6.282h3.005a146.686 146.686 0 003.55 6.282h-2.867a80.04 80.04 0 004.097 6.145h4.233c1.503 2.049 3.005 4.097 4.644 6.009h46.569c-1.639-2.048-3.141-3.96-4.643-6.009H90.51zm39.195-60.089c-3.688-7.238-5.599-15.159-5.873-23.216l-73.063.41c-.136 3.14-.41 6.418-1.092 9.423 30.727 9.013 69.376-1.64 80.028 13.383z" fill="#51200F"></path><path d="M44.077 36.36c0 1.093.82 3.005 6.01 4.644 2.184.683 8.603 2.048 20.62 2.048 2.459 0 4.78 0 7.102-.136 2.868-.137 5.872-.273 8.877-.273 3.004 0 6.009.136 8.877.273 2.321.136 4.78.136 7.101.136 12.155 0 18.437-1.502 20.622-2.048 5.189-1.502 6.009-3.55 6.009-4.643v-9.697c0-1.092-.82-3.004-6.009-4.643-2.185-.683-8.604-2.048-20.622-2.048-2.458 0-4.78 0-7.101.136-2.868.137-5.873.273-8.877.273-3.005 0-6.009-.136-8.877-.273-2.322-.136-4.78-.136-7.101-.136-12.155 0-18.437 1.502-20.622 2.048-5.19 1.502-6.009 3.55-6.009 4.643v9.697z" fill="url(#paint2_radial_11448_57172-uid-12-uid-48-uid-90)"></path><path d="M96.52 29.531c8.876.546 18.572-.136 23.216-1.366 3.141-.956 3.141-2.048 0-3.004-4.507-1.366-14.34-1.912-23.217-1.366-6.418.41-12.974.41-19.392 0-8.877-.546-18.573.137-23.216 1.366-3.142.956-3.142 2.048 0 3.004 4.506 1.366 14.339 1.912 23.216 1.366a153.02 153.02 0 0119.392 0z" fill="url(#paint3_radial_11448_57172-uid-12-uid-48-uid-90)"></path><path d="M85.047 7.137c-9.15 0-16.388 7.374-16.388 16.388 0 2.048.41 4.233 1.23 6.145 2.458 0 4.916 0 7.374-.136a153.02 153.02 0 0119.392 0c1.23 0 2.459.136 3.688.136 3.414-8.467-.683-18.027-9.15-21.44-2.049-.684-4.097-1.093-6.146-1.093z" fill="url(#paint4_linear_11448_57172-uid-12-uid-48-uid-90)"></path><path d="M102.665 29.67c3.414-8.467-.683-18.027-9.15-21.44C91.603 7.41 89.418 7 87.369 7h-2.458c9.15 0 16.388 7.375 16.388 16.525 0 2.048-.41 4.097-1.229 6.145h2.595z" fill="url(#paint5_linear_11448_57172-uid-12-uid-48-uid-90)"></path><path d="M85.047 9.184c-7.92 0-14.339 6.418-14.339 14.34 0 2.184.41 4.233 1.366 6.145 1.639 0 3.414-.137 5.053-.137a153.14 153.14 0 0119.392 0c.546 0 1.093 0 1.639.137 3.277-7.239.136-15.842-6.965-19.12-1.912-.956-3.96-1.365-6.145-1.365z" fill="url(#paint6_linear_11448_57172-uid-12-uid-48-uid-90)"></path><path d="M72.074 25.027c0-7.92 6.419-14.34 14.34-14.34 3.414 0 6.828 1.23 9.422 3.552-5.189-6.01-14.339-6.692-20.348-1.503-4.916 4.234-6.282 11.199-3.55 16.934h.819c-.41-1.502-.683-3.14-.683-4.643z" fill="#CE7E3C"></path><path d="M83.408 27.073l-.683-.682-.41.683h-2.32c0 .682 0 1.502.272 2.184 1.23 0 2.459-.136 3.688-.136-.274-.273-.41-.956-.547-2.049z" fill="#EB9546"></path><path d="M92.559 29.26c.136-.546.273-1.23.273-1.775 0-1.64-.547-2.868-1.64-3.824-.682-.547-2.048-1.093-4.096-1.776v-4.78c.82 0 1.366.41 1.775.956.137.274.137.41.273.683l-.682.137.819.82h3.278c0-2.05-.82-3.551-2.185-4.37-.82-.547-1.912-.957-3.278-.957V12.6l-.683-.683-.41.546h-.273v1.64c-.683 0-1.365.136-1.912.272-1.365.41-2.594 1.502-3.14 2.868a5.66 5.66 0 00-.41 2.185c0 1.23.273 2.185.956 3.005.682.819 1.775 1.502 3.414 2.048l1.092.273v4.234h1.23v-3.824c.682.273 1.228.546 1.502.82.546.41.682.955.682 1.775 0 .41-.136.956-.273 1.365 1.366.137 2.459.137 3.688.137zm-6.692-7.784c-.547-.137-.956-.41-1.366-.683a2.137 2.137 0 01-.82-1.639c0-.683.137-1.23.547-1.502.41-.41.956-.547 1.639-.547v4.37z" fill="#CE7E3C"></path><path d="M70.571 23.523c0 2.185.41 4.234 1.366 6.146h1.502c-3.414-7.239-.273-15.842 6.965-19.12 1.639-.82 3.55-1.229 5.326-1.365h-.82c-7.92 0-14.339 6.418-14.339 14.34z" fill="url(#paint7_linear_11448_57172-uid-12-uid-48-uid-90)"></path><path d="M90.51 23.113c-.684-.547-2.05-1.093-4.098-1.776v-4.78c.82 0 1.366.41 1.776.956.136.41.273.956.41 1.64h3.277c0-2.05-.82-3.551-2.185-4.37-.82-.547-1.912-.957-3.278-.957v-1.775h-1.229v1.639c-.683 0-1.366.136-1.912.273-1.365.41-2.595 1.502-3.14 2.868a5.662 5.662 0 00-.41 2.185c0 1.229.273 2.185.955 3.004.683.82 1.776 1.502 3.415 2.049l1.092.273v4.916h1.23v-4.506c.682.273 1.228.546 1.501.819.547.41.683.956.683 1.775 0 .956-.273 1.639-.82 2.049h3.825c.273-.82.41-1.64.41-2.459.136-1.638-.41-2.867-1.503-3.823zm-5.327-2.185c-.546-.137-.956-.41-1.366-.683-.546-.41-.819-1.093-.819-1.639 0-.683.137-1.23.546-1.502.41-.41.956-.546 1.64-.546v4.37zm-1.366 8.33c-1.365 0-2.73 0-4.097.137-.273-.956-.546-1.912-.41-2.868h3.415c.137 1.092.273 1.775.546 2.185.137.137.273.41.546.546z" fill="url(#paint8_linear_11448_57172-uid-12-uid-48-uid-90)"></path><path d="M89.553 23.113c-.682-.547-2.048-1.093-4.097-1.776v-4.78c.82 0 1.366.41 1.776.956.136.41.273.956.41 1.64h3.277c0-2.05-.82-3.551-2.185-4.37-.82-.547-1.912-.957-3.278-.957v-1.775h-1.229v1.639c-.683 0-1.365.136-1.912.273-.819.273-1.502.683-2.048 1.229-.41.41-.82 1.092-1.093 1.639a5.662 5.662 0 00-.41 2.185c0 1.229.274 2.185.957 3.004.682.82 1.775 1.502 3.414 2.049l1.092.273v4.916h1.23v-4.506c.682.273 1.229.546 1.502.819.546.41.682.956.682 1.775 0 .956-.273 1.639-.682 2.049h3.823c.274-.82.41-1.64.41-2.459 0-1.638-.546-2.867-1.639-3.823zm-5.326-2.185c-.546-.137-.956-.41-1.365-.683-.547-.41-.82-1.093-.82-1.639 0-.683.137-1.23.546-1.502.41-.41.956-.546 1.64-.546v4.37zm-1.365 8.33c-1.366 0-2.732.137-4.097.137-.41-.956-.547-1.912-.41-2.868h3.414c.137 1.092.273 1.775.546 2.185l.547.546z" fill="url(#paint9_linear_11448_57172-uid-12-uid-48-uid-90)"></path><path d="M51.316 96.999c8.145 0 14.749-9.66 14.749-21.578 0-11.917-6.604-21.577-14.75-21.577-8.145 0-14.749 9.66-14.749 21.577C36.566 87.338 43.17 97 51.316 97z" fill="url(#paint10_linear_11448_57172-uid-12-uid-48-uid-90)"></path><path d="M51.315 96.999c-8.057 0-14.75-9.696-14.75-21.578 0-11.88 6.693-21.44 14.75-21.44h-3.96c-8.058 0-14.75 9.696-14.75 21.577 0 11.881 6.556 21.577 14.75 21.577h3.96V97z" fill="url(#paint11_linear_11448_57172-uid-12-uid-48-uid-90)"></path><path d="M51.18 94.267c7.089 0 12.836-8.438 12.836-18.847 0-10.408-5.747-18.846-12.837-18.846S38.342 65.012 38.342 75.42c0 10.409 5.747 18.847 12.837 18.847z" fill="url(#paint12_linear_11448_57172-uid-12-uid-48-uid-90)"></path><path d="M56.368 76.377c-.683-.683-1.776-1.503-3.55-2.459v-6.282c.682.137 1.228.547 1.501 1.366.137.273.137.41.137.683h-1.23l1.503 1.502h3.005c0-2.595-.683-4.643-1.913-5.736a4.74 4.74 0 00-2.867-1.365v-2.322l-1.503-1.502v1.912l.41-.137v1.912c-.82.137-1.366.273-1.775.41-.683.273-1.23.82-1.776 1.639-.41.682-.819 1.365-.956 2.185a10.39 10.39 0 00-.41 2.867c0 1.503.274 2.868.82 3.96.546 1.093 1.639 1.913 3.005 2.596l.956.41v7.1c-.82-.272-1.503-.682-1.776-1.501-.136-.41-.273-1.366-.41-2.868l-1.502-1.502-1.229 1.229.137.273h-.547c0 3.14.547 5.19 1.912 6.555.683.683 1.776 1.229 3.278 1.366v1.911h-1.502l1.502 1.503h1.093v-3.278c1.092-.136 2.185-.546 3.004-1.365 1.366-1.23 2.048-3.278 2.048-6.146.137-2.049-.41-3.687-1.365-4.916zm-6.01-3.688c-.409-.546-.682-1.229-.682-2.185 0-.82.137-1.502.41-2.048.273-.547.82-.82 1.502-.82v5.873c-.41-.137-.82-.41-1.23-.82zm3.688 11.745c-.273.273-.683.546-1.229.546v-6.418c.683.41 1.093.683 1.366.956.41.546.683 1.365.683 2.321-.137 1.23-.41 2.185-.82 2.595z" fill="#CE7E3C"></path><path d="M40.937 78.152c0-10.38 5.735-18.846 12.837-18.846 2.048 0 4.097.683 5.872 2.048-2.322-2.868-5.19-4.643-8.467-4.643-7.101 0-12.837 8.467-12.837 18.846 0 7.375 2.868 13.657 6.965 16.798-2.595-3.55-4.37-8.604-4.37-14.203z" fill="#CE7E3C"></path><path d="M62.787 75.42c0-10.106-5.462-18.3-12.154-18.846h.683c7.101 0 12.837 8.467 12.837 18.846 0 10.38-5.736 18.847-12.837 18.847h-.683c6.828-.41 12.154-8.74 12.154-18.847z" fill="url(#paint13_linear_11448_57172-uid-12-uid-48-uid-90)"></path><path d="M51.314 90.716h-1.092V87.44c-1.503-.273-2.595-.683-3.278-1.366-1.229-1.229-1.912-3.414-1.912-6.555h3.005c.136 1.366.273 2.322.41 2.868.272.683.819 1.229 1.775 1.502v-7.101l-.956-.41c-1.502-.683-2.458-1.502-3.005-2.595a8.92 8.92 0 01-.956-3.96c0-.956.137-1.912.41-2.868.137-.82.546-1.502.956-2.185.546-.82 1.093-1.366 1.775-1.64.41-.136.956-.272 1.776-.409v-2.185h1.092v2.185c1.23.137 2.185.547 2.868 1.366 1.23 1.229 1.912 3.14 1.912 5.736H53.09c0-.956-.137-1.776-.274-2.185-.273-.82-.819-1.23-1.502-1.366v6.282c1.776.956 3.005 1.775 3.551 2.458.956 1.23 1.502 2.868 1.502 4.917 0 2.73-.683 4.78-2.048 6.145-.82.82-1.912 1.23-3.005 1.366v3.277zm-1.229-24.445c-.683 0-1.092.273-1.502.82-.273.546-.41 1.228-.41 2.048 0 .956.273 1.639.683 2.185.41.41.82.683 1.23.82V66.27zm1.23 17.344c.546-.137.955-.273 1.228-.546.41-.547.683-1.366.683-2.595 0-.956-.273-1.776-.683-2.322-.273-.273-.682-.683-1.365-.956l.136 6.419z" fill="url(#paint14_linear_11448_57172-uid-12-uid-48-uid-90)"></path><path d="M52.134 90.716H51.04V87.44c-1.502-.273-2.595-.683-3.277-1.366-1.23-1.229-1.912-3.414-1.912-6.555h3.004c.137 1.366.273 2.322.41 2.868.273.683.82 1.229 1.775 1.502v-7.101l-.956-.41c-1.502-.683-2.458-1.502-3.004-2.595a8.918 8.918 0 01-.956-3.96c0-.956.136-1.912.41-2.868.136-.82.546-1.502.955-2.185.547-.82 1.093-1.366 1.776-1.64.41-.136.956-.272 1.775-.409v-2.185h1.093v2.185c1.229.137 2.185.547 2.867 1.366 1.23 1.229 1.913 3.14 1.913 5.736h-3.005c0-.956-.137-1.776-.273-2.185-.273-.82-.82-1.23-1.502-1.366v6.282c1.775.956 3.004 1.775 3.55 2.458.956 1.23 1.503 2.868 1.503 4.917 0 2.73-.683 4.78-2.049 6.145-.82.82-1.912 1.23-3.004 1.366v3.277zM51.04 66.271c-.683 0-1.092.273-1.502.82-.273.546-.41 1.228-.41 2.048 0 .956.273 1.639.683 2.185.41.41.82.683 1.23.82V66.27zm1.093 17.344c.546-.137.956-.273 1.229-.546.41-.547.683-1.366.683-2.595 0-.956-.274-1.776-.683-2.322-.273-.273-.683-.683-1.366-.956l.137 6.419z" fill="url(#paint15_linear_11448_57172-uid-12-uid-48-uid-90)"></path><path d="M71.117 115.846h-46.57v6.282h46.57v-6.282z" fill="url(#paint16_linear_11448_57172-uid-12-uid-48-uid-90)"></path><path d="M71.117 120.896h-46.57v1.093h46.57v-1.093z" fill="#CE7E3C"></path><path d="M66.883 109.561h-46.57v6.282h46.57v-6.282z" fill="url(#paint17_linear_11448_57172-uid-12-uid-48-uid-90)"></path><path d="M66.883 114.752h-46.57v1.092h46.57v-1.092z" fill="#CE7E3C"></path><path d="M69.752 103.279h-46.57v6.282h46.57v-6.282z" fill="url(#paint18_linear_11448_57172-uid-12-uid-48-uid-90)"></path><path d="M69.752 108.471h-46.57v1.092h46.57v-1.092z" fill="#CE7E3C"></path><path d="M66.747 96.998h-46.57v6.282h46.57v-6.282z" fill="url(#paint19_linear_11448_57172-uid-12-uid-48-uid-90)"></path><path d="M66.747 102.188h-46.57v1.092h46.57v-1.092z" fill="#CE7E3C"></path><path d="M45.717 101.232c0-1.366-.137-2.868-.41-4.234H20.179v6.282h3.004v6.282h-2.868v6.282h4.234v6.282h8.604c7.647-4.097 12.564-12.154 12.564-20.894z" fill="#CE7E3C"></path><path d="M28.782 79.11h-3.14c-11.882 0-23.217 9.559-25.266 21.44-2.048 11.882 5.873 21.441 17.754 21.441h3.14c11.882 0 23.217-9.559 25.266-21.441 2.048-11.881-5.873-21.44-17.754-21.44z" fill="url(#paint20_linear_11448_57172-uid-12-uid-48-uid-90)"></path><path d="M8.57 86.074c9.56-8.74 23.216-9.286 30.59-1.365 7.376 7.92 5.6 21.577-3.96 30.317-9.56 8.741-23.216 9.287-30.59 1.366-7.512-7.921-5.6-21.577 3.96-30.318z" fill="url(#paint21_linear_11448_57172-uid-12-uid-48-uid-90)"></path><path d="M10.345 87.849c8.33-7.648 20.348-8.194 26.767-1.23 6.419 6.966 4.916 18.984-3.55 26.631-8.331 7.648-20.35 8.194-26.768 1.229-6.418-6.965-4.916-18.982 3.55-26.63z" fill="url(#paint22_linear_11448_57172-uid-12-uid-48-uid-90)"></path><path d="M27.28 94.677l.683.683h4.37c.41-2.595-.273-4.643-1.912-5.736-.956-.683-2.185-1.229-3.96-1.365l.41-2.186-.547-.682-.41.546h-.682l-.41 2.185c-1.093.136-2.049.273-2.595.41a6.078 6.078 0 00-2.868 1.639c-.683.682-1.365 1.365-1.775 2.184-.546.82-.82 1.776-.956 2.868-.273 1.503-.137 2.868.546 3.96.683 1.093 2.049 1.913 3.96 2.596l1.23.409-1.23 7.102c-1.229-.273-2.048-.683-2.321-1.502-.137-.41-.273-1.366-.137-2.868l-.546-.41-.41.546h-3.55c-.547 3.005 0 5.19 1.639 6.555.956.683 2.458 1.229 4.643 1.366l-.41 2.731h-.683l.546.547h1.64l.546-3.278c1.638-.137 3.277-.546 4.643-1.366 2.321-1.229 3.687-3.277 4.097-6.009.41-2.048-.137-3.687-1.366-4.916-.82-.683-2.458-1.502-4.916-2.458l1.092-6.282c1.093.136 1.776.546 2.049 1.229.136.41.136.82.136 1.502h-.546zm-5.736 2.185c-.546-.546-.82-1.229-.683-2.185.137-.82.547-1.502 1.093-2.048.546-.547 1.366-.683 2.322-.82l-1.093 5.873c-.82-.273-1.366-.547-1.639-.82zm4.097 6.829c.547.546.683 1.365.547 2.321-.274 1.229-.683 2.185-1.503 2.595-.41.273-1.092.546-2.048.546l1.092-6.418c.956.273 1.64.682 1.912.956z" fill="#CE7E3C"></path><path d="M4.883 100.551c1.775-10.106 11.062-18.3 21.168-18.846h-.956c-10.38 0-20.349 8.467-22.124 18.846-1.776 10.379 5.053 18.846 15.568 18.846h.956c-9.832-.546-16.388-8.74-14.612-18.846z" fill="url(#paint23_linear_11448_57172-uid-12-uid-48-uid-90)"></path><path d="M20.998 115.709H19.36l.546-3.278c-2.185-.273-3.687-.683-4.643-1.366-1.64-1.229-2.185-3.414-1.64-6.555h4.508c-.137 1.366 0 2.322.136 2.868.273.683 1.093 1.229 2.322 1.502l1.229-7.101-1.23-.41c-2.048-.683-3.277-1.502-3.96-2.595-.683-1.092-.82-2.458-.546-3.96.137-.956.546-1.912.956-2.868.41-.82 1.093-1.502 1.775-2.185a9.82 9.82 0 012.868-1.639 35.54 35.54 0 012.595-.41l.41-2.185h1.639l-.41 2.185c1.775.137 3.14.547 3.96 1.366 1.639 1.23 2.322 3.141 1.912 5.736h-4.37c.137-.956 0-1.639-.137-2.185-.273-.82-.956-1.23-2.048-1.23l-1.093 6.283c2.459.956 4.097 1.775 4.917 2.458 1.229 1.229 1.775 2.731 1.366 4.916-.547 2.732-1.913 4.78-4.098 6.009-1.502.82-3.004 1.229-4.643 1.366l-.683 3.278zm2.595-24.31c-.956 0-1.775.274-2.322.82-.546.546-.955 1.23-1.092 2.049-.137.956 0 1.638.683 2.185.273.273.82.546 1.639.82l1.092-5.873zm-1.366 17.345c.82-.137 1.503-.273 2.049-.547.82-.546 1.23-1.365 1.502-2.594.137-.956 0-1.639-.546-2.322-.273-.273-.956-.683-1.775-.956l-1.23 6.419z" fill="url(#paint24_linear_11448_57172-uid-12-uid-48-uid-90)"></path><path d="M19.769 115.709H18.13l.546-3.278c-2.185-.273-3.687-.683-4.643-1.366-1.639-1.229-2.185-3.414-1.639-6.555h4.644c-.137 1.366 0 2.322.136 2.868.273.683 1.093 1.229 2.322 1.502l1.229-7.101-1.23-.41c-2.048-.683-3.277-1.502-3.96-2.595-.683-1.092-.82-2.458-.546-3.96.137-.956.546-1.912.956-2.868.41-.82 1.093-1.502 1.775-2.185a9.82 9.82 0 012.868-1.639 35.523 35.523 0 012.595-.41l.41-2.185h1.639l-.41 2.185c1.775.137 3.14.547 3.96 1.366 1.64 1.23 2.322 3.141 1.912 5.736h-4.37c.137-.956 0-1.639-.137-2.185-.273-.82-.955-1.23-2.048-1.23l-1.092 6.283c2.458.956 4.096 1.775 4.916 2.458 1.229 1.229 1.775 2.731 1.366 4.916-.547 2.732-1.912 4.78-4.097 6.009-1.503.82-3.005 1.229-4.644 1.366l-.82 3.278zm2.731-24.31c-.956 0-1.775.274-2.321.82-.547.546-.956 1.23-1.093 2.049-.136.956 0 1.638.683 2.185.273.273.82.546 1.639.82L22.5 91.4zm-1.502 17.345c.82-.137 1.502-.273 2.049-.547.819-.546 1.229-1.365 1.502-2.594.136-.956 0-1.639-.546-2.322-.274-.273-.956-.683-1.776-.956l-1.229 6.419z" fill="url(#paint25_linear_11448_57172-uid-12-uid-48-uid-90)"></path><path d="M28.509 83.344c1.912 0 3.687.273 5.599.82a16.426 16.426 0 00-7.921-2.459c-10.106.41-19.529 8.74-21.304 18.846-1.093 6.146.956 11.608 4.916 15.023-3.004-3.415-4.37-8.194-3.414-13.521 1.775-10.379 11.745-18.71 22.124-18.71z" fill="#CE7E3C"></path></g><defs><linearGradient id="paint0_linear_11448_57172-uid-12-uid-48-uid-90" x1="52.251" y1="121.053" x2="145.014" y2="121.053" gradientUnits="userSpaceOnUse"><stop stop-color="#C3D2C3" stop-opacity="0"></stop><stop offset=".01" stop-color="#C3D2C3" stop-opacity=".05"></stop><stop offset=".03" stop-color="#C3D2C3" stop-opacity=".3"></stop><stop offset=".06" stop-color="#C3D2C3" stop-opacity=".51"></stop><stop offset=".09" stop-color="#C3D2C3" stop-opacity=".69"></stop><stop offset=".12" stop-color="#C3D2C3" stop-opacity=".83"></stop><stop offset=".15" stop-color="#C3D2C3" stop-opacity=".92"></stop><stop offset=".18" stop-color="#C3D2C3" stop-opacity=".98"></stop><stop offset=".21" stop-color="#C3D2C3"></stop><stop offset=".84" stop-color="#C3D2C3"></stop><stop offset=".88" stop-color="#C3D2C3" stop-opacity=".78"></stop><stop offset=".96" stop-color="#C3D2C3" stop-opacity=".23"></stop><stop offset="1" stop-color="#C3D2C3" stop-opacity=".01"></stop></linearGradient><linearGradient id="paint4_linear_11448_57172-uid-12-uid-48-uid-90" x1="70.198" y1="7.807" x2="92.511" y2="30.12" gradientUnits="userSpaceOnUse"><stop stop-color="#EB9546"></stop><stop offset=".52" stop-color="#FCCD81"></stop><stop offset=".99" stop-color="#EB9546"></stop></linearGradient><linearGradient id="paint5_linear_11448_57172-uid-12-uid-48-uid-90" x1="94.444" y1="29.673" x2="94.444" y2="7.095" gradientUnits="userSpaceOnUse"><stop stop-color="#EB9546"></stop><stop offset=".42" stop-color="#FCCD81"></stop><stop offset=".99" stop-color="#EB9546"></stop></linearGradient><linearGradient id="paint6_linear_11448_57172-uid-12-uid-48-uid-90" x1="75.209" y1="13.05" x2="94.949" y2="32.789" gradientUnits="userSpaceOnUse"><stop stop-color="#FCCD81"></stop><stop offset=".23" stop-color="#EB9546"></stop><stop offset=".49" stop-color="#FCCD81"></stop><stop offset="1" stop-color="#EB9546"></stop></linearGradient><linearGradient id="paint7_linear_11448_57172-uid-12-uid-48-uid-90" x1="78.168" y1="29.665" x2="78.168" y2="9.133" gradientUnits="userSpaceOnUse"><stop stop-color="#FCCD81"></stop><stop offset=".7" stop-color="#EB9546"></stop></linearGradient><linearGradient id="paint8_linear_11448_57172-uid-12-uid-48-uid-90" x1="85.736" y1="29.37" x2="85.736" y2="11.947" gradientUnits="userSpaceOnUse"><stop stop-color="#EB9546"></stop><stop offset=".42" stop-color="#FCCD81"></stop><stop offset=".99" stop-color="#EB9546"></stop></linearGradient><linearGradient id="paint9_linear_11448_57172-uid-12-uid-48-uid-90" x1="78.671" y1="16.825" x2="90.981" y2="29.135" gradientUnits="userSpaceOnUse"><stop stop-color="#EB9546"></stop><stop offset=".23" stop-color="#FCCD81"></stop><stop offset=".49" stop-color="#EB9546"></stop><stop offset=".99" stop-color="#FCCD81"></stop></linearGradient><linearGradient id="paint10_linear_11448_57172-uid-12-uid-48-uid-90" x1="38.265" y1="62.438" x2="64.352" y2="88.525" gradientUnits="userSpaceOnUse"><stop stop-color="#EB9546"></stop><stop offset=".38" stop-color="#EC9748"></stop><stop offset=".59" stop-color="#EE9F51"></stop><stop offset=".76" stop-color="#F2AC5E"></stop><stop offset=".91" stop-color="#F8BF72"></stop><stop offset="1" stop-color="#FCCD81"></stop></linearGradient><linearGradient id="paint11_linear_11448_57172-uid-12-uid-48-uid-90" x1="42.014" y1="97.038" x2="42.014" y2="53.926" gradientUnits="userSpaceOnUse"><stop stop-color="#EB9546"></stop><stop offset=".76" stop-color="#FCCD81"></stop><stop offset="1" stop-color="#EB9546"></stop></linearGradient><linearGradient id="paint12_linear_11448_57172-uid-12-uid-48-uid-90" x1="39.797" y1="64.055" x2="62.647" y2="86.905" gradientUnits="userSpaceOnUse"><stop offset=".03" stop-color="#EB9546"></stop><stop offset=".08" stop-color="#EC9748"></stop><stop offset=".1" stop-color="#EE9F51"></stop><stop offset=".13" stop-color="#F2AC5E"></stop><stop offset=".15" stop-color="#F8BF72"></stop><stop offset=".16" stop-color="#FCCD81"></stop><stop offset=".31" stop-color="#EB9546"></stop><stop offset=".41" stop-color="#EC9748"></stop><stop offset=".46" stop-color="#EE9F51"></stop><stop offset=".51" stop-color="#F2AC5E"></stop><stop offset=".54" stop-color="#F8BF72"></stop><stop offset=".57" stop-color="#FCCD81"></stop><stop offset=".65" stop-color="#EB9546"></stop><stop offset=".78" stop-color="#EC9748"></stop><stop offset=".86" stop-color="#EE9F51"></stop><stop offset=".92" stop-color="#F2AC5E"></stop><stop offset=".97" stop-color="#F8BF72"></stop><stop offset="1" stop-color="#FCCD81"></stop></linearGradient><linearGradient id="paint13_linear_11448_57172-uid-12-uid-48-uid-90" x1="57.408" y1="94.363" x2="57.408" y2="56.599" gradientUnits="userSpaceOnUse"><stop stop-color="#FCCD81"></stop><stop offset=".03" stop-color="#FBC97D"></stop><stop offset=".24" stop-color="#F4B265"></stop><stop offset=".47" stop-color="#EFA254"></stop><stop offset=".71" stop-color="#EC9849"></stop><stop offset="1" stop-color="#EB9546"></stop></linearGradient><linearGradient id="paint14_linear_11448_57172-uid-12-uid-48-uid-90" x1="50.645" y1="90.672" x2="50.645" y2="60.296" gradientUnits="userSpaceOnUse"><stop stop-color="#EB9546"></stop><stop offset=".38" stop-color="#EC9748"></stop><stop offset=".59" stop-color="#EE9F51"></stop><stop offset=".76" stop-color="#F2AC5E"></stop><stop offset=".91" stop-color="#F8BF72"></stop><stop offset="1" stop-color="#FCCD81"></stop></linearGradient><linearGradient id="paint15_linear_11448_57172-uid-12-uid-48-uid-90" x1="43.666" y1="67.616" x2="59.402" y2="83.352" gradientUnits="userSpaceOnUse"><stop offset=".03" stop-color="#FCCD81"></stop><stop offset=".09" stop-color="#FBCB7F"></stop><stop offset=".13" stop-color="#F9C376"></stop><stop offset=".15" stop-color="#F5B669"></stop><stop offset=".18" stop-color="#EFA355"></stop><stop offset=".19" stop-color="#EB9546"></stop><stop offset=".3" stop-color="#EC9748"></stop><stop offset=".36" stop-color="#EE9F51"></stop><stop offset=".41" stop-color="#F2AC5E"></stop><stop offset=".45" stop-color="#F8BF72"></stop><stop offset=".47" stop-color="#FCCD81"></stop><stop offset=".61" stop-color="#EB9546"></stop><stop offset=".78" stop-color="#F5B669"></stop><stop offset=".92" stop-color="#FCCD81"></stop></linearGradient><linearGradient id="paint16_linear_11448_57172-uid-12-uid-48-uid-90" x1="24.492" y1="118.934" x2="71.043" y2="118.934" gradientUnits="userSpaceOnUse"><stop offset=".03" stop-color="#EB9546"></stop><stop offset=".08" stop-color="#EC9748"></stop><stop offset=".1" stop-color="#EE9F51"></stop><stop offset=".13" stop-color="#F2AC5E"></stop><stop offset=".15" stop-color="#F8BF72"></stop><stop offset=".16" stop-color="#FCCD81"></stop><stop offset=".31" stop-color="#EB9546"></stop><stop offset=".41" stop-color="#EC9748"></stop><stop offset=".46" stop-color="#EE9F51"></stop><stop offset=".51" stop-color="#F2AC5E"></stop><stop offset=".54" stop-color="#F8BF72"></stop><stop offset=".57" stop-color="#FCCD81"></stop><stop offset=".65" stop-color="#EB9546"></stop><stop offset=".78" stop-color="#EC9748"></stop><stop offset=".86" stop-color="#EE9F51"></stop><stop offset=".92" stop-color="#F2AC5E"></stop><stop offset=".97" stop-color="#F8BF72"></stop><stop offset="1" stop-color="#FCCD81"></stop></linearGradient><linearGradient id="paint17_linear_11448_57172-uid-12-uid-48-uid-90" x1="20.299" y1="112.674" x2="66.85" y2="112.674" gradientUnits="userSpaceOnUse"><stop offset=".03" stop-color="#EB9546"></stop><stop offset=".08" stop-color="#EC9748"></stop><stop offset=".1" stop-color="#EE9F51"></stop><stop offset=".13" stop-color="#F2AC5E"></stop><stop offset=".15" stop-color="#F8BF72"></stop><stop offset=".16" stop-color="#FCCD81"></stop><stop offset=".31" stop-color="#EB9546"></stop><stop offset=".41" stop-color="#EC9748"></stop><stop offset=".46" stop-color="#EE9F51"></stop><stop offset=".51" stop-color="#F2AC5E"></stop><stop offset=".54" stop-color="#F8BF72"></stop><stop offset=".57" stop-color="#FCCD81"></stop><stop offset=".65" stop-color="#EB9546"></stop><stop offset=".78" stop-color="#EC9748"></stop><stop offset=".86" stop-color="#EE9F51"></stop><stop offset=".92" stop-color="#F2AC5E"></stop><stop offset=".97" stop-color="#F8BF72"></stop><stop offset="1" stop-color="#FCCD81"></stop></linearGradient><linearGradient id="paint18_linear_11448_57172-uid-12-uid-48-uid-90" x1="23.191" y1="106.42" x2="69.742" y2="106.42" gradientUnits="userSpaceOnUse"><stop offset=".03" stop-color="#EB9546"></stop><stop offset=".08" stop-color="#EC9748"></stop><stop offset=".1" stop-color="#EE9F51"></stop><stop offset=".13" stop-color="#F2AC5E"></stop><stop offset=".15" stop-color="#F8BF72"></stop><stop offset=".16" stop-color="#FCCD81"></stop><stop offset=".31" stop-color="#EB9546"></stop><stop offset=".41" stop-color="#EC9748"></stop><stop offset=".46" stop-color="#EE9F51"></stop><stop offset=".51" stop-color="#F2AC5E"></stop><stop offset=".54" stop-color="#F8BF72"></stop><stop offset=".57" stop-color="#FCCD81"></stop><stop offset=".65" stop-color="#EB9546"></stop><stop offset=".78" stop-color="#EC9748"></stop><stop offset=".86" stop-color="#EE9F51"></stop><stop offset=".92" stop-color="#F2AC5E"></stop><stop offset=".97" stop-color="#F8BF72"></stop><stop offset="1" stop-color="#FCCD81"></stop></linearGradient><linearGradient id="paint19_linear_11448_57172-uid-12-uid-48-uid-90" x1="20.154" y1="100.165" x2="66.706" y2="100.165" gradientUnits="userSpaceOnUse"><stop offset=".03" stop-color="#EB9546"></stop><stop offset=".08" stop-color="#EC9748"></stop><stop offset=".1" stop-color="#EE9F51"></stop><stop offset=".13" stop-color="#F2AC5E"></stop><stop offset=".15" stop-color="#F8BF72"></stop><stop offset=".16" stop-color="#FCCD81"></stop><stop offset=".31" stop-color="#EB9546"></stop><stop offset=".42" stop-color="#EC9748"></stop><stop offset=".48" stop-color="#EE9F51"></stop><stop offset=".53" stop-color="#F2AC5E"></stop><stop offset=".57" stop-color="#F8BF72"></stop><stop offset=".59" stop-color="#FCCD81"></stop><stop offset=".78" stop-color="#EB9546"></stop><stop offset=".86" stop-color="#EC9748"></stop><stop offset=".91" stop-color="#EE9F51"></stop><stop offset=".95" stop-color="#F2AC5E"></stop><stop offset=".98" stop-color="#F8BF72"></stop><stop offset="1" stop-color="#FCCD81"></stop></linearGradient><linearGradient id="paint20_linear_11448_57172-uid-12-uid-48-uid-90" x1="23.391" y1="122.061" x2="23.391" y2="79.093" gradientUnits="userSpaceOnUse"><stop stop-color="#EB9546"></stop><stop offset=".42" stop-color="#FCCD81"></stop><stop offset=".99" stop-color="#EB9546"></stop></linearGradient><linearGradient id="paint21_linear_11448_57172-uid-12-uid-48-uid-90" x1="7.872" y1="86.661" x2="35.708" y2="114.496" gradientUnits="userSpaceOnUse"><stop stop-color="#EB9546"></stop><stop offset=".52" stop-color="#FCCD81"></stop><stop offset=".99" stop-color="#EB9546"></stop></linearGradient><linearGradient id="paint22_linear_11448_57172-uid-12-uid-48-uid-90" x1="9.724" y1="88.387" x2="34.105" y2="112.768" gradientUnits="userSpaceOnUse"><stop stop-color="#FCCD81"></stop><stop offset=".23" stop-color="#EB9546"></stop><stop offset=".49" stop-color="#FCCD81"></stop><stop offset="1" stop-color="#EB9546"></stop></linearGradient><linearGradient id="paint23_linear_11448_57172-uid-12-uid-48-uid-90" x1="14.391" y1="119.399" x2="14.391" y2="81.763" gradientUnits="userSpaceOnUse"><stop offset=".23" stop-color="#FCCD81"></stop><stop offset=".97" stop-color="#EB9546"></stop></linearGradient><linearGradient id="paint24_linear_11448_57172-uid-12-uid-48-uid-90" x1="22.68" y1="115.715" x2="22.68" y2="85.432" gradientUnits="userSpaceOnUse"><stop stop-color="#EB9546"></stop><stop offset=".42" stop-color="#FCCD81"></stop><stop offset=".99" stop-color="#EB9546"></stop></linearGradient><linearGradient id="paint25_linear_11448_57172-uid-12-uid-48-uid-90" x1="14.184" y1="93.041" x2="28.845" y2="107.701" gradientUnits="userSpaceOnUse"><stop stop-color="#EB9546"></stop><stop offset=".23" stop-color="#FCCD81"></stop><stop offset=".49" stop-color="#EB9546"></stop><stop offset=".99" stop-color="#FCCD81"></stop></linearGradient><radialGradient id="paint1_radial_11448_57172-uid-12-uid-48-uid-90" cx="0" cy="0" r="1" gradientUnits="userSpaceOnUse" gradientTransform="translate(74.959 67.99) scale(50.568)"><stop offset=".56" stop-color="#BC5118"></stop><stop offset=".64" stop-color="#B64E17"></stop><stop offset=".76" stop-color="#A64616"></stop><stop offset=".89" stop-color="#8B3A14"></stop><stop offset="1" stop-color="#6D2B11"></stop></radialGradient><radialGradient id="paint2_radial_11448_57172-uid-12-uid-48-uid-90" cx="0" cy="0" r="1" gradientUnits="userSpaceOnUse" gradientTransform="matrix(54.9413 0 0 25.273 65.92 23.041)"><stop offset=".56" stop-color="#BC5118"></stop><stop offset="1" stop-color="#6D2B11"></stop></radialGradient><radialGradient id="paint3_radial_11448_57172-uid-12-uid-48-uid-90" cx="0" cy="0" r="1" gradientUnits="userSpaceOnUse" gradientTransform="translate(106.667 54.704) scale(32.5601)"><stop offset=".09" stop-color="#BC5118"></stop><stop offset=".56" stop-color="#BC5118"></stop><stop offset=".64" stop-color="#B64E17"></stop><stop offset=".76" stop-color="#A64616"></stop><stop offset=".89" stop-color="#8B3A14"></stop><stop offset="1" stop-color="#6D2B11"></stop></radialGradient><clipPath id="clip0_11448_57172-uid-12-uid-48-uid-90"><rect width="145" height="130" fill="#fff"></rect></clipPath></defs></svg>