<svg xmlns="http://www.w3.org/2000/svg" viewBox="0 0 145 130" aria-hidden="true" role="img"><radialGradient id="cash-46-a-uid-14-uid-50-uid-92" cx="390.707" cy="-1132.365" r="29.305" gradientTransform="matrix(.4981 .8663 -1.2894 .7422 -1612.631 589.327)" gradientUnits="userSpaceOnUse"><stop offset=".68" stop-color="#67541f"></stop><stop offset=".86" stop-color="#524219"></stop><stop offset="1" stop-color="#3f3214"></stop></radialGradient><path d="M46.4 101.9l18.8-8.4c2.6-1.1 5.5-.1 6.7 2.5 1.2 2.5.3 5.5-2.3 6.8l-6.4 3.2c-7.5 3.9-14.1 9.1-19.6 15.5-4.7 5.5-11.7 8.5-19 8.5-7.7-.2-14.9-4-19.4-10.4l-.2-.4c-3.7-5.2-5.1-11.7-4.1-18l.1-.3c1.1-6.7 5-12.6 10.7-16.3 12.6-8.2 26.1-14.7 40.6-18.9l11-3.3c2.4-.7 4.9.1 6.4 2.1 1.6 2.1 1.7 5 .1 7.3.7-.2 1.2-.5 1.8-.5l1-.4c2.3-.8 4.9.1 6.2 2.1 1.5 2.3 1 5.4-1.1 7 1.3.5 2.3 1.4 3.1 2.5 1.6 2.8.7 6.3-2.1 8-.3.1-.4.2-.6.4l-7.5 3.2" fill="url(#cash-46-a-uid-14-uid-50-uid-92)"></path><radialGradient id="cash-46-b-uid-14-uid-50-uid-92" cx="-1596.599" cy="-1469.584" r="26.152" gradientTransform="matrix(-.1205 .9875 -1.3653 -.1682 -2128.885 1425.82)" gradientUnits="userSpaceOnUse"><stop offset=".68" stop-color="#3f3214"></stop><stop offset=".8" stop-color="#3f3214" stop-opacity=".67"></stop><stop offset="1" stop-color="#3f3214" stop-opacity="0"></stop></radialGradient><path d="M46.4 101.9l18.8-8.4c2.6-1.1 5.5-.1 6.7 2.5 1.2 2.5.3 5.5-2.3 6.8l-6.4 3.2c-7.5 3.9-14.1 9.1-19.6 15.5-4.7 5.5-11.7 8.5-19 8.5-7.7-.2-14.9-4-19.4-10.4l-.2-.4c-3.7-5.2-5.1-11.7-4.1-18l.1-.3c1.1-6.7 5-12.6 10.7-16.3 12.6-8.2 26.1-14.7 40.6-18.9l11-3.3c2.4-.7 4.9.1 6.4 2.1 1.6 2.1 1.7 5 .1 7.3.7-.2 1.2-.5 1.8-.5l1-.4c2.3-.8 4.9.1 6.2 2.1 1.5 2.3 1 5.4-1.1 7 1.3.5 2.3 1.4 3.1 2.5 1.6 2.8.7 6.3-2.1 8-.3.1-.4.2-.6.4l-7.5 3.2" fill="url(#cash-46-b-uid-14-uid-50-uid-92)"></path><radialGradient id="cash-46-c-uid-14-uid-50-uid-92" cx="259.38" cy="-894.172" r="13.894" gradientTransform="matrix(.4415 .8973 -1.642 .808 -1522.48 560.67)" gradientUnits="userSpaceOnUse"><stop offset=".68" stop-color="#67541f"></stop><stop offset=".86" stop-color="#524219"></stop><stop offset="1" stop-color="#3f3214"></stop></radialGradient><path d="M50.7 88.6c.3.5.5 1.1.7 1.7 6.9-3 13.8-5.8 20.8-8.3l3.6-1.4c2.8-1.2 4-4.1 3-6.9-1-2.5-3.8-3.9-6.5-3.1l-1 .4c-8.5 2.9-17 6.2-25.3 9.8 1.8 2.6 3.5 5.2 4.7 7.8z" fill="url(#cash-46-c-uid-14-uid-50-uid-92)"></path><radialGradient id="cash-46-d-uid-14-uid-50-uid-92" cx="-99.541" cy="-724.426" r="13.598" gradientTransform="matrix(.3368 .9416 -1.9491 .6971 -1316.418 679.8)" gradientUnits="userSpaceOnUse"><stop offset=".68" stop-color="#67541f"></stop><stop offset=".86" stop-color="#524219"></stop><stop offset="1" stop-color="#3f3214"></stop></radialGradient><path d="M80.4 82.5c-1.4-2.6-4.6-3.6-7.4-2.4l-22 9.6c1.6 3.6 2.5 7.3 2.8 11.2l23.7-10.2c3-1.3 4.4-4.7 3-7.6.2-.3.2-.5-.1-.6z" fill="url(#cash-46-d-uid-14-uid-50-uid-92)"></path><radialGradient id="cash-46-e-uid-14-uid-50-uid-92" cx="90.695" cy="-898.019" r="13.596" gradientTransform="matrix(.3961 .9182 -1.7354 .7485 -1542.506 651.965)" gradientUnits="userSpaceOnUse"><stop offset=".68" stop-color="#67541f"></stop><stop offset=".86" stop-color="#524219"></stop><stop offset="1" stop-color="#3f3214"></stop></radialGradient><path d="M41.7 76.4c1.9 1.8 3.6 3.6 5.1 5.7l4.8-2 15.3-6.5c3-1.3 4.5-4.8 3.2-7.8-.2-.5-.5-.9-.9-1.3-1.4-1.9-4.1-2.7-6.4-2.1l-10.9 3.2c-5.3 1.6-16.3 6.2-16.3 6.2l6.1 4.6z" fill="url(#cash-46-e-uid-14-uid-50-uid-92)"></path><radialGradient id="cash-46-f-uid-14-uid-50-uid-92" cx="14.406" cy="-549.978" r="10.533" gradientTransform="matrix(.3778 .9257 -2.0258 .8368 -1062.891 543.345)" gradientUnits="userSpaceOnUse"><stop offset=".68" stop-color="#67541f"></stop><stop offset=".86" stop-color="#524219"></stop><stop offset="1" stop-color="#3f3214"></stop></radialGradient><path d="M71.9 96c-1.2-2.5-4.2-3.5-6.7-2.5l-11.5 5.1c.6 4.2.6 8.5-.3 12.6l-.3 1.5c3.2-2.5 6.7-4.8 10.3-6.7l6.4-3.2c2.4-1.3 3.4-4.3 2.1-6.8z" fill="url(#cash-46-f-uid-14-uid-50-uid-92)"></path><path d="M50 74.5c1.6 5.8-.6 11.8 1.1 13.4l29.6 29.5 63.8-66.3-39-37.5-54.7 56.7c-.6.6-1.1 1.5-1 2.9 0 .4.1.9.2 1.3z" fill="#126b00"></path><linearGradient id="cash-46-g-uid-14-uid-50-uid-92" gradientUnits="userSpaceOnUse" x1="-8216.239" y1="7.855" x2="-8145.857" y2="95.904" gradientTransform="scale(-1 1) rotate(-9.77 -4114.245 -47225.773)"><stop offset=".04" stop-color="#14a800"></stop><stop offset=".21" stop-color="#139500"></stop><stop offset=".664" stop-color="#137e00"></stop><stop offset=".899" stop-color="#127000"></stop></linearGradient><path d="M48.6 74.8c2 5.7 5 14.4 5.4 15.7.9 2.5 2.9 4.1 4.6 5.6l23.1 19.7 59.7-70-41.1-35.1-51.1 59.9c-.6.7-1 1.6-.9 3l.3 1.2z" fill="url(#cash-46-g-uid-14-uid-50-uid-92)"></path><linearGradient id="cash-46-h-uid-14-uid-50-uid-92" gradientUnits="userSpaceOnUse" x1="1485.429" y1="-2310.198" x2="1519.257" y2="-2401.001" gradientTransform="rotate(37.458 -2722.186 -3194.19)"><stop offset=".04" stop-color="#14a800"></stop><stop offset=".21" stop-color="#139500"></stop><stop offset=".47" stop-color="#137e00"></stop><stop offset=".71" stop-color="#127000"></stop><stop offset=".92" stop-color="#126b00"></stop></linearGradient><path d="M132.6 46.3c-2.3-5.7-5.8-14.3-6.4-15.6-1.1-2.5-3.1-4.1-5-5.5L96.7 6.4 39.8 80.7l43.7 33.5 48.7-63.6c.5-.7 1-1.7.7-3.1 0-.4-.1-.8-.3-1.2z" fill="url(#cash-46-h-uid-14-uid-50-uid-92)"></path><linearGradient id="cash-46-i-uid-14-uid-50-uid-92" gradientUnits="userSpaceOnUse" x1="-6408.898" y1="-899.131" x2="-6413.876" y2="-893.094" gradientTransform="rotate(-142.542 -2983.225 -1536.754)"><stop offset=".22" stop-color="#31e115"></stop><stop offset=".238" stop-color="#2fde14"></stop><stop offset=".424" stop-color="#20c009"></stop><stop offset=".585" stop-color="#17ae02"></stop><stop offset=".7" stop-color="#14a800"></stop><stop offset="1" stop-color="#bbff15"></stop></linearGradient><path d="M132.6 46.3c-2.3-5.8-5.8-14.2-6.4-15.6 1.1 2.8-1.4 13.8-1.4 13.8 1.8.7 7.1-1.3 8.1 3 0-.4-.1-.8-.3-1.2z" fill="url(#cash-46-i-uid-14-uid-50-uid-92)"></path><path d="M106.8 25.6l12.5 9.6c-1.4 2.3-2 5.1-1.4 7.9.5 2.8 2 5.4 4.2 7.4L89 93.7c-2.2-1.4-4.7-2.2-7.2-2.2-3.2 0-6.2 1.3-8.3 3.5L61 85.4c3-4.7 1.8-11.2-2.8-15.3l33.1-43.2c2.2 1.4 4.7 2.2 7.2 2.2 3.2 0 6.2-1.3 8.3-3.5m-.2-1.4c-2 2.6-5 3.9-8.1 3.9-2.5 0-5.2-.8-7.4-2.6L56.8 70.2c5.1 3.9 6.3 10.8 2.8 15.4l14 10.7c2-2.6 5-3.9 8.1-3.9 2.5 0 5.2.8 7.4 2.6l34.2-44.7c-5.1-3.9-6.3-10.8-2.8-15.4l-13.9-10.7z" fill="#126b00"></path><path d="M107.1 31.7l6.2 4.7c-1.3 4.6-.3 9.7 2.5 13.9L87.2 87.7c-1.9-.7-3.9-1-5.9-1-3 0-5.8.8-8.2 2.2l-6.2-4.7c1.3-4.6.3-9.7-2.5-13.9l28.7-37.4c1.9.7 3.9 1 5.9 1 2.9 0 5.7-.8 8.1-2.2m.1-1.2c-2.4 1.6-5.3 2.4-8.3 2.4-2.1 0-4.2-.4-6.2-1.2L63.2 70.2c3.2 4.3 4.1 9.6 2.6 14.3l7.3 5.6c2.4-1.6 5.3-2.4 8.3-2.4 2.1 0 4.2.4 6.2 1.2l29.6-38.6c-3.2-4.3-4.1-9.6-2.6-14.3l-7.4-5.5z" fill="#126b00"></path><circle cx="90.1" cy="60.3" r="10" opacity=".5" fill="#95df00"></circle><radialGradient id="cash-46-j-uid-14-uid-50-uid-92" cx="83.952" cy="-913.902" r="21.743" gradientTransform="matrix(.4039 .9078 -1.6473 .7346 -1501.023 667.145)" gradientUnits="userSpaceOnUse"><stop offset=".72" stop-color="#67541f"></stop><stop offset=".88" stop-color="#524219"></stop><stop offset="1" stop-color="#3f3214"></stop></radialGradient><path d="M33.7 108.2c4.1-4.1 6.9-9.1 8.1-14.7 2.4 0 4.9-.6 7.2-1.4l8.3-2.8c4-1.4 6.2-5.5 5.2-9.6-.7-3.1-3.9-5-7-4.3C44.3 78 33.6 81.8 23.3 87" fill="url(#cash-46-j-uid-14-uid-50-uid-92)"></path><radialGradient id="cash-46-k-uid-14-uid-50-uid-92" cx="2089.798" cy="-861.522" r="14.457" gradientTransform="matrix(.9627 .2704 -.1703 .6065 -2112.804 50.97)" gradientUnits="userSpaceOnUse"><stop offset=".4" stop-color="#3f3214"></stop><stop offset=".63" stop-color="#3f3214" stop-opacity=".67"></stop><stop offset="1" stop-color="#3f3214" stop-opacity="0"></stop></radialGradient><path d="M33.7 108.2c4.1-4.1 6.9-9.1 8.1-14.7-1.7 0-3.4 0-5.1-.5l-8.9-1.6-1.6 1.5 7.5 15.3z" fill="url(#cash-46-k-uid-14-uid-50-uid-92)"></path><radialGradient id="cash-46-l-uid-14-uid-50-uid-92" cx="1457.98" cy="-1303.015" r="4.954" gradientTransform="rotate(37.127 -1304.802 -2702.245)" gradientUnits="userSpaceOnUse"><stop offset=".43" stop-color="#e4ebe4"></stop><stop offset=".49" stop-color="#e3eae3" stop-opacity=".91"></stop><stop offset=".64" stop-color="#dfe8df" stop-opacity=".68"></stop><stop offset=".84" stop-color="#dae4da" stop-opacity=".32"></stop><stop offset="1" stop-color="#d5e0d5" stop-opacity="0"></stop></radialGradient><circle cx="54.5" cy="80.6" r="3.7" opacity=".5" fill="url(#cash-46-l-uid-14-uid-50-uid-92)"></circle><radialGradient id="cash-46-m-uid-14-uid-50-uid-92" cx="1457.478" cy="-1301.579" r="6.345" gradientTransform="rotate(37.127 -1304.802 -2702.245)" gradientUnits="userSpaceOnUse"><stop offset=".79" stop-color="#d5e0d5" stop-opacity="0"></stop><stop offset=".82" stop-color="#d6e1d6" stop-opacity=".09"></stop><stop offset=".87" stop-color="#dae3da" stop-opacity=".32"></stop><stop offset=".94" stop-color="#dfe7df" stop-opacity=".68"></stop><stop offset="1" stop-color="#e4ebe4"></stop></radialGradient><circle cx="54.5" cy="80.6" r="3.7" opacity=".5" fill="url(#cash-46-m-uid-14-uid-50-uid-92)"></circle><radialGradient id="cash-46-n-uid-14-uid-50-uid-92" cx="1456.561" cy="-1300.328" r="3.837" gradientTransform="rotate(37.127 -1304.802 -2702.245)" gradientUnits="userSpaceOnUse"><stop offset=".81" stop-color="#e4ebe4"></stop><stop offset=".83" stop-color="#e3eae3" stop-opacity=".91"></stop><stop offset=".88" stop-color="#dfe8df" stop-opacity=".68"></stop><stop offset=".95" stop-color="#dae4da" stop-opacity=".32"></stop><stop offset="1" stop-color="#d5e0d5" stop-opacity="0"></stop></radialGradient><circle cx="54.5" cy="80.6" r="3.7" opacity=".5" fill="url(#cash-46-n-uid-14-uid-50-uid-92)"></circle><radialGradient id="cash-46-o-uid-14-uid-50-uid-92" cx="2053.719" cy="325.291" r="21.743" gradientTransform="matrix(.9431 .3325 -.6018 1.707 -1725.71 -1124.938)" gradientUnits="userSpaceOnUse"><stop offset=".72" stop-color="#67541f"></stop><stop offset=".79" stop-color="#67541f" stop-opacity=".8"></stop><stop offset=".93" stop-color="#67541f" stop-opacity=".28"></stop><stop offset="1" stop-color="#67541f" stop-opacity="0"></stop></radialGradient><path d="M33.7 108.2c4.1-4.1 6.9-9.1 8.1-14.7 2.4 0 4.9-.6 7.2-1.4l8.3-2.8c4-1.4 6.2-5.5 5.2-9.6-.7-3.1-3.9-5-7-4.3C44.3 78 33.6 81.8 23.3 87" fill="url(#cash-46-o-uid-14-uid-50-uid-92)"></path><path d="M89.2 27.6c2.8-.2 5.1-2.5 5.2-5.4l.2-5.4.2 5.4c.1 2.9 2.3 5.2 5.2 5.4-2.9.2-5.1 2.5-5.2 5.4l-.2 4.7-.2-4.7c-.3-2.8-2.5-5.1-5.2-5.4z" fill="#fff"></path><path d="M72.8 7.8c2.1-.2 3.6-1.8 3.7-3.9l.2-3.9.2 3.9c.1 2.1 1.7 3.7 3.7 3.9-2.1.2-3.6 1.8-3.7 3.9l-.1 3.5-.1-3.5c-.3-2-1.8-3.8-3.9-3.9z" fill="#debe1a"></path></svg>