<svg xmlns="http://www.w3.org/2000/svg" viewBox="0 0 145 130" aria-hidden="true" role="img"><linearGradient id="find-projects-app-122-a-uid-20-uid-33-uid-35-uid-56-uid-69-uid-71-uid-73-uid-75-uid-77-uid-98-uid-111-uid-113-uid-115-uid-117" gradientUnits="userSpaceOnUse" x1="72.494" y1="51.17" x2="72.494" y2="61.493" gradientTransform="matrix(1 0 0 -1 .006 129.994)"><stop offset=".25" stop-color="#9aaa97"></stop><stop offset=".55" stop-color="#65735b"></stop></linearGradient><rect x="1" y="70.4" width="142.9" height="7.5" fill="url(#find-projects-app-122-a-uid-20-uid-33-uid-35-uid-56-uid-69-uid-71-uid-73-uid-75-uid-77-uid-98-uid-111-uid-113-uid-115-uid-117)"></rect><rect x=".1" y="70.4" width="144.8" height="3.5" fill="#9aaa97"></rect><linearGradient id="find-projects-app-122-b-uid-20-uid-33-uid-35-uid-56-uid-69-uid-71-uid-73-uid-75-uid-77-uid-98-uid-111-uid-113-uid-115-uid-117" gradientUnits="userSpaceOnUse" x1="34.603" y1="59.599" x2="34.603" y2="94.442" gradientTransform="matrix(1 0 0 -1 .006 129.994)"><stop offset=".08" stop-color="#d5e0d5"></stop><stop offset=".29" stop-color="#9aaa97"></stop></linearGradient><path d="M42.1 70.4H33c-3.2 0-5.9-2.6-5.9-5.9 0-.5.1-.9.2-1.3l6.5-27.6 1.1.3-6.5 27.6c-.6 2.5 1 5.1 3.5 5.6.4.1.7.1 1.1.1h9.1v1.2z" fill="url(#find-projects-app-122-b-uid-20-uid-33-uid-35-uid-56-uid-69-uid-71-uid-73-uid-75-uid-77-uid-98-uid-111-uid-113-uid-115-uid-117)"></path><linearGradient id="find-projects-app-122-c-uid-20-uid-33-uid-35-uid-56-uid-69-uid-71-uid-73-uid-75-uid-77-uid-98-uid-111-uid-113-uid-115-uid-117" gradientUnits="userSpaceOnUse" x1="41.331" y1="60.757" x2="41.331" y2="94.181" gradientTransform="matrix(1 0 0 -1 .006 129.994)"><stop offset=".25" stop-color="#9aaa97"></stop><stop offset=".55" stop-color="#65735b"></stop></linearGradient><path d="M54.4 69.2h-9.1c-2.6 0-4.7-2.1-4.7-4.7 0-.4 0-.7.1-1.1l6.5-27.7H34.9l-6.5 27.6c-.6 2.5 1 5.1 3.5 5.6.4.1.7.1 1.1.1l21.4.2z" fill="url(#find-projects-app-122-c-uid-20-uid-33-uid-35-uid-56-uid-69-uid-71-uid-73-uid-75-uid-77-uid-98-uid-111-uid-113-uid-115-uid-117)"></path><linearGradient id="find-projects-app-122-d-uid-20-uid-33-uid-35-uid-56-uid-69-uid-71-uid-73-uid-75-uid-77-uid-98-uid-111-uid-113-uid-115-uid-117" gradientUnits="userSpaceOnUse" x1="42.107" y1="60.178" x2="54.405" y2="60.178" gradientTransform="matrix(1 0 0 -1 .006 129.994)"><stop offset="0" stop-color="#c3d2c3"></stop><stop offset=".93" stop-color="#c3d2c3"></stop></linearGradient><rect x="42.1" y="69.2" width="12.3" height="1.2" fill="url(#find-projects-app-122-d-uid-20-uid-33-uid-35-uid-56-uid-69-uid-71-uid-73-uid-75-uid-77-uid-98-uid-111-uid-113-uid-115-uid-117)"></rect><linearGradient id="find-projects-app-122-e-uid-20-uid-33-uid-35-uid-56-uid-69-uid-71-uid-73-uid-75-uid-77-uid-98-uid-111-uid-113-uid-115-uid-117" gradientUnits="userSpaceOnUse" x1="38.507" y1="75.234" x2="38.507" y2="129.994" gradientTransform="matrix(1 0 0 -1 .006 129.994)"><stop offset="0" stop-color="#9aaa97"></stop><stop offset=".93" stop-color="#e4ebe4"></stop></linearGradient><path d="M2.3 0h72.4c1.1 0 2.1.9 2.1 2.1v50.6c0 1.1-.9 2.1-2.1 2.1H2.3c-1.1 0-2.1-.9-2.1-2.1V2.1C.2.9 1.2 0 2.3 0z" fill="url(#find-projects-app-122-e-uid-20-uid-33-uid-35-uid-56-uid-69-uid-71-uid-73-uid-75-uid-77-uid-98-uid-111-uid-113-uid-115-uid-117)"></path><linearGradient id="find-projects-app-122-f-uid-20-uid-33-uid-35-uid-56-uid-69-uid-71-uid-73-uid-75-uid-77-uid-98-uid-111-uid-113-uid-115-uid-117" gradientUnits="userSpaceOnUse" x1="2.476" y1="102.614" x2="79.023" y2="102.614" gradientTransform="matrix(1 0 0 -1 .006 129.994)"><stop offset="0" stop-color="#c3d2c3"></stop><stop offset=".93" stop-color="#c3d2c3"></stop></linearGradient><path d="M4.6 0H77c1.1 0 2 .9 2 2.1v50.6c0 1.1-.9 2.1-2.1 2.1H4.6c-1.1 0-2.1-.9-2.1-2.1V2.1C2.5.9 3.4 0 4.6 0z" fill="url(#find-projects-app-122-f-uid-20-uid-33-uid-35-uid-56-uid-69-uid-71-uid-73-uid-75-uid-77-uid-98-uid-111-uid-113-uid-115-uid-117)"></path><rect x="4.7" y="2.7" width="71.7" height="49.4" fill="#13544e"></rect><polygon points="6.1,4.4 76.3,4.4 76.3,2.7 4.7,2.7 4.7,52.1 6.1,52.1" fill="#0d3a35"></polygon><linearGradient id="find-projects-app-122-g-uid-20-uid-33-uid-35-uid-56-uid-69-uid-71-uid-73-uid-75-uid-77-uid-98-uid-111-uid-113-uid-115-uid-117" gradientUnits="userSpaceOnUse" x1="76.278" y1="77.904" x2="76.278" y2="127.325" gradientTransform="matrix(1 0 0 -1 .006 129.994)"><stop offset="0" stop-color="#e4ebe4"></stop><stop offset=".93" stop-color="#9aaa97"></stop></linearGradient><rect x="75.8" y="2.7" width="1" height="49.4" fill="url(#find-projects-app-122-g-uid-20-uid-33-uid-35-uid-56-uid-69-uid-71-uid-73-uid-75-uid-77-uid-98-uid-111-uid-113-uid-115-uid-117)"></rect><rect x="109.4" y="31" width="9.3" height="39.4" fill="#13544e"></rect><linearGradient id="find-projects-app-122-h-uid-20-uid-33-uid-35-uid-56-uid-69-uid-71-uid-73-uid-75-uid-77-uid-98-uid-111-uid-113-uid-115-uid-117" gradientUnits="userSpaceOnUse" x1="107.285" y1="59.599" x2="107.285" y2="99.01" gradientTransform="matrix(1 0 0 -1 .006 129.994)"><stop offset="0" stop-color="#13544e"></stop><stop offset="1" stop-color="#0d3a35"></stop></linearGradient><rect x="104.6" y="31" width="5.3" height="39.4" fill="url(#find-projects-app-122-h-uid-20-uid-33-uid-35-uid-56-uid-69-uid-71-uid-73-uid-75-uid-77-uid-98-uid-111-uid-113-uid-115-uid-117)"></rect><polygon points="112.7,70.4 111.8,70.4 112.3,31 112.7,31" fill="#092622"></polygon><path d="M106.9 66.3h.7c.3 0 .5.2.5.5h0c0 .3-.2.5-.5.5h-.7c-.3 0-.5-.2-.5-.5h0c.1-.3.3-.5.5-.5z" stroke="#000" stroke-width=".231" stroke-linejoin="round"></path><rect x="120.8" y="27.5" width="9.4" height="42.9" fill="#13544e"></rect><linearGradient id="find-projects-app-122-i-uid-20-uid-33-uid-35-uid-56-uid-69-uid-71-uid-73-uid-75-uid-77-uid-98-uid-111-uid-113-uid-115-uid-117" gradientUnits="userSpaceOnUse" x1="117.069" y1="59.599" x2="117.069" y2="102.543" gradientTransform="matrix(1 0 0 -1 .006 129.994)"><stop offset="0" stop-color="#13544e"></stop><stop offset="1" stop-color="#0d3a35"></stop></linearGradient><rect x="112.7" y="27.5" width="8.8" height="42.9" fill="url(#find-projects-app-122-i-uid-20-uid-33-uid-35-uid-56-uid-69-uid-71-uid-73-uid-75-uid-77-uid-98-uid-111-uid-113-uid-115-uid-117)"></rect><polygon points="130.5,70.4 124,70.4 124.1,36.8 130.5,35.8" fill="#092622"></polygon><polygon points="141.2,70.4 131.1,70.4 127,35.8 135.8,35.8" fill="#13544e"></polygon><linearGradient id="find-projects-app-122-j-uid-20-uid-33-uid-35-uid-56-uid-69-uid-71-uid-73-uid-75-uid-77-uid-98-uid-111-uid-113-uid-115-uid-117" gradientUnits="userSpaceOnUse" x1="128.281" y1="59.598" x2="128.281" y2="94.183" gradientTransform="matrix(1 0 0 -1 .006 129.994)"><stop offset="0" stop-color="#13544e"></stop><stop offset="1" stop-color="#0d3a35"></stop></linearGradient><polygon points="127,35.8 124.1,36.8 129.5,70.4 132.4,70.4" fill="url(#find-projects-app-122-j-uid-20-uid-33-uid-35-uid-56-uid-69-uid-71-uid-73-uid-75-uid-77-uid-98-uid-111-uid-113-uid-115-uid-117)"></polygon><radialGradient id="find-projects-app-122-k-uid-20-uid-33-uid-35-uid-56-uid-69-uid-71-uid-73-uid-75-uid-77-uid-98-uid-111-uid-113-uid-115-uid-117" cx="22.706" cy="329.499" r="26.816" gradientTransform="matrix(.97 .23 .12 -.5 2.621 217.803)" gradientUnits="userSpaceOnUse"><stop offset=".68" stop-color="#eb9546"></stop><stop offset=".83" stop-color="#d6843f"></stop><stop offset="1" stop-color="#bc6f37"></stop></radialGradient><path d="M88.7 70.3c-11.1-4.8-22.9-7.8-35-8.9l-1.6-.1c-3.1-.3-5.8 2-6.1 5.1v.5c0 2.9 2.2 5.4 5.1 5.6h.3c11.1 1 22.1 3.5 32.6 7.4h.1" fill="url(#find-projects-app-122-k-uid-20-uid-33-uid-35-uid-56-uid-69-uid-71-uid-73-uid-75-uid-77-uid-98-uid-111-uid-113-uid-115-uid-117)"></path><radialGradient id="find-projects-app-122-l-uid-20-uid-33-uid-35-uid-56-uid-69-uid-71-uid-73-uid-75-uid-77-uid-98-uid-111-uid-113-uid-115-uid-117" cx="-28.973" cy="380.381" r="21.67" gradientTransform="matrix(.9538 .3005 .1713 -.5437 25.252 287.334)" gradientUnits="userSpaceOnUse"><stop offset=".68" stop-color="#eb9546"></stop><stop offset=".83" stop-color="#d6843f"></stop><stop offset="1" stop-color="#bc6f37"></stop></radialGradient><path d="M77.5 89.4l-25.4-4.8c-2.9-.6-5-3.1-5-6 0-3.4 2.7-6.1 6.1-6.2h.3c6.7.3 13.4 1.2 20 2.7l10.6 2.4" fill="url(#find-projects-app-122-l-uid-20-uid-33-uid-35-uid-56-uid-69-uid-71-uid-73-uid-75-uid-77-uid-98-uid-111-uid-113-uid-115-uid-117)"></path><radialGradient id="find-projects-app-122-m-uid-20-uid-33-uid-35-uid-56-uid-69-uid-71-uid-73-uid-75-uid-77-uid-98-uid-111-uid-113-uid-115-uid-117" cx="-35.994" cy="505.529" r="18.234" gradientTransform="matrix(.9693 .246 .1255 -.4943 37.21 345.854)" gradientUnits="userSpaceOnUse"><stop offset=".68" stop-color="#eb9546"></stop><stop offset=".83" stop-color="#d6843f"></stop><stop offset="1" stop-color="#bc6f37"></stop></radialGradient><path d="M80.1 105l-2-1.3c-7.2-4.7-15.4-7.7-24-8.9-2.7-.4-4.6-2.8-4.4-5.5.2-2.8 2.7-4.8 5.5-4.6h.1c3.6.4 7.1.9 10.6 1.5l11.9 2.1" fill="url(#find-projects-app-122-m-uid-20-uid-33-uid-35-uid-56-uid-69-uid-71-uid-73-uid-75-uid-77-uid-98-uid-111-uid-113-uid-115-uid-117)"></path><radialGradient id="find-projects-app-122-n-uid-20-uid-33-uid-35-uid-56-uid-69-uid-71-uid-73-uid-75-uid-77-uid-98-uid-111-uid-113-uid-115-uid-117" cx="21.627" cy="261.702" r="18.61" gradientTransform="matrix(.96 .29 .18 -.58 -6.574 193.933)" gradientUnits="userSpaceOnUse"><stop offset=".68" stop-color="#eb9546"></stop><stop offset=".83" stop-color="#d6843f"></stop><stop offset="1" stop-color="#bc6f37"></stop></radialGradient><path d="M96.8 55.7c-9.4-4-19.5-6.3-29.7-6.7l-10.5-.4c-3.7-.1-6.8 2.7-6.9 6.4v.4c.1 3.3 2.6 6.1 5.9 6.4l4.5.5C71.9 63.7 83.4 67 94.2 72" fill="url(#find-projects-app-122-n-uid-20-uid-33-uid-35-uid-56-uid-69-uid-71-uid-73-uid-75-uid-77-uid-98-uid-111-uid-113-uid-115-uid-117)"></path><linearGradient id="find-projects-app-122-o-uid-20-uid-33-uid-35-uid-56-uid-69-uid-71-uid-73-uid-75-uid-77-uid-98-uid-111-uid-113-uid-115-uid-117" gradientUnits="userSpaceOnUse" x1="53.681" y1="58.62" x2="96.754" y2="58.62" gradientTransform="matrix(1 0 0 -1 .006 129.994)"><stop offset="0" stop-color="#c3d2c3"></stop><stop offset=".93" stop-color="#c3d2c3"></stop></linearGradient><path d="M93.1 110.3H57.4c-2 0-3.7-1.7-3.7-3.7V36.1c0-2 1.7-3.7 3.7-3.7h35.7c2 0 3.7 1.7 3.7 3.7v70.5c0 2.1-1.7 3.7-3.7 3.7z" fill="url(#find-projects-app-122-o-uid-20-uid-33-uid-35-uid-56-uid-69-uid-71-uid-73-uid-75-uid-77-uid-98-uid-111-uid-113-uid-115-uid-117)"></path><linearGradient id="find-projects-app-122-p-uid-20-uid-33-uid-35-uid-56-uid-69-uid-71-uid-73-uid-75-uid-77-uid-98-uid-111-uid-113-uid-115-uid-117" gradientUnits="userSpaceOnUse" x1="53.681" y1="60.382" x2="96.754" y2="60.382" gradientTransform="matrix(1 0 0 -1 .006 129.994)"><stop offset="0" stop-color="#e4ebe4"></stop><stop offset=".62" stop-color="#e6ede6"></stop><stop offset=".91" stop-color="#edf3ed"></stop><stop offset="1" stop-color="#f2f7f2"></stop></linearGradient><rect x="53.7" y="39.5" width="43.1" height="60.2" fill="url(#find-projects-app-122-p-uid-20-uid-33-uid-35-uid-56-uid-69-uid-71-uid-73-uid-75-uid-77-uid-98-uid-111-uid-113-uid-115-uid-117)"></rect><path d="M64 75.5h22.3c1.7 0 3.1 1.4 3.1 3.1v2.9c0 1.7-1.4 3.1-3.1 3.1H64c-1.7 0-3.1-1.4-3.1-3.1v-2.9c.1-1.8 1.5-3.1 3.1-3.1z" fill="#14a800"></path><path d="M60.7 50.3h29c.4 0 .7.3.7.7v.2c0 .4-.3.7-.7.7h-29c-.4 0-.7-.3-.7-.7V51c0-.4.3-.7.7-.7zm0 8.2h29c.4 0 .7.3.7.7v.2c0 .4-.3.7-.7.7h-29c-.4 0-.7-.3-.7-.7v-.2c0-.4.3-.7.7-.7zm0 8.2h29c.4 0 .7.3.7.7v.2c0 .4-.3.7-.7.7h-29c-.4 0-.7-.3-.7-.7v-.2c0-.3.3-.7.7-.7z" fill="#95df00"></path><radialGradient id="find-projects-app-122-q-uid-20-uid-33-uid-35-uid-56-uid-69-uid-71-uid-73-uid-75-uid-77-uid-98-uid-111-uid-113-uid-115-uid-117" cx="99.471" cy="43.396" r="35.474" gradientTransform="matrix(1 0 0 -1 .006 129.994)" gradientUnits="userSpaceOnUse"><stop offset=".68" stop-color="#eb9546"></stop><stop offset=".83" stop-color="#d6843f"></stop><stop offset="1" stop-color="#bc6f37"></stop></radialGradient><path d="M96.8 89.1V55.7c2 .8 3.9 1.7 5.8 2.7 15.4 8 25.7 23.2 27.3 40.5l.4 4.7c1.3 14.1-9.8 26.3-23.9 26.3-6.2 0-12.1-2.4-16.6-6.7a146.7 146.7 0 01-20-23.8l-5.2-7.7c-2.3-3.4-2.2-7.8.1-11.2 3-4.4 8.9-5.7 13.4-2.9l18.7 11.5z" fill="url(#find-projects-app-122-q-uid-20-uid-33-uid-35-uid-56-uid-69-uid-71-uid-73-uid-75-uid-77-uid-98-uid-111-uid-113-uid-115-uid-117)"></path><radialGradient id="find-projects-app-122-r-uid-20-uid-33-uid-35-uid-56-uid-69-uid-71-uid-73-uid-75-uid-77-uid-98-uid-111-uid-113-uid-115-uid-117" cx="-98.369" cy="126.829" r="13.217" gradientTransform="matrix(.8708 .4917 .3737 -.6618 130.681 218.656)" gradientUnits="userSpaceOnUse"><stop offset=".21" stop-color="#bc6f37"></stop><stop offset=".33" stop-color="#bc6f37" stop-opacity=".89"></stop><stop offset=".56" stop-color="#bc6f37" stop-opacity=".6"></stop><stop offset=".9" stop-color="#bc6f37" stop-opacity=".15"></stop><stop offset="1" stop-color="#bc6f37" stop-opacity="0"></stop></radialGradient><path d="M96.8 74.3V89l4.4 2.7 5.9 3.6V84.6c0-5.7-4.7-10.3-10.3-10.3z" fill="url(#find-projects-app-122-r-uid-20-uid-33-uid-35-uid-56-uid-69-uid-71-uid-73-uid-75-uid-77-uid-98-uid-111-uid-113-uid-115-uid-117)"></path><g opacity=".5"><radialGradient id="find-projects-app-122-s-uid-20-uid-33-uid-35-uid-56-uid-69-uid-71-uid-73-uid-75-uid-77-uid-98-uid-111-uid-113-uid-115-uid-117" cx="6484.467" cy="-2835.453" r="12.083" gradientTransform="scale(1 -1) rotate(-61.177 5603.602 3957.87)" gradientUnits="userSpaceOnUse"><stop offset=".43" stop-color="#e4ebe4"></stop><stop offset=".49" stop-color="#e3eae3" stop-opacity=".91"></stop><stop offset=".64" stop-color="#dfe8df" stop-opacity=".68"></stop><stop offset=".84" stop-color="#dae4da" stop-opacity=".32"></stop><stop offset="1" stop-color="#d5e0d5" stop-opacity="0"></stop></radialGradient><circle cx="73.4" cy="86.8" r="6.1" fill="url(#find-projects-app-122-s-uid-20-uid-33-uid-35-uid-56-uid-69-uid-71-uid-73-uid-75-uid-77-uid-98-uid-111-uid-113-uid-115-uid-117)"></circle></g><radialGradient id="find-projects-app-122-t-uid-20-uid-33-uid-35-uid-56-uid-69-uid-71-uid-73-uid-75-uid-77-uid-98-uid-111-uid-113-uid-115-uid-117" cx="6486.747" cy="-2834.839" r="12.083" gradientTransform="scale(1 -1) rotate(-61.177 5603.602 3957.87)" gradientUnits="userSpaceOnUse"><stop offset=".43" stop-color="#d5e0d5" stop-opacity="0"></stop><stop offset=".56" stop-color="#d5e0d5" stop-opacity=".01"></stop><stop offset=".64" stop-color="#d6e1d6" stop-opacity=".05"></stop><stop offset=".71" stop-color="#d7e1d7" stop-opacity=".11"></stop><stop offset=".76" stop-color="#d8e2d8" stop-opacity=".19"></stop><stop offset=".82" stop-color="#dae3da" stop-opacity=".31"></stop><stop offset=".87" stop-color="#dce5dc" stop-opacity=".44"></stop><stop offset=".91" stop-color="#dee7de" stop-opacity=".61"></stop><stop offset=".96" stop-color="#e1e9e1" stop-opacity=".79"></stop><stop offset="1" stop-color="#e4ebe4"></stop></radialGradient><circle cx="73.4" cy="86.8" r="6.1" fill="url(#find-projects-app-122-t-uid-20-uid-33-uid-35-uid-56-uid-69-uid-71-uid-73-uid-75-uid-77-uid-98-uid-111-uid-113-uid-115-uid-117)"></circle><radialGradient id="find-projects-app-122-u-uid-20-uid-33-uid-35-uid-56-uid-69-uid-71-uid-73-uid-75-uid-77-uid-98-uid-111-uid-113-uid-115-uid-117" cx="6487.852" cy="-2834.588" r="6.098" gradientTransform="scale(1 -1) rotate(-61.177 5603.602 3957.87)" gradientUnits="userSpaceOnUse"><stop offset=".43" stop-color="#e4ebe4"></stop><stop offset=".56" stop-color="#e4ebe4" stop-opacity=".99"></stop><stop offset=".64" stop-color="#e3eae3" stop-opacity=".95"></stop><stop offset=".71" stop-color="#e2eae2" stop-opacity=".89"></stop><stop offset=".76" stop-color="#e1e9e1" stop-opacity=".81"></stop><stop offset=".82" stop-color="#dfe8df" stop-opacity=".69"></stop><stop offset=".87" stop-color="#dde6dd" stop-opacity=".56"></stop><stop offset=".91" stop-color="#dbe4db" stop-opacity=".39"></stop><stop offset=".96" stop-color="#d8e2d8" stop-opacity=".21"></stop><stop offset="1" stop-color="#d5e0d5" stop-opacity="0"></stop></radialGradient><circle cx="73.4" cy="86.8" r="6.1" fill="url(#find-projects-app-122-u-uid-20-uid-33-uid-35-uid-56-uid-69-uid-71-uid-73-uid-75-uid-77-uid-98-uid-111-uid-113-uid-115-uid-117)"></circle><radialGradient id="find-projects-app-122-v-uid-20-uid-33-uid-35-uid-56-uid-69-uid-71-uid-73-uid-75-uid-77-uid-98-uid-111-uid-113-uid-115-uid-117" cx="866.576" cy="-286.683" r="9.142" gradientTransform="matrix(1 0 0 -1 .006 129.994)" gradientUnits="userSpaceOnUse"><stop offset=".43" stop-color="#e4ebe4"></stop><stop offset=".49" stop-color="#e3eae3" stop-opacity=".91"></stop><stop offset=".64" stop-color="#dfe8df" stop-opacity=".68"></stop><stop offset=".84" stop-color="#dae4da" stop-opacity=".32"></stop><stop offset="1" stop-color="#d5e0d5" stop-opacity="0"></stop></radialGradient><path d="M78.4 90.2c-2 2.7-5.8 3.3-8.5 1.2-2.6-2-3.2-5.6-1.4-8.3-2 2.7-1.5 6.5 1.2 8.5s6.5 1.5 8.5-1.2c.1 0 .2-.1.2-.2z" fill="url(#find-projects-app-122-v-uid-20-uid-33-uid-35-uid-56-uid-69-uid-71-uid-73-uid-75-uid-77-uid-98-uid-111-uid-113-uid-115-uid-117)"></path><linearGradient id="find-projects-app-122-w-uid-20-uid-33-uid-35-uid-56-uid-69-uid-71-uid-73-uid-75-uid-77-uid-98-uid-111-uid-113-uid-115-uid-117" gradientUnits="userSpaceOnUse" x1="70.091" y1="93.784" x2="81.746" y2="93.784" gradientTransform="matrix(1 0 0 -1 .006 129.994)"><stop offset="0" stop-color="#65735b"></stop><stop offset=".93" stop-color="#9aaa97"></stop></linearGradient><path d="M70.9 37H81c.4 0 .8-.4.8-.8s-.3-.8-.8-.8H70.9c-.4 0-.8.4-.8.8 0 .5.3.8.8.8z" fill="url(#find-projects-app-122-w-uid-20-uid-33-uid-35-uid-56-uid-69-uid-71-uid-73-uid-75-uid-77-uid-98-uid-111-uid-113-uid-115-uid-117)"></path></svg>