<svg data-name="Layer 1" xmlns="http://www.w3.org/2000/svg" xmlns:xlink="http://www.w3.org/1999/xlink" viewBox="0 0 145 130" aria-hidden="true" role="img"><defs><radialGradient id="collaborate-63-a-uid-29-uid-65-uid-107" cx="86.92" cy="61.44" r="24.11" gradientTransform="rotate(-31.46 117.38 52.853) scale(1 .72)" gradientUnits="userSpaceOnUse"><stop offset=".73" stop-color="#bc5118"></stop><stop offset="1" stop-color="#6d2b11"></stop></radialGradient><radialGradient id="collaborate-63-i-uid-29-uid-65-uid-107" cx="83.51" cy="56.4" r="26.81" gradientTransform="rotate(-22.45 119.262 49.305) scale(1 .75)" href="https://www.upwork.com/nx/create-profile/experiencehttps://www.upwork.com/nx/create-profile/experiencehttps://www.upwork.com/nx/create-profile/experience#collaborate-63-a-uid-29-uid-65-uid-107"></radialGradient><radialGradient id="collaborate-63-l-uid-29-uid-65-uid-107" cx="80.64" cy="52.43" r="30.84" gradientTransform="rotate(-36.91 114.405 41.177) scale(1 .57)" href="https://www.upwork.com/nx/create-profile/experiencehttps://www.upwork.com/nx/create-profile/experiencehttps://www.upwork.com/nx/create-profile/experience#collaborate-63-a-uid-29-uid-65-uid-107"></radialGradient><radialGradient id="collaborate-63-o-uid-29-uid-65-uid-107" cx="93.49" cy="53.31" r="43.71" gradientTransform="rotate(16.54 52.009 47.273) scale(1 .77)" href="https://www.upwork.com/nx/create-profile/experiencehttps://www.upwork.com/nx/create-profile/experiencehttps://www.upwork.com/nx/create-profile/experience#collaborate-63-a-uid-29-uid-65-uid-107"></radialGradient><radialGradient id="collaborate-63-b-uid-29-uid-65-uid-107" cx="37.05" cy="118.05" r="7.49" gradientUnits="userSpaceOnUse"><stop offset="0" stop-color="#f7b0b2"></stop><stop offset=".43" stop-color="#f5aeb0"></stop><stop offset=".59" stop-color="#eea8aa"></stop><stop offset=".72" stop-color="#e29da0"></stop><stop offset=".82" stop-color="#d18d92"></stop><stop offset=".9" stop-color="#ba787f"></stop><stop offset=".98" stop-color="#a06069"></stop></radialGradient><radialGradient id="collaborate-63-q-uid-29-uid-65-uid-107" cx="40.77" cy="112.67" r="21.28" gradientTransform="matrix(.87018 -.49273 .28578 .5047 -26.93 75.85)" href="https://www.upwork.com/nx/create-profile/experiencehttps://www.upwork.com/nx/create-profile/experiencehttps://www.upwork.com/nx/create-profile/experience#collaborate-63-b-uid-29-uid-65-uid-107"></radialGradient><radialGradient id="collaborate-63-t-uid-29-uid-65-uid-107" cx="40.68" cy="104.75" r="16.92" gradientTransform="rotate(-26.47 112.868 87.771) scale(1 .68)" href="https://www.upwork.com/nx/create-profile/experiencehttps://www.upwork.com/nx/create-profile/experiencehttps://www.upwork.com/nx/create-profile/experience#collaborate-63-b-uid-29-uid-65-uid-107"></radialGradient><radialGradient id="collaborate-63-v-uid-29-uid-65-uid-107" cx="44.75" cy="110.95" r="42.5" gradientTransform="matrix(1 0 0 .77 0 25.6)" href="https://www.upwork.com/nx/create-profile/experiencehttps://www.upwork.com/nx/create-profile/experiencehttps://www.upwork.com/nx/create-profile/experience#collaborate-63-b-uid-29-uid-65-uid-107"></radialGradient><radialGradient id="collaborate-63-z-uid-29-uid-65-uid-107" cx="34.77" cy="98.8" r="20.75" gradientTransform="matrix(.99974 -.02269 .01202 .52986 -1.17 47.68)" gradientUnits="userSpaceOnUse"><stop offset=".37" stop-color="#a06069"></stop><stop offset="1" stop-color="#a06069" stop-opacity="0"></stop></radialGradient><radialGradient id="collaborate-63-A-uid-29-uid-65-uid-107" cx="77.89" cy="45.81" fx="59.449" fy="29.069" r="24.91" gradientTransform="rotate(-4.87 301.42 36.258) scale(1 .59)" gradientUnits="userSpaceOnUse"><stop offset=".38" stop-color="#6d2b11"></stop><stop offset="1" stop-color="#6d2b11" stop-opacity="0"></stop></radialGradient><radialGradient id="collaborate-63-c-uid-29-uid-65-uid-107" cx="74.73" cy="60.24" r="8.06" gradientUnits="userSpaceOnUse"><stop offset=".43" stop-color="#e4ebe4"></stop><stop offset=".49" stop-color="#e3eae3" stop-opacity=".91"></stop><stop offset=".64" stop-color="#dfe8df" stop-opacity=".68"></stop><stop offset=".84" stop-color="#dae4da" stop-opacity=".32"></stop><stop offset="1" stop-color="#d5e0d5" stop-opacity="0"></stop></radialGradient><radialGradient id="collaborate-63-B-uid-29-uid-65-uid-107" cx="30.3" cy="112.6" r="8.06" href="https://www.upwork.com/nx/create-profile/experiencehttps://www.upwork.com/nx/create-profile/experiencehttps://www.upwork.com/nx/create-profile/experience#collaborate-63-c-uid-29-uid-65-uid-107"></radialGradient><radialGradient id="collaborate-63-d-uid-29-uid-65-uid-107" cx="34.08" cy="112.73" r="8.06" gradientUnits="userSpaceOnUse"><stop offset=".43" stop-color="#e4ebe4"></stop><stop offset=".44" stop-color="#e3eae3" stop-opacity=".91"></stop><stop offset=".48" stop-color="#dfe8df" stop-opacity=".68"></stop><stop offset=".53" stop-color="#dae4da" stop-opacity=".32"></stop><stop offset=".56" stop-color="#d6e1d6" stop-opacity=".04"></stop></radialGradient><radialGradient id="collaborate-63-e-uid-29-uid-65-uid-107" cx="29.73" cy="112.5" r="8.87" gradientUnits="userSpaceOnUse"><stop offset=".59" stop-color="#d6e1d6" stop-opacity=".04"></stop><stop offset=".6" stop-color="#d7e2d7" stop-opacity=".12"></stop><stop offset=".61" stop-color="#dbe4db" stop-opacity=".35"></stop><stop offset=".64" stop-color="#e0e8e0" stop-opacity=".72"></stop><stop offset=".65" stop-color="#e4ebe4"></stop></radialGradient><radialGradient id="collaborate-63-C-uid-29-uid-65-uid-107" cx="78.44" cy="60.43" r="8.06" href="https://www.upwork.com/nx/create-profile/experiencehttps://www.upwork.com/nx/create-profile/experiencehttps://www.upwork.com/nx/create-profile/experience#collaborate-63-d-uid-29-uid-65-uid-107"></radialGradient><radialGradient id="collaborate-63-D-uid-29-uid-65-uid-107" cx="74.09" cy="60.19" r="8.87" href="https://www.upwork.com/nx/create-profile/experiencehttps://www.upwork.com/nx/create-profile/experiencehttps://www.upwork.com/nx/create-profile/experience#collaborate-63-e-uid-29-uid-65-uid-107"></radialGradient><linearGradient id="collaborate-63-f-uid-29-uid-65-uid-107" x1="68.59" y1="69.53" x2="68.59" y2="66.02" gradientUnits="userSpaceOnUse"><stop offset="0" stop-color="#51200f" stop-opacity="0"></stop><stop offset=".22" stop-color="#51200f" stop-opacity=".31"></stop><stop offset=".53" stop-color="#51200f" stop-opacity=".69"></stop><stop offset=".79" stop-color="#51200f" stop-opacity=".92"></stop><stop offset=".98" stop-color="#51200f"></stop></linearGradient><linearGradient id="collaborate-63-h-uid-29-uid-65-uid-107" x1="78.15" y1="53.85" x2="78.15" y2="43.37" href="https://www.upwork.com/nx/create-profile/experiencehttps://www.upwork.com/nx/create-profile/experiencehttps://www.upwork.com/nx/create-profile/experience#collaborate-63-f-uid-29-uid-65-uid-107"></linearGradient><linearGradient id="collaborate-63-j-uid-29-uid-65-uid-107" x1="64.96" y1="68.73" x2="64.96" y2="63.77" href="https://www.upwork.com/nx/create-profile/experiencehttps://www.upwork.com/nx/create-profile/experiencehttps://www.upwork.com/nx/create-profile/experience#collaborate-63-f-uid-29-uid-65-uid-107"></linearGradient><linearGradient id="collaborate-63-k-uid-29-uid-65-uid-107" x1="81.23" y1="54.39" x2="81.23" y2="32.88" href="https://www.upwork.com/nx/create-profile/experiencehttps://www.upwork.com/nx/create-profile/experiencehttps://www.upwork.com/nx/create-profile/experience#collaborate-63-f-uid-29-uid-65-uid-107"></linearGradient><linearGradient id="collaborate-63-m-uid-29-uid-65-uid-107" x1="63.76" y1="67.55" x2="63.76" y2="57.85" href="https://www.upwork.com/nx/create-profile/experiencehttps://www.upwork.com/nx/create-profile/experiencehttps://www.upwork.com/nx/create-profile/experience#collaborate-63-f-uid-29-uid-65-uid-107"></linearGradient><linearGradient id="collaborate-63-n-uid-29-uid-65-uid-107" x1="90.54" y1="39.72" x2="90.54" y2="25.09" href="https://www.upwork.com/nx/create-profile/experiencehttps://www.upwork.com/nx/create-profile/experiencehttps://www.upwork.com/nx/create-profile/experience#collaborate-63-f-uid-29-uid-65-uid-107"></linearGradient><linearGradient id="collaborate-63-p-uid-29-uid-65-uid-107" x1="99.5" y1="32.41" x2="99.5" y2="17.01" href="https://www.upwork.com/nx/create-profile/experiencehttps://www.upwork.com/nx/create-profile/experiencehttps://www.upwork.com/nx/create-profile/experience#collaborate-63-f-uid-29-uid-65-uid-107"></linearGradient><linearGradient id="collaborate-63-g-uid-29-uid-65-uid-107" x1="32.6" y1="122.66" x2="40.17" y2="122.66" gradientUnits="userSpaceOnUse"><stop offset="0" stop-color="#a06069" stop-opacity="0"></stop><stop offset=".03" stop-color="#a06069" stop-opacity=".05"></stop><stop offset=".27" stop-color="#a06069" stop-opacity=".39"></stop><stop offset=".49" stop-color="#a06069" stop-opacity=".65"></stop><stop offset=".69" stop-color="#a06069" stop-opacity=".84"></stop><stop offset=".86" stop-color="#a06069" stop-opacity=".96"></stop><stop offset=".98" stop-color="#a06069"></stop></linearGradient><linearGradient id="collaborate-63-r-uid-29-uid-65-uid-107" x1="25.26" y1="121.11" x2="32.84" y2="121.11" href="https://www.upwork.com/nx/create-profile/experiencehttps://www.upwork.com/nx/create-profile/experiencehttps://www.upwork.com/nx/create-profile/experience#collaborate-63-g-uid-29-uid-65-uid-107"></linearGradient><linearGradient id="collaborate-63-s-uid-29-uid-65-uid-107" x1="38.34" y1="101.39" x2="48.73" y2="101.39" href="https://www.upwork.com/nx/create-profile/experiencehttps://www.upwork.com/nx/create-profile/experiencehttps://www.upwork.com/nx/create-profile/experience#collaborate-63-g-uid-29-uid-65-uid-107"></linearGradient><linearGradient id="collaborate-63-u-uid-29-uid-65-uid-107" x1="28.11" y1="97.19" x2="47.23" y2="97.19" href="https://www.upwork.com/nx/create-profile/experiencehttps://www.upwork.com/nx/create-profile/experiencehttps://www.upwork.com/nx/create-profile/experience#collaborate-63-g-uid-29-uid-65-uid-107"></linearGradient><linearGradient id="collaborate-63-w-uid-29-uid-65-uid-107" x1="41.03" y1="82.88" x2="66.16" y2="82.88" href="https://www.upwork.com/nx/create-profile/experiencehttps://www.upwork.com/nx/create-profile/experiencehttps://www.upwork.com/nx/create-profile/experience#collaborate-63-g-uid-29-uid-65-uid-107"></linearGradient><linearGradient id="collaborate-63-x-uid-29-uid-65-uid-107" x1="-7920.54" y1="600.68" x2="-7915.43" y2="595.57" gradientTransform="matrix(-.99 .13 .13 .99 -7869.65 465.9)" gradientUnits="userSpaceOnUse"><stop offset=".17" stop-color="#194a99"></stop><stop offset=".52" stop-color="#1d53b7"></stop><stop offset=".66" stop-color="#1f57c3"></stop></linearGradient><linearGradient id="collaborate-63-y-uid-29-uid-65-uid-107" x1="-7863.61" y1="657.56" x2="-7858.55" y2="652.5" gradientTransform="matrix(-.99 .13 .13 .99 -7869.65 465.9)" gradientUnits="userSpaceOnUse"><stop offset="0" stop-color="#c3d2c3"></stop><stop offset=".35" stop-color="#e1e8e1"></stop><stop offset=".66" stop-color="#fff"></stop></linearGradient></defs><path d="M10 129.44l113.86-.34a.44.44 0 01.45.45.45.45 0 01-.45.45L10 129.66a.11.11 0 010-.22z" fill="#14a800"></path><path d="M102.35 42.5L93.78 40A19.83 19.83 0 0079 41.55a19.91 19.91 0 00-8.2 8.14l-7.21 13.37a4.6 4.6 0 003 6.66 4.59 4.59 0 005-2.21l4.17-7.32a18.35 18.35 0 0122.29-8.12z" fill="url(#collaborate-63-a-uid-29-uid-65-uid-107)"></path><path d="M70.48 66.79L68.12 66l-2.51 2 .85.69a2.58 2.58 0 012.8.8 4.56 4.56 0 002.31-1.94z" fill="url(#collaborate-63-f-uid-29-uid-65-uid-107)"></path><path d="M82.92 44.78c-3.91 2.95-3.64 8.8-3.64 8.8l-5.48.27s-.44-1.43-.42-1.35 1.77-4 1.77-4l6.64-5.12z" fill="url(#collaborate-63-h-uid-29-uid-65-uid-107)"></path><path d="M98.8 43.62l-7.4-.38a17.3 17.3 0 00-16.24 9.29l-7.83 15a5.07 5.07 0 01-4.87 2.71 5.07 5.07 0 01-4.41-6.74l3.63-10.31 10-18 19.07-9.67 12.41 3.94" fill="url(#collaborate-63-i-uid-29-uid-65-uid-107)"></path><path d="M68.12 66l-.28-.58-2.46-1.67-1 .68-2.54 3a4.74 4.74 0 014.65 1.25 5 5 0 00.87-1.2z" fill="url(#collaborate-63-j-uid-29-uid-65-uid-107)"></path><path d="M82.35 45.26c1.11-2.28 5.86-6.8 8.7-7.51l-4.31-4.87-15.32 12.58.46 8.81 2.3.12 1-1.86a20.36 20.36 0 017.17-7.27z" fill="url(#collaborate-63-k-uid-29-uid-65-uid-107)"></path><path d="M99.91 38.65l-4.4-.65a20.9 20.9 0 00-17.41 5.25 21.09 21.09 0 00-4.69 6.38l-6.79 14.28a6.38 6.38 0 01-7.73 3.33 6.39 6.39 0 01-3.7-9l10.9-21 20.38-8.92h8" fill="url(#collaborate-63-l-uid-29-uid-65-uid-107)"></path><path d="M67.36 61.65l-7.26-3.8c4.41 3 1.47 8.15.43 9.69a6.37 6.37 0 006.09-3.63l.81-1.71z" fill="url(#collaborate-63-m-uid-29-uid-65-uid-107)"></path><path d="M81.89 32.9l2.52 6.82a21.22 21.22 0 014.11-1.67c1.31-3.2 8.4-4.61 8.4-4.61l2.26-3.61-8.46-4.74-1.87.1z" fill="url(#collaborate-63-n-uid-29-uid-65-uid-107)"></path><path d="M125.22 32.82L111.47 23a34.46 34.46 0 00-33.09-3.84 35.76 35.76 0 00-19.46 19.39l-4.25 10.27a7.06 7.06 0 005.91 9.73 7.07 7.07 0 007.17-4.42 53.87 53.87 0 0112.76-18.94l.1-.11a11.66 11.66 0 0110.38-3A9.14 9.14 0 0198.09 43a9.14 9.14 0 01-8 7.09L86.52 72l18.13 4.75a24.36 24.36 0 0028-12.83l.27-.55a24.35 24.35 0 00-7.7-30.55z" fill="url(#collaborate-63-o-uid-29-uid-65-uid-107)"></path><path d="M111.47 23a34.42 34.42 0 00-14.73-6l-5.41 7.27-3.8 7.49v.12a11.55 11.55 0 013.41.18 8.39 8.39 0 011.24.34c1.25-4.65 12.07-14.54 19.29-9.4z" fill="url(#collaborate-63-p-uid-29-uid-65-uid-107)"></path><path d="M28.43 107.87l1.41 13a5.21 5.21 0 003.82 4.46 5.2 5.2 0 006.52-5.5l-.61-6.71z" fill="url(#collaborate-63-b-uid-29-uid-65-uid-107)"></path><path d="M39.68 120l-7.08 1.11a4.62 4.62 0 013.8 4.2 5.22 5.22 0 003.77-4.42z" fill="url(#collaborate-63-g-uid-29-uid-65-uid-107)"></path><path d="M57.43 100.89l-10.86 2.73a20.43 20.43 0 00-9.15 5.08 14.35 14.35 0 00-4.36 9.4 5.56 5.56 0 01-5.68 5.2 5.55 5.55 0 01-5.38-5.94 18.23 18.23 0 015.58-12 43 43 0 0120.28-10.9l3.63-.82" fill="url(#collaborate-63-q-uid-29-uid-65-uid-107)"></path><path d="M32.84 119.33l-.91-.26h-6.67c3 1.3 3.6 2.67 3.57 4.07a5.59 5.59 0 004.01-3.81z" fill="url(#collaborate-63-r-uid-29-uid-65-uid-107)"></path><path d="M48.73 98.62c-5.81 3.18-4.45 6.33-4.45 6.33l-2.22.85h-3.61l-.11-3.59L47.23 97z" fill="url(#collaborate-63-s-uid-29-uid-65-uid-107)"></path><path d="M40.69 87.09L27.54 97.63a5.27 5.27 0 00-1.23 1.43 5.14 5.14 0 004.21 7.72l1.62.07a5.19 5.19 0 002.7-.62l14.38-7.87a6.83 6.83 0 002.24-10 6.81 6.81 0 00-5.86-2.8h-1a6.81 6.81 0 00-3.91 1.53z" fill="url(#collaborate-63-t-uid-29-uid-65-uid-107)"></path><path d="M35.05 95.54l-6.94 10.15.27.52a5.14 5.14 0 002.14.57l1.62.07a5.19 5.19 0 002.7-.62l4.84-2.66a28 28 0 017.55-13.24l-4.39-2.8z" fill="url(#collaborate-63-u-uid-29-uid-65-uid-107)"></path><path d="M43.42 104a7.3 7.3 0 007.3-7.14 6.58 6.58 0 00-8.9-6.3A16.9 16.9 0 0031.42 102l-2.76 10.22a6.9 6.9 0 01-7.72 5A6 6 0 0116 110l1.79-8.23A33.61 33.61 0 0142.3 76.38a33.67 33.67 0 0120.89 1.38l12.68 5.11a21 21 0 0112.94 22.39 21 21 0 01-16.17 17.54 75.16 75.16 0 01-30.17.6" fill="url(#collaborate-63-v-uid-29-uid-65-uid-107)"></path><path d="M66.16 79l-3-1.2a33.65 33.65 0 00-14.31-2.38L41 89.55l1 .88a6.59 6.59 0 014-.09C48.31 85 56.46 75.05 66.16 79z" fill="url(#collaborate-63-w-uid-29-uid-65-uid-107)"></path><path d="M15.2 128.2a.65.65 0 00.35-.24l95.64-123.4c.35-.44-.65-1.79-2.23-3S105.83-.3 105.49.14L40.55 83.93l-30.7 39.61a.73.73 0 00-.15.4" fill="url(#collaborate-63-x-uid-29-uid-65-uid-107)"></path><path d="M9.7 123.94a.79.79 0 01.05-.22h1.06a.56.56 0 01.57.43l.13.62a.56.56 0 00.57.44h.63a.56.56 0 01.57.44l.13.62a.57.57 0 00.57.44h.63a.57.57 0 01.57.44l.23 1a1 1 0 01-.21.1l-5.09 1.44a.41.41 0 01-.53-.41z" fill="url(#collaborate-63-y-uid-29-uid-65-uid-107)"></path><path d="M10.42 128.69a2.18 2.18 0 01.6.7l-.91.25a.41.41 0 01-.53-.41v-.95a2.34 2.34 0 01.84.41z" fill="#14a800"></path><path d="M42.47 123.4q-2.27-.41-4.5-1L27 119.72a8.21 8.21 0 01-6.21-8.65 7.77 7.77 0 017.77-7.07h14.86l2.19 2v15.3z" fill="#f7b0b2"></path><path d="M75.87 82.87l-12.68-5.11a34.58 34.58 0 00-4.36-1.41L47 90.72a6.58 6.58 0 013.76 6.09 7.3 7.3 0 01-6.9 7.13h-15.3a7.77 7.77 0 00-7.75 7.12 8.21 8.21 0 006.19 8.66l11 2.72q2.23.56 4.5 1a75.16 75.16 0 0030.17-.6 21 21 0 0016.17-17.54 21 21 0 00-12.97-22.43z" fill="url(#collaborate-63-z-uid-29-uid-65-uid-107)"></path><path d="M86.52 72l-16.45-4.33a7.94 7.94 0 01-5.81-9.05 7.94 7.94 0 017-6.53l18.88-2 2.76 1.8-.3 17.28z" fill="#bc5118"></path><path d="M125.22 32.82L111.47 23a34.26 34.26 0 00-7-3.87L93.32 32.88A9.12 9.12 0 0198.09 43a9.14 9.14 0 01-8 7.09l-18.88 2a7.94 7.94 0 00-7 6.53 7.94 7.94 0 005.81 9.05L86.52 72l18.13 4.75a24.36 24.36 0 0028-12.83l.27-.55a24.35 24.35 0 00-7.7-30.55z" fill="url(#collaborate-63-A-uid-29-uid-65-uid-107)"></path><circle cx="72.28" cy="60.14" r="5.14" fill="url(#collaborate-63-c-uid-29-uid-65-uid-107)" opacity=".5"></circle><circle cx="27.92" cy="112.45" r="5.14" fill="url(#collaborate-63-B-uid-29-uid-65-uid-107)" opacity=".5"></circle><circle cx="27.92" cy="112.45" r="5.14" fill="url(#collaborate-63-d-uid-29-uid-65-uid-107)" opacity=".5"></circle><circle cx="27.92" cy="112.45" r="5.14" fill="url(#collaborate-63-e-uid-29-uid-65-uid-107)" opacity=".5"></circle><circle cx="72.28" cy="60.14" r="5.14" fill="url(#collaborate-63-C-uid-29-uid-65-uid-107)" opacity=".5"></circle><circle cx="72.28" cy="60.14" r="5.14" fill="url(#collaborate-63-D-uid-29-uid-65-uid-107)" opacity=".5"></circle></svg>