<svg xmlns="http://www.w3.org/2000/svg" viewBox="0 0 145 130" aria-hidden="true" role="img"><linearGradient id="talent-sourcing-277-a-uid-18-uid-54-uid-96" gradientUnits="userSpaceOnUse" x1="25.188" y1="1.258" x2="134.893" y2="1.258" gradientTransform="matrix(1 0 0 -1 .006 129.994)"><stop offset="0" stop-color="#c5d1c3" stop-opacity="0"></stop><stop offset="0" stop-color="#c5d1c3" stop-opacity=".05"></stop><stop offset=".03" stop-color="#c5d1c3" stop-opacity=".3"></stop><stop offset=".06" stop-color="#c5d1c3" stop-opacity=".51"></stop><stop offset=".08" stop-color="#c5d1c3" stop-opacity=".69"></stop><stop offset=".11" stop-color="#c5d1c3" stop-opacity=".83"></stop><stop offset=".14" stop-color="#c5d1c3" stop-opacity=".92"></stop><stop offset=".16" stop-color="#c5d1c3" stop-opacity=".98"></stop><stop offset=".19" stop-color="#c5d1c3"></stop><stop offset=".29" stop-color="#c5d1c3"></stop><stop offset=".88" stop-color="#c5d1c3"></stop><stop offset=".9" stop-color="#c5d1c3" stop-opacity=".78"></stop><stop offset=".97" stop-color="#c5d1c3" stop-opacity=".23"></stop><stop offset="1" stop-color="#c5d1c3" stop-opacity=".01"></stop></linearGradient><path d="M133.6 130H26.5c-.7 0-1.3-.6-1.3-1.3 0-.7.6-1.3 1.3-1.3h107.2c.7 0 1.3.6 1.3 1.3-.1.7-.7 1.3-1.4 1.3z" fill="url(#talent-sourcing-277-a-uid-18-uid-54-uid-96)"></path><linearGradient id="talent-sourcing-277-b-uid-18-uid-54-uid-96" gradientUnits="userSpaceOnUse" x1="-17468.809" y1="-.006" x2="-17468.809" y2="129.994" gradientTransform="matrix(1 0 0 -1 17558.688 129.994)"><stop offset="0" stop-color="#0d3a35"></stop><stop offset=".55" stop-color="#13544e"></stop><stop offset="1" stop-color="#0d3b36"></stop></linearGradient><path d="M113.8 130h-48c-3.7 0-6.6-3.3-6.6-7.5V7.5c0-4.1 3-7.5 6.6-7.5h48c3.7 0 6.6 3.3 6.6 7.5v115.1c0 4.1-3 7.4-6.6 7.4z" fill="url(#talent-sourcing-277-b-uid-18-uid-54-uid-96)"></path><path d="M107.6 130H61.7c-3.7 0-6.6-3.3-6.6-7.5V7.5C55 3.3 58 0 61.7 0h45.9c3.7 0 6.6 3.3 6.6 7.5v115.1c0 4.1-3 7.4-6.6 7.4z" fill="#13544e"></path><ellipse cx="84.6" cy="120.7" rx="4.8" ry="5.5" fill="#092622"></ellipse><rect x="55" y="11.9" width="59.2" height="100.4" fill="#e4ebe4"></rect><path d="M92.3 7.3H77c-.7 0-1.2-.6-1.2-1.3 0-.7.5-1.3 1.2-1.3h15.3c.7 0 1.2.6 1.2 1.3 0 .7-.6 1.3-1.2 1.3z" fill="#092622"></path><path d="M117.6 12.6c-.5 0-.8.4-.8.8v6.9h1.7v-6.9l-.2-.8h-.7z" fill="#65735b"></path><path d="M118.5 19.5h-1.7v6.9c0 .5.4.8.8.8h.6v-.3c.1-.1.2-.3.2-.5l.1-6.9z" fill="#65735b"></path><path d="M119.1 20.3h-1.7v-6.9c0-.5.4-.8.8-.8.5 0 .8.4.8.8l.1 6.9z" fill="#c3d2c3"></path><path d="M119.1 19.5h-1.7v6.9c0 .5.4.8.8.8.5 0 .8-.4.8-.8l.1-6.9z" fill="#c3d2c3"></path><rect x="116.8" y="19.4" width="2.3" height=".3" fill="#65735b"></rect><path d="M68.4 39.5c-4.7 0-9.4 1.4-13.4 3.9v41.3c11.4 7.4 26.6 4.1 34-7.3 7.4-11.4 4.1-26.6-7.3-34-4-2.5-8.6-3.9-13.3-3.9z" fill="#d5e0d5"></path><linearGradient id="talent-sourcing-277-c-uid-18-uid-54-uid-96" gradientUnits="userSpaceOnUse" x1="-14661.425" y1="9174.882" x2="-14652.1" y2="9184.208" gradientTransform="matrix(0 1 1 0 -9150.202 14751.516)"><stop offset="0" stop-color="#bc5118"></stop><stop offset=".24" stop-color="#b84f18"></stop><stop offset=".46" stop-color="#ad4a17"></stop><stop offset=".67" stop-color="#9b4115"></stop><stop offset=".88" stop-color="#813413"></stop><stop offset="1" stop-color="#6d2b11"></stop></linearGradient><path d="M48.5 79.3c-.9-1.7-2.4-3.1-4.1-4.1-.3-.2-.8-.2-1.1.1L19.5 95.5c-3 2.5-5.7 5.4-8.1 8.5-1.9 2.5-1.7 6 .5 8.3 2.2 2.2 5.7 2.4 8.2.5 3.1-2.4 5.9-5.2 8.4-8.2l20-24.1c.2-.4.2-.8 0-1.2z" fill="url(#talent-sourcing-277-c-uid-18-uid-54-uid-96)"></path><path d="M48.4 80.4c.3-.3.3-.7.1-1.1-.9-1.7-2.4-3.1-4.1-4.1-.3-.2-.8-.2-1.1.1l-2 1.7-.7.6c.9-.7 8.6 1.8 6.5 4.4l1.3-1.6z" fill="#6d2b11"></path><radialGradient id="talent-sourcing-277-d-uid-18-uid-54-uid-96" cx="-8433.649" cy="-9561.641" r="12.74" fx="-8440.48" fy="-9561.641" gradientTransform="matrix(-.96 -.97 -.4 .4 -11860.67 -4282.827)" gradientUnits="userSpaceOnUse"><stop offset="0" stop-color="#ad8d05"></stop><stop offset=".26" stop-color="#af8e08"></stop><stop offset=".43" stop-color="#b49311"></stop><stop offset=".58" stop-color="#be9b20"></stop><stop offset=".7" stop-color="#caa533"></stop><stop offset=".77" stop-color="#d1ab3f"></stop><stop offset=".89" stop-color="#e5bb5d"></stop><stop offset="1" stop-color="#fccd81"></stop></radialGradient><path d="M47.3 71.6l5 5c1.1 1.2 1.1 3 0 4.2l-.2.2c-1.1 1.1-3 1.2-4.1 0l-5-5c-1.1-1.2-1.1-3 0-4.2l.2-.2c1.1-1.1 2.9-1.1 4.1 0z" fill="url(#talent-sourcing-277-d-uid-18-uid-54-uid-96)"></path><path d="M68.3 32.9h-3.8c-13.6 0-24.7 11-24.7 24.7 0 13.6 11 24.6 24.7 24.7h3.8c13.6 0 24.7-11 24.7-24.7S81.9 32.9 68.3 32.9z" fill="#14a800"></path><linearGradient id="talent-sourcing-277-e-uid-18-uid-54-uid-96" gradientUnits="userSpaceOnUse" x1="78.755" y1="47.803" x2="78.755" y2="97.113" gradientTransform="matrix(1 0 0 -1 .006 129.994)"><stop offset=".42" stop-color="#126b00"></stop><stop offset=".44" stop-color="#126f00"></stop><stop offset=".64" stop-color="#138e00"></stop><stop offset=".81" stop-color="#14a100"></stop><stop offset=".93" stop-color="#14a800"></stop></linearGradient><path d="M64.5 82.2c13.6 0 24.7-11 24.7-24.7 0-13.6-11-24.6-24.7-24.7h3.8c13.6 0 24.7 11 24.7 24.7S82 82.2 68.3 82.2h-3.8z" fill="url(#talent-sourcing-277-e-uid-18-uid-54-uid-96)"></path><path d="M79.8 42.3c8.4 8.4 8.4 22.1 0 30.5s-22.1 8.4-30.5 0-8.4-22.1 0-30.5c8.4-8.5 22.1-8.5 30.5 0z" fill="#f2f7f2"></path><circle cx="64.5" cy="57.5" r="21.6" fill="none"></circle><linearGradient id="talent-sourcing-277-f-uid-18-uid-54-uid-96" gradientUnits="userSpaceOnUse" x1="49.281" y1="87.718" x2="79.801" y2="57.198" gradientTransform="matrix(1 0 0 -1 .006 129.994)"><stop offset="0" stop-color="#01cdbe" stop-opacity=".5"></stop><stop offset=".05" stop-color="#01cdbe" stop-opacity=".51"></stop><stop offset=".08" stop-color="#01cdbe" stop-opacity=".56"></stop><stop offset=".11" stop-color="#01cdbe" stop-opacity=".63"></stop><stop offset=".13" stop-color="#01cdbe" stop-opacity=".73"></stop><stop offset=".15" stop-color="#01cdbe" stop-opacity=".86"></stop><stop offset=".17" stop-color="#01cdbe"></stop><stop offset=".18" stop-color="#01cdbe" stop-opacity=".97"></stop><stop offset=".28" stop-color="#01cdbe" stop-opacity=".77"></stop><stop offset=".38" stop-color="#01cdbe" stop-opacity=".62"></stop><stop offset=".46" stop-color="#01cdbe" stop-opacity=".53"></stop><stop offset=".51" stop-color="#01cdbe" stop-opacity=".5"></stop><stop offset=".63" stop-color="#01cdbe" stop-opacity=".51"></stop><stop offset=".71" stop-color="#01cdbe" stop-opacity=".56"></stop><stop offset=".78" stop-color="#01cdbe" stop-opacity=".63"></stop><stop offset=".84" stop-color="#01cdbe" stop-opacity=".73"></stop><stop offset=".89" stop-color="#01cdbe" stop-opacity=".86"></stop><stop offset=".93" stop-color="#01cdbe"></stop></linearGradient><circle cx="64.5" cy="57.5" r="21.6" opacity=".35" fill="url(#talent-sourcing-277-f-uid-18-uid-54-uid-96)"></circle><radialGradient id="talent-sourcing-277-g-uid-18-uid-54-uid-96" cx="359.075" cy="-141.606" r="38.88" gradientTransform="matrix(.96 0 0 -.96 -289.197 -83.757)" gradientUnits="userSpaceOnUse"><stop offset="0" stop-color="#01cdbe" stop-opacity="0"></stop><stop offset="1" stop-color="#01cdbe"></stop></radialGradient><circle cx="64.5" cy="57.5" r="21.6" opacity=".3" fill="url(#talent-sourcing-277-g-uid-18-uid-54-uid-96)"></circle><linearGradient id="talent-sourcing-277-h-uid-18-uid-54-uid-96" gradientUnits="userSpaceOnUse" x1="59.567" y1="71.723" x2="69.514" y2="71.723" gradientTransform="matrix(1 0 0 -1 .006 129.994)"><stop offset=".52" stop-color="#9b8084"></stop><stop offset=".61" stop-color="#947b79"></stop><stop offset=".77" stop-color="#836d5b"></stop><stop offset=".99" stop-color="#66572c"></stop><stop offset="1" stop-color="#645528"></stop></linearGradient><polygon points="69.5,61.5 68.6,55.1 60.5,55.1 59.6,61.5" fill="url(#talent-sourcing-277-h-uid-18-uid-54-uid-96)"></polygon><path d="M64.5 59c2.5 0 4.8 1.3 4.8 1.3l-.3-2.5h-5.1l.6 1.2z" fill="#67541f"></path><radialGradient id="talent-sourcing-277-i-uid-18-uid-54-uid-96" cx="62.549" cy="82.49" r="10.314" gradientTransform="matrix(1 0 0 -1 .006 129.994)" gradientUnits="userSpaceOnUse"><stop offset=".68" stop-color="#9b8084"></stop><stop offset=".76" stop-color="#8f766f"></stop><stop offset=".94" stop-color="#6f5d3a"></stop><stop offset="1" stop-color="#645528"></stop></radialGradient><path d="M59.5 57.4c.1 0 .1.1.2.2 3 2 7 2 9.9-.1 3.9-2.8 4.8-8.2 2-12.1-2.8-3.9-8.2-4.8-12.1-2-3.9 2.8-4.8 8.2-2 12.1.5.7 1.2 1.4 2 1.9z" fill="url(#talent-sourcing-277-i-uid-18-uid-54-uid-96)"></path><radialGradient id="talent-sourcing-277-j-uid-18-uid-54-uid-96" cx="63.342" cy="70.329" r="26.137" gradientTransform="matrix(1 0 0 -1 .006 129.994)" gradientUnits="userSpaceOnUse"><stop offset=".68" stop-color="#bda1e7"></stop><stop offset=".77" stop-color="#ab92d2"></stop><stop offset=".97" stop-color="#7d6b9d"></stop><stop offset="1" stop-color="#746493"></stop></radialGradient><path d="M83.1 64c-1.8-2.7-4.8-4.3-8.1-4.3-.9 0-1.7.1-2.6.3l-2.3.6c-3.7 1-7.6 1-11.3 0l-2.2-.6c-.8-.2-1.7-.3-2.6-.3-3.2 0-6.3 1.6-8.1 4.3-.5.7-.9 1.5-1.2 2.3 4.8 10.9 17.6 15.8 28.5 11 4.9-2.2 8.8-6.1 11-11-.2-.8-.6-1.6-1.1-2.3z" fill="url(#talent-sourcing-277-j-uid-18-uid-54-uid-96)"></path><radialGradient id="talent-sourcing-277-k-uid-18-uid-54-uid-96" cx="59.439" cy="79.847" r="32.579" gradientTransform="matrix(1 0 0 -1 .006 129.994)" gradientUnits="userSpaceOnUse"><stop offset="0" stop-color="#01cdbe" stop-opacity="0"></stop><stop offset="1" stop-color="#01cdbe"></stop></radialGradient><path d="M64.5 36c-6.1 0-12 2.6-16.1 7.2 8.9-8 22.5-7.2 30.5 1.6 7.4 8.2 7.4 20.6 0 28.9 8.9-7.9 9.6-21.6 1.7-30.5-4.1-4.6-9.9-7.2-16.1-7.2z" opacity=".3" fill="url(#talent-sourcing-277-k-uid-18-uid-54-uid-96)"></path><linearGradient id="talent-sourcing-277-l-uid-18-uid-54-uid-96" gradientUnits="userSpaceOnUse" x1="54.197" y1="50.87" x2="54.197" y2="94.046" gradientTransform="matrix(1 0 0 -1 .006 129.994)"><stop offset=".42" stop-color="#14a800"></stop><stop offset=".44" stop-color="#14a400"></stop><stop offset=".64" stop-color="#138500"></stop><stop offset=".81" stop-color="#127200"></stop><stop offset=".93" stop-color="#126b00"></stop></linearGradient><path d="M44.8 57.5c0-11.6 9.1-21.1 20.7-21.6h-.9c-12 0-21.6 9.7-21.6 21.6s9.7 21.6 21.6 21.6h.9c-11.6-.5-20.7-10-20.7-21.6z" fill="url(#talent-sourcing-277-l-uid-18-uid-54-uid-96)"></path></svg>