<svg fill="none" xmlns="http://www.w3.org/2000/svg" viewBox="0 0 145 130" aria-hidden="true" role="img"><g clip-path="url(#clip0_29534_46565)"><path d="M127.866 105.938H2.409c-1.405 0-2.409-1-2.409-2.399v1.799c0 1.399 1.204 2.399 2.409 2.399h125.256c1.405 0 2.409-1.2 2.409-2.399v-1.799c.201 1.399-.803 2.399-2.208 2.399z" fill="#9CA898"></path><path d="M127.866 105.938c1.405 0 2.409-1.199 2.409-2.398V6.798c0-1.599-1.205-2.798-2.61-2.798H2.61C1.204 4 0 5.2 0 6.798v96.742c0 1.399 1.204 2.398 2.409 2.398h125.457z" fill="url(#paint0_linear_29534_46565-uid-5)"></path><path d="M127.665 4H2.61C1.204 4 0 5.2 0 6.598v3.998h130.275V6.598c0-1.399-1.205-2.598-2.61-2.598z" fill="#C5D1C3"></path><path d="M108.355 19.014H32.88c-1.004 0-1.807.8-1.807 1.799v29.182c0 1 .803 1.799 1.807 1.799h15.255c.803 0 1.406.6 1.406 1.399v.4c-.803 2.398-2.008 4.797-3.814 6.795v.4h.2c3.814-1.799 6.825-4.597 8.833-8.395.2-.4.803-.8 1.204-.8h52.19a1.795 1.795 0 001.807-1.798V20.613c.201-.8-.602-1.6-1.606-1.6z" fill="#C3D2C3"></path><path d="M107.752 18.193H32.277c-1.003 0-1.806.8-1.806 1.8v29.182c0 .999.803 1.798 1.806 1.798h15.256c.803 0 1.405.6 1.405 1.4v.4c-.803 2.398-2.007 4.796-3.814 6.795v.4h.2c3.815-1.799 6.826-4.597 8.833-8.395.2-.4.803-.8 1.204-.8h52.191a1.795 1.795 0 001.806-1.798V19.992c0-1-.803-1.799-1.606-1.799z" fill="#fff"></path><path d="M101.529 28.988h-63.03c-.401 0-.803-.4-.803-.8s.402-.8.803-.8h63.03c.401 0 .803.4.803.8-.201.6-.402.8-.803.8zm0 5.994h-63.03c-.401 0-.803-.4-.803-.8s.402-.8.803-.8h63.03c.401 0 .803.4.803.8-.201.4-.402.8-.803.8zM79.047 40.98H38.299c-.402 0-.603-.2-.603-.6v-.2c0-.4.201-.6.602-.6h40.749c.401 0 .602.2.602.6 0 .4-.2.8-.602.8z" fill="#14A800"></path><path d="M9.635 7.4c0 .799-.603 1.398-1.406 1.398-.803 0-1.405-.6-1.405-1.399 0-.8.602-1.4 1.405-1.4.803-.2 1.406.6 1.406 1.4z" fill="url(#paint1_radial_29534_46565-uid-5)"></path><path d="M5.22 7.4c0 .799-.603 1.398-1.406 1.398-.803 0-1.405-.6-1.405-1.399 0-.8.602-1.4 1.405-1.4.603-.2 1.406.6 1.406 1.4z" fill="url(#paint2_radial_29534_46565-uid-5)"></path><path d="M28.584 94.284c9.234 0 16.721-7.455 16.721-16.65 0-9.194-7.487-16.65-16.72-16.65-9.234 0-16.722 7.456-16.722 16.65 0 9.195 7.488 16.65 16.721 16.65z" fill="#C3D2C3"></path><path d="M32.378 80.652l-.602-4.998h-6.384l-.602 4.998h7.608-.02z" fill="url(#paint3_linear_29534_46565-uid-5)"></path><path d="M24.63 77.475c.107.107.107.107 0 0 2.429 1.66 5.48 1.66 7.909 0 3.03-2.118 3.653-6.356 1.525-9.374-2.128-3.018-6.383-3.638-9.414-1.52-3.031 2.12-3.653 6.357-1.526 9.375.462.6.904 1.22 1.526 1.52h-.02z" fill="url(#paint4_radial_29534_46565-uid-5)"></path><path d="M43.017 82.63c-1.365-2.118-3.794-3.337-6.223-3.337-.602 0-1.365.16-1.967.3l-1.826.46c-2.89.759-5.922.759-8.672 0l-1.827-.46c-.602-.16-1.365-.3-1.967-.3-2.59 0-4.858 1.22-6.223 3.338-.3.6-.602 1.22-.903 1.819 3.794 8.475 13.67 12.252 22.04 8.475a16.578 16.578 0 008.512-8.475c-.302-.76-.603-1.36-.904-1.82h-.04z" fill="url(#paint5_radial_29534_46565-uid-5)"></path><path d="M127.865 105.938H82.099c.12.599.28 1.199.441 1.799h45.125c1.405 0 2.409-1.2 2.409-2.399v-1.799c.2 1.399-.803 2.399-2.209 2.399z" fill="#65735B"></path><path d="M110.101 60.026c-.803-.8-1.606-.8-2.208-.2-6.022 6.996-16.26 8.795-24.289 4.197-.602-.4-1.405-.2-1.807.4-.2.2-.2.4-.2.6V100.8c0 1.739.18 3.458.502 5.137h45.766c1.405 0 2.409-1.199 2.409-2.399V65.962c-7.166 2.119-15.155-.08-20.193-5.936h.02z" fill="#C3D2C3"></path><path d="M144.593 62.258l-2.194-2.019-.599.81-.204 1.814c-7.793 3.627-17.191 1.608-22.79-5.042-.396-.605-1.199-.605-1.798-.206l-.204.206c-5.994 7.061-16.197 8.875-24.18 4.232-.6-.4-1.403-.206-1.8.604-.203.206-.203.4-.203.605v36.091c0 10.882 6.594 20.76 16.796 24.593 19.385 7.255 37.584-7.061 37.584-25.403V63.274c0-.399-.204-.81-.396-1.004l-.012-.012z" fill="url(#paint6_linear_29534_46565-uid-5)"></path><path d="M114.61 55.415c-5.995 7.049-16.185 8.863-24.181 4.232-.6-.4-1.403-.206-1.798.399-.204.205-.204.399-.204.604v36.092c0 10.881 6.593 20.76 16.796 24.592 19.385 7.255 37.583-7.061 37.583-25.403V60.856c0-.81-.599-1.21-1.199-1.21-.203 0-.395 0-.599.206-7.996 4.631-18.186 2.817-24.181-4.232-.803-.81-1.594-.81-2.194-.205 0-.206 0 0 0 0h-.023z" fill="url(#paint7_linear_29534_46565-uid-5)"></path><path d="M115.557 119.63c-3.021 0-6.078-.568-9.087-1.692-8.644-3.241-14.447-11.765-14.447-21.196V64.4a22.602 22.602 0 007.925 1.44 22.83 22.83 0 0015.669-6.228 22.787 22.787 0 0015.872 6.433c2.638 0 5.251-.46 7.721-1.367v31.267c0 13.071-10.598 23.699-23.641 23.699l-.012-.013z" fill="url(#paint8_linear_29534_46565-uid-5)"></path><path d="M93.618 98.181V65.838a22.603 22.603 0 007.925 1.439 22.827 22.827 0 0015.668-6.227 22.789 22.789 0 0015.873 6.433c2.074 0 4.136-.303 6.114-.859v-1.947a22.678 22.678 0 01-7.72 1.367 22.787 22.787 0 01-15.873-6.433 22.774 22.774 0 01-15.669 6.227c-2.71 0-5.395-.496-7.924-1.439v32.344c0 7.012 3.213 13.505 8.404 17.725a22.893 22.893 0 01-6.81-16.275l.012-.012z" fill="#CE7E3C"></path><path d="M128 77.782c-5.203 0-7.996 3.422-8.8 6.856-.995-1.814-1.594-4.026-2.194-6.251l-1.198-1.21v1.21h-5.803v8.874c0 3.229-1.402 5.647-4.4 5.647-2.793 0-4.399-2.418-4.399-5.647v-8.874l-1.199-1.21v1.21H97.01v8.874c0 2.624.803 5.042 2.397 6.65 1.595 1.814 3.801 2.624 6.198 2.624 5 0 8.392-3.833 8.392-9.273v-6.046c.6 2.02 1.799 5.647 3.993 9.068l-1.595 10.483-1.594 1.004 1.198 1.209h4.196l1.403-8.875c.396.399.995.81 1.595 1.004 1.402.81 2.997 1.414 4.591 1.414h.396c4.999 0 9.195-4.026 9.195-9.274-.204-5.44-4.196-9.479-9.399-9.479l.024.012zm0 15.114c-3.201 0-5.203-2.418-5.803-3.422.804-6.045 2.998-7.859 5.803-7.859 2.805 0 4.999 2.213 4.999 5.647 0 3.433-2.002 5.646-4.999 5.646v-.012z" fill="#CE7E3C"></path><path d="M126.801 91.7c-3.201 0-5.203-2.419-5.802-3.422.803-6.046 2.997-7.86 5.802-7.86 2.805 0 4.999 2.213 4.999 5.647.204 3.228-2.002 5.647-4.999 5.647v-.013zm0-15.114c-5.203 0-7.996 3.422-8.8 6.856-.995-1.814-1.594-4.027-2.193-6.251h-7.002v8.874c0 3.228-1.402 5.647-4.399 5.647-2.998 0-4.4-2.419-4.4-5.647v-8.874h-3.992v8.874c0 2.624.803 5.042 2.397 6.65 1.595 1.814 3.801 2.624 6.198 2.624 5 0 8.392-3.833 8.392-9.274V80.02c.6 2.019 1.799 5.646 3.992 9.068l-2.193 12.502h4.195l1.403-8.875c.396.4.995.81 1.595 1.004 1.402.81 2.997 1.414 4.591 1.414h.396c4.999 0 9.195-4.026 9.195-9.273 0-5.248-4.196-9.274-9.399-9.274h.024z" fill="#FCCD81"></path></g><defs><linearGradient id="paint0_linear_29534_46565-uid-5" x1="65.137" y1="105.938" x2="65.137" y2="4" gradientUnits="userSpaceOnUse"><stop stop-color="#E4EBE4"></stop><stop offset=".61" stop-color="#E2E9E2"></stop><stop offset=".89" stop-color="#DBE4DB"></stop><stop offset="1" stop-color="#D5E0D5"></stop></linearGradient><linearGradient id="paint3_linear_29534_46565-uid-5" x1="24.75" y1="78.173" x2="32.459" y2="78.173" gradientUnits="userSpaceOnUse"><stop offset=".52" stop-color="#F7B0B2"></stop><stop offset=".64" stop-color="#EEA5A8"></stop><stop offset=".86" stop-color="#D5878D"></stop><stop offset="1" stop-color="#C17078"></stop></linearGradient><linearGradient id="paint6_linear_29534_46565-uid-5" x1="117.811" y1="125.868" x2="117.811" y2="57.458" gradientUnits="userSpaceOnUse"><stop stop-color="#FCCD81"></stop><stop offset=".13" stop-color="#F8C174"></stop><stop offset=".46" stop-color="#F1A95B"></stop><stop offset=".76" stop-color="#ED9A4B"></stop><stop offset=".99" stop-color="#EB9546"></stop></linearGradient><linearGradient id="paint7_linear_29534_46565-uid-5" x1="90.117" y1="109.401" x2="141.284" y2="58.68" gradientUnits="userSpaceOnUse"><stop offset=".06" stop-color="#EB9546"></stop><stop offset=".69" stop-color="#FCCD81"></stop></linearGradient><linearGradient id="paint8_linear_29534_46565-uid-5" x1="93.342" y1="107.503" x2="137.932" y2="63.292" gradientUnits="userSpaceOnUse"><stop stop-color="#EB9546"></stop><stop offset=".5" stop-color="#EC9748"></stop><stop offset=".68" stop-color="#ED9D4F"></stop><stop offset=".8" stop-color="#F1A85A"></stop><stop offset=".91" stop-color="#F6B86B"></stop><stop offset=".99" stop-color="#FCCD81"></stop></linearGradient><radialGradient id="paint1_radial_29534_46565-uid-5" cx="0" cy="0" r="1" gradientUnits="userSpaceOnUse" gradientTransform="matrix(3.18682 0 0 96.9106 9.56 8.781)"><stop stop-color="#4EA42F"></stop><stop offset=".34" stop-color="#4DA12E"></stop><stop offset=".56" stop-color="#48982B"></stop><stop offset=".76" stop-color="#418926"></stop><stop offset=".93" stop-color="#36741F"></stop><stop offset="1" stop-color="#31691B"></stop></radialGradient><radialGradient id="paint2_radial_29534_46565-uid-5" cx="0" cy="0" r="1" gradientUnits="userSpaceOnUse" gradientTransform="matrix(1.5934 .7967 -.79332 1.58663 3.984 7.984)"><stop stop-color="#5DC9BD"></stop><stop offset=".27" stop-color="#5CC6BD"></stop><stop offset=".45" stop-color="#58BDBD"></stop><stop offset=".6" stop-color="#52AEBD"></stop><stop offset=".73" stop-color="#4A99BC"></stop><stop offset=".86" stop-color="#3F7DBC"></stop><stop offset=".98" stop-color="#315CBB"></stop><stop offset="1" stop-color="#2F56BB"></stop></radialGradient><radialGradient id="paint4_radial_29534_46565-uid-5" cx="0" cy="0" r="1" gradientUnits="userSpaceOnUse" gradientTransform="rotate(81.007 -27.366 49.186) scale(10.9702 10.9236)"><stop offset=".68" stop-color="#F7B0B2"></stop><stop offset=".8" stop-color="#E69B9F"></stop><stop offset="1" stop-color="#C17078"></stop></radialGradient><radialGradient id="paint5_radial_29534_46565-uid-5" cx="0" cy="0" r="1" gradientUnits="userSpaceOnUse" gradientTransform="matrix(0 25.8908 -25.7808 0 28.68 72.111)"><stop offset=".68" stop-color="#1F57C3"></stop><stop offset=".77" stop-color="#1C50AE"></stop><stop offset=".97" stop-color="#143C79"></stop><stop offset="1" stop-color="#133970"></stop></radialGradient><clipPath id="clip0_29534_46565-uid-5"><rect width="145" height="130" fill="#fff"></rect></clipPath></defs></svg>