<svg fill="none" xmlns="http://www.w3.org/2000/svg" viewBox="0 0 145 130" aria-hidden="true" role="img"><g clip-path="url(#clip0_11393_57044)"><path opacity=".3" d="M45.964 73.37c19.153 0 34.68-15.405 34.68-34.407 0-19.002-15.527-34.406-34.68-34.406-19.154 0-34.68 15.404-34.68 34.406S26.81 73.37 45.963 73.37z" fill="url(#paint0_radial_11393_57044-uid-27-uid-63-uid-105)"></path><path opacity=".35" d="M45.964 73.37c19.153 0 34.68-15.405 34.68-34.407 0-19.002-15.527-34.406-34.68-34.406-19.154 0-34.68 15.404-34.68 34.406S26.81 73.37 45.963 73.37z" fill="url(#paint1_linear_11393_57044-uid-27-uid-63-uid-105)"></path><path opacity=".3" d="M17.04 44.72c0-18.916 15.49-34.406 34.681-34.406 8.225 0 15.627 2.742 21.658 7.402C67.074 9.63 57.067 4.42 45.964 4.42c-19.191 0-34.68 15.353-34.68 34.406 0 10.83 5.071 20.562 13.159 26.867-4.661-5.62-7.403-13.022-7.403-20.972z" fill="#01CDBE"></path><path d="M77.766 15.661l-4.25-4.25c-15.215-15.215-39.889-15.215-55.104 0-15.216 15.216-15.216 39.89 0 55.243l4.25 4.25c15.215 15.215 39.889 15.215 55.241 0 15.353-15.216 15.079-40.027-.137-55.243zM21.84 14.84c13.296-13.297 34.954-13.297 48.25 0 13.297 13.296 13.297 34.954 0 48.25-13.296 13.297-34.954 13.297-48.25 0-13.297-13.296-13.434-34.954 0-48.25zm24.124 63.19h.96-.96z" fill="#14A800"></path><path d="M18.411 66.516c15.216 15.215 39.89 15.215 55.242 0 15.353-15.216 15.216-39.89 0-55.243l4.25 4.25c15.215 15.215 15.215 39.89 0 55.242-15.216 15.353-39.89 15.216-55.243 0l-4.249-4.25z" fill="url(#paint2_linear_11393_57044-uid-27-uid-63-uid-105)"></path><path d="M85.305 70.354l-7.95 7.814c-1.782 1.782-4.798 1.782-6.58 0l-.411-.274c-1.782-1.782-1.782-4.798 0-6.58l7.95-7.813c1.782-1.782 4.798-1.782 6.58 0l.411.41c1.92 1.783 1.92 4.661 0 6.443z" fill="url(#paint3_radial_11393_57044-uid-27-uid-63-uid-105)"></path><path d="M82.563 69.12a16.187 16.187 0 00-6.442 6.443c-.274.548-.274 1.233.137 1.782l31.939 37.696c3.975 4.798 8.499 9.047 13.433 12.885 3.976 3.016 9.596 2.742 13.023-.822 3.564-3.427 3.838-9.047.822-12.886-3.838-4.934-8.224-9.321-13.022-13.296L84.208 69.394c-.41-.548-1.096-.685-1.645-.274z" fill="url(#paint4_linear_11393_57044-uid-27-uid-63-uid-105)"></path><path d="M84.345 69.258c-.548-.411-1.233-.411-1.782-.137a16.186 16.186 0 00-6.442 6.442c-.274.549-.274 1.234.137 1.782l3.564 4.25c-1.097-1.371 2.879-13.57 6.854-10.281l-2.33-2.056z" fill="#6D2B11"></path><path d="M23.757 16.896c13.022-13.023 33.858-13.297 47.291-.96-.274-.411-.685-.685-.96-1.096-13.296-13.297-34.954-13.297-48.25 0-13.297 13.296-13.297 34.954 0 48.25.274.275.685.686 1.096.96-12.474-13.296-12.2-34.269.823-47.154z" fill="url(#paint5_linear_11393_57044-uid-27-uid-63-uid-105)"></path></g><defs><linearGradient id="paint1_linear_11393_57044-uid-27-uid-63-uid-105" x1="21.509" y1="14.549" x2="70.37" y2="63.41" gradientUnits="userSpaceOnUse"><stop stop-color="#01CDBE" stop-opacity=".5"></stop><stop offset=".147" stop-color="#01CDBE" stop-opacity=".936"></stop><stop offset=".169" stop-color="#01CDBE"></stop><stop offset=".514" stop-color="#01CDBE" stop-opacity=".5"></stop><stop offset=".881" stop-color="#01CDBE" stop-opacity=".936"></stop><stop offset=".935" stop-color="#01CDBE"></stop></linearGradient><linearGradient id="paint2_linear_11393_57044-uid-27-uid-63-uid-105" x1="18.349" y1="46.802" x2="89.177" y2="46.802" gradientUnits="userSpaceOnUse"><stop offset=".448" stop-color="#14A800"></stop><stop offset=".613" stop-color="#14A500"></stop><stop offset=".721" stop-color="#149D00"></stop><stop offset=".812" stop-color="#138E00"></stop><stop offset=".894" stop-color="#127900"></stop><stop offset=".935" stop-color="#126B00"></stop></linearGradient><linearGradient id="paint4_linear_11393_57044-uid-27-uid-63-uid-105" x1="99.426" y1="106.749" x2="114.187" y2="91.987" gradientUnits="userSpaceOnUse"><stop stop-color="#BC5118"></stop><stop offset=".239" stop-color="#B84F18"></stop><stop offset=".459" stop-color="#AD4A17"></stop><stop offset=".67" stop-color="#9B4115"></stop><stop offset=".875" stop-color="#813413"></stop><stop offset="1" stop-color="#6D2B11"></stop></linearGradient><linearGradient id="paint5_linear_11393_57044-uid-27-uid-63-uid-105" x1="10.2" y1="49.29" x2="62.985" y2="5.982" gradientUnits="userSpaceOnUse"><stop stop-color="#126B00"></stop><stop offset="1" stop-color="#14A800"></stop></linearGradient><radialGradient id="paint0_radial_11393_57044-uid-27-uid-63-uid-105" cx="0" cy="0" r="1" gradientUnits="userSpaceOnUse" gradientTransform="matrix(60.1137 0 0 59.4526 31.436 30.442)"><stop stop-color="#01CDBE" stop-opacity="0"></stop><stop offset="1" stop-color="#01CDBE"></stop></radialGradient><radialGradient id="paint3_radial_11393_57044-uid-27-uid-63-uid-105" cx="0" cy="0" r="1" gradientUnits="userSpaceOnUse" gradientTransform="matrix(19.5388 -19.32433 7.96901 8.05746 83.885 77.01)"><stop stop-color="#AD8D05"></stop><stop offset=".26" stop-color="#AF8E08"></stop><stop offset=".432" stop-color="#B49311"></stop><stop offset=".58" stop-color="#BE9B20"></stop><stop offset=".703" stop-color="#CAA533"></stop><stop offset=".769" stop-color="#D1AB3F"></stop><stop offset=".886" stop-color="#E5BB5D"></stop><stop offset="1" stop-color="#FCCD81"></stop></radialGradient><clipPath id="clip0_11393_57044-uid-27-uid-63-uid-105"><rect width="145" height="130" fill="#fff"></rect></clipPath></defs></svg>