<svg fill="none" xmlns="http://www.w3.org/2000/svg" viewBox="0 0 145 130" aria-hidden="true" role="img"><g clip-path="url(#clip0_11466_61797)"><path d="M121.1 31.6H112v1.8h9.1v-1.8zM104 25.8c-.1 0-.2.1-.2.2l-.4 6.3h1.3l-.4-6.3c-.1-.1-.2-.2-.3-.2z" fill="#D5E0D5"></path><path d="M119.7 33.4h-9.9v78h9.9v-78z" fill="url(#paint0_linear_11466_61797-uid-31-uid-67-uid-109)"></path><path d="M81.9 20.5H68.2v90.9h13.7V20.5z" fill="url(#paint1_linear_11466_61797-uid-31-uid-67-uid-109)"></path><path d="M99 38.7H79v72.7h20V38.7z" fill="#E4EBE4"></path><path d="M79 38.7l2.6-2.6h12.7v2.6H79z" fill="#F2F7F2"></path><path d="M94.3 38.7v-2.6h-1l-1.1 2.6v72.7H99V38.7h-4.7z" fill="#C3D2C3"></path><path d="M110.9 33.4H94.3v78h16.6v-78zM69 20.5H51.5v90.9H69V20.5z" fill="#E4EBE4"></path><path d="M78.6 56.6H59.4v54.8h19.2V56.6z" fill="#C3D2C3"></path><path d="M112 31.6H93.3v1.8H112v-1.8z" fill="#F2F7F2"></path><path d="M91 54.5H61.1v56.9H91V54.5z" fill="#E4EBE4"></path><path d="M68.2 62.5h-3.9v-4.6h3.9v4.6zm6.5-4.6h-3.9v4.6h3.9v-4.6zm6.5 0h-3.9v4.6h3.9v-4.6zm6.5 0h-3.9v4.6h3.9v-4.6z" fill="url(#paint2_linear_11466_61797-uid-31-uid-67-uid-109)"></path><path d="M68.2 66h-3.9v4.6h3.9V66zm6.5 0h-3.9v4.6h3.9V66zm6.5 0h-3.9v4.6h3.9V66zm6.5 0h-3.9v4.6h3.9V66z" fill="url(#paint3_linear_11466_61797-uid-31-uid-67-uid-109)"></path><path d="M68.2 74.1h-3.9v4.6h3.9v-4.6zm6.5 0h-3.9v4.6h3.9v-4.6zm6.5 0h-3.9v4.6h3.9v-4.6zm6.5 0h-3.9v4.6h3.9v-4.6z" fill="url(#paint4_linear_11466_61797-uid-31-uid-67-uid-109)"></path><path d="M68.2 82.2h-3.9v4.6h3.9v-4.6zm6.5 0h-3.9v4.6h3.9v-4.6zm6.5 0h-3.9v4.6h3.9v-4.6zm6.5 0h-3.9v4.6h3.9v-4.6z" fill="url(#paint5_linear_11466_61797-uid-31-uid-67-uid-109)"></path><path d="M68.2 90.3h-3.9v4.6h3.9v-4.6zm6.5 0h-3.9v4.6h3.9v-4.6zm6.5 0h-3.9v4.6h3.9v-4.6zm6.5 0h-3.9v4.6h3.9v-4.6z" fill="url(#paint6_linear_11466_61797-uid-31-uid-67-uid-109)"></path><path d="M68.2 98.4h-3.9v4.6h3.9v-4.6zm6.5 0h-3.9v4.6h3.9v-4.6zm6.5 0h-3.9v4.6h3.9v-4.6zm6.5 0h-3.9v4.6h3.9v-4.6z" fill="url(#paint7_linear_11466_61797-uid-31-uid-67-uid-109)"></path><path d="M105.2 54.5H91v56.9h14.2V54.5z" fill="url(#paint8_linear_11466_61797-uid-31-uid-67-uid-109)"></path><path d="M91 51.3H61.1v3.2H91v-3.2z" fill="#F2F7F2"></path><path d="M105.2 51.3H91v3.2h14.2v-3.2z" fill="#D5E0D5"></path><path d="M58.7 23.1h-3.4v4.7h3.4v-4.7z" fill="url(#paint9_linear_11466_61797-uid-31-uid-67-uid-109)"></path><path d="M62.1 23.1h-3.4v4.7h3.4v-4.7z" fill="url(#paint10_linear_11466_61797-uid-31-uid-67-uid-109)"></path><path d="M65.5 23.1h-3.4v4.7h3.4v-4.7z" fill="url(#paint11_linear_11466_61797-uid-31-uid-67-uid-109)"></path><path d="M69 23.1h-3.4v4.7H69v-4.7z" fill="url(#paint12_linear_11466_61797-uid-31-uid-67-uid-109)"></path><path d="M71.7 23.1H69v4.7h2.7v-4.7z" fill="url(#paint13_linear_11466_61797-uid-31-uid-67-uid-109)"></path><path d="M74.4 23.1h-2.7v4.7h2.7v-4.7z" fill="url(#paint14_linear_11466_61797-uid-31-uid-67-uid-109)"></path><path d="M77.1 23.1h-2.7v4.7h2.7v-4.7z" fill="url(#paint15_linear_11466_61797-uid-31-uid-67-uid-109)"></path><path d="M79.8 23.1h-2.7v4.7h2.7v-4.7z" fill="url(#paint16_linear_11466_61797-uid-31-uid-67-uid-109)"></path><path d="M69 20.5l-2.3-2c-1.8-1.5-4-2.3-6.4-2.3-2.3 0-4.6.8-6.4 2.3l-2.3 2H69z" fill="#F2F7F2"></path><path d="M82 20.5l-2.3-2c-1.8-1.5-4-2.3-6.4-2.3h-13c2.3 0 4.6.8 6.4 2.3l2.3 2h13z" fill="#D5E0D5"></path><path d="M97.8 15.5c-2.8 0-5-2.2-5-5 0-2.4 1.7-4.4 4-4.9-3.2-1.5-6.9-.1-8.4 3s-.1 6.9 3 8.4c2.6 1.2 5.7.6 7.5-1.6-.4 0-.8.1-1.1.1z" fill="#FCCD81"></path><path d="M104 26.2a1.1 1.1 0 100-2.2 1.1 1.1 0 000 2.2z" fill="url(#paint17_radial_11466_61797-uid-31-uid-67-uid-109)"></path><path d="M50.9 26.6c-6.4 0-11.9 3.6-14.6 8.7-1.9 3.6-4.8 6.5-8.3 8.4-4.7 2.5-7.6 7.5-7.5 12.8.1 7.5 6.2 13.7 13.7 14 7.3.3 13.7-5 14.7-12.3.7.1 1.3.1 2 .1 9.1 0 16.4-7.1 16.4-15.9S60 26.6 50.9 26.6z" fill="url(#paint18_radial_11466_61797-uid-31-uid-67-uid-109)"></path><path d="M66.7 43.9c0-.1 0 0 0 0-.4-4.2-3.9-7.4-8.1-7.4h-2.4c-6.5 0-12 4.9-12.9 11.3V52c0 4.6-1 9.1-3 13.3l5.2 3.1c2 1.2 4.6.5 5.8-1.5.1-.1.1-.2.2-.3l1.8-3.7c.7-1.5 2-2.7 3.5-3.3 6.6-2.5 10.5-8.9 9.9-15.7z" fill="url(#paint19_radial_11466_61797-uid-31-uid-67-uid-109)"></path><path d="M66.7 43.9c0-.1 0 0 0 0-.4-4.2-3.9-7.4-8.1-7.4h-2.4c-6.5 0-12 4.9-12.9 11.3V52c0 4.6-1 9.1-3 13.3l5.2 3.1c2 1.2 4.6.5 5.8-1.5.1-.1.1-.2.2-.3l1.8-3.7c.7-1.5 2-2.7 3.5-3.3 6.6-2.5 10.5-8.9 9.9-15.7z" fill="url(#paint20_linear_11466_61797-uid-31-uid-67-uid-109)"></path><path d="M61.8 81.9c0 11.6-1.4 23.1-4.1 34.3l-1.3 5.1M27.8 81.9c0 11.6-1.4 23.1-4.1 34.3l-1.3 5.1" stroke="#000" stroke-width=".235" stroke-linejoin="round"></path><path d="M14.2 105.7l33.3 3.9v11.7H12.8" fill="#fff"></path><path d="M14.2 105.7l33.3 3.9v11.7H12.8" stroke="#000" stroke-width=".235" stroke-linejoin="round"></path><path d="M40.1 115.5c0-3.1 2.4-5.6 5.4-5.8 1.6-.1 3.2-.2 4.8-.2 7.2 0 14.3 2 20.5 5.8 1.2.8 1.8 2.2 1.4 3.6-.4 1.4-1.7 2.4-3.2 2.4H45.9c-3.2 0-5.8-2.6-5.8-5.8z" fill="#fff" stroke="#000" stroke-width=".235" stroke-linejoin="round"></path><path d="M65.6 121.3c1.5 0 2.6-1.2 2.6-2.8 0-.9-.5-1.8-1.3-2.4-.3-.2-.6-.4-1-.6-4.1-2.5-8.8-3.9-13.6-4.2h-.1" stroke="#000" stroke-width=".235" stroke-linejoin="round"></path><path d="M61.9 121.3c1.2 0 2.2-1 2.2-2.3 0-.8-.4-1.5-1-1.9-4-2.7-8.8-4.1-13.6-4.1" stroke="#000" stroke-width=".235" stroke-linejoin="round"></path><path d="M48.2 115.1c3.8 0 7.5 1.1 10.7 3 .5.3.8.9.8 1.4 0 .9-.8 1.7-1.7 1.7" stroke="#000" stroke-width=".235" stroke-linejoin="round"></path><path d="M.7 104.8l10.2-30.5c2.1-6.3 7.3-11 13.8-12.5 4.7-1.1 9.7-.3 13.8 2.2l.6.4c1.1.7 2.4 1.2 3.6 1.6h.1c3.5 1.1 7.3 1 10.8-.3 1.2-.5 2.5-.7 3.8-.6 4.2.2 7.7 3 8.9 7l10 34.6v.2c2.8-.6 5.7-.9 8.5-.9h5.8v15.7H12.8c-4 0-7.8-1.9-10.2-5.1-2.5-3.4-3.3-7.8-1.9-11.8z" fill="url(#paint21_radial_11466_61797-uid-31-uid-67-uid-109)"></path><path d="M23.7 116.5c2.7-11.2 4.1-22.7 4.1-34.3h34c0 11.6-1.4 23.1-4.1 34.3h-34z" fill="url(#paint22_radial_11466_61797-uid-31-uid-67-uid-109)"></path><path d="M61.8 110.8l9.8-2.8c1.5-.5 3.1-.9 4.7-1.2 2.8-.6 5.7-.9 8.5-.9h5.8v15.7H58.3l3.5-10.8z" fill="url(#paint23_radial_11466_61797-uid-31-uid-67-uid-109)"></path><path d="M57.7 116.5c2.7-11.2 4.1-22.7 4.1-34.3h7.4l7 24.4v.2c2.8-.6 5.7-.9 8.5-.9h5.8v15.7H64.7l-7-5.1z" fill="url(#paint24_radial_11466_61797-uid-31-uid-67-uid-109)"></path><path d="M57.7 116.5l-1.3 5.1" stroke="#000" stroke-width=".235" stroke-linejoin="round"></path><path d="M14.2 106l33.1 4.4.2 11.2H12.8l1.4-15.6z" fill="url(#paint25_radial_11466_61797-uid-31-uid-67-uid-109)"></path><path d="M42.1 116c0-2.9 2.3-5.4 5.2-5.6 1.5-.1 3.1-.2 4.6-.2 7 0 13.8 1.9 19.8 5.6.9.6 1.5 1.6 1.5 2.7 0 1.7-1.5 3.1-3.2 3.1H47.8c-3.1 0-5.7-2.5-5.7-5.6z" fill="url(#paint26_radial_11466_61797-uid-31-uid-67-uid-109)"></path><path d="M69.4 119c0-.9-.4-1.8-1.2-2.3l-.4-.2c-4.1-2.6-8.8-4.1-13.6-4.4h-.1l1.7-1.6c5.7.6 11.2 2.4 16.1 5.4.9.6 1.5 1.6 1.5 2.7 0 1.7-1.5 3.1-3.2 3.1h-3.3c1.3-.1 2.5-1.3 2.5-2.7z" fill="url(#paint27_radial_11466_61797-uid-31-uid-67-uid-109)"></path><path d="M66.8 121.6c1.4 0 2.6-1.2 2.6-2.7 0-.9-.4-1.8-1.2-2.3l-.4-.2c-4.1-2.6-8.8-4.1-13.6-4.4h-.1l-2.8 1.6c4.7 0 9.2 1.4 13.1 3.9.6.4 1 1.1 1 1.9 0 1.2-.9 2.2-2.1 2.2h3.5z" fill="url(#paint28_radial_11466_61797-uid-31-uid-67-uid-109)"></path><path d="M61.1 120c0-.6-.3-1.1-.8-1.4-3.1-1.9-6.7-2.9-10.4-2.9l1.2-2c4.7 0 9.2 1.4 13.1 3.9.6.4 1 1.1 1 1.9 0 1.2-.9 2.2-2.1 2.2h-3.7c1-.1 1.7-.8 1.7-1.7z" fill="url(#paint29_radial_11466_61797-uid-31-uid-67-uid-109)"></path><path d="M103.7 125H57.4c-1.9 0-3.4-1.5-3.4-3.4h49.7v3.4z" fill="url(#paint30_linear_11466_61797-uid-31-uid-67-uid-109)"></path><path d="M86.1 125h50c.7 0 1.3-.5 1.5-1.2L145 84c.2-.8-.4-1.6-1.2-1.7H93.5c-.7 0-1.3.5-1.5 1.2l-7.4 39.8c-.2.8.4 1.6 1.2 1.7h.3z" fill="url(#paint31_linear_11466_61797-uid-31-uid-67-uid-109)"></path><path d="M82.8 123.3l7.4-39.8c.1-.7.8-1.2 1.5-1.2h1.7c-.7 0-1.3.5-1.5 1.2l-7.4 39.8c-.2.8.4 1.6 1.2 1.7h.3-1.7c-.8 0-1.5-.7-1.5-1.5v-.2z" fill="#9AAA97"></path></g><defs><linearGradient id="paint0_linear_11466_61797-uid-31-uid-67-uid-109" x1="114.743" y1="111.37" x2="114.743" y2="33.401" gradientUnits="userSpaceOnUse"><stop stop-color="#9AAA97"></stop><stop offset=".3" stop-color="#9EAE9B"></stop><stop offset=".61" stop-color="#AAB9A8"></stop><stop offset=".92" stop-color="#BDCCBC"></stop><stop offset="1" stop-color="#C3D2C3"></stop></linearGradient><linearGradient id="paint1_linear_11466_61797-uid-31-uid-67-uid-109" x1="68.236" y1="65.934" x2="81.95" y2="65.934" gradientUnits="userSpaceOnUse"><stop stop-color="#9AAA97"></stop><stop offset=".3" stop-color="#9EAE9B"></stop><stop offset=".61" stop-color="#AAB9A8"></stop><stop offset=".92" stop-color="#BDCCBC"></stop><stop offset="1" stop-color="#C3D2C3"></stop></linearGradient><linearGradient id="paint2_linear_11466_61797-uid-31-uid-67-uid-109" x1="76.015" y1="62.536" x2="76.015" y2="57.937" gradientUnits="userSpaceOnUse"><stop stop-color="#C3D2C3"></stop><stop offset=".47" stop-color="#C7D5C7"></stop><stop offset=".96" stop-color="#D4DFD4"></stop><stop offset="1" stop-color="#D5E0D5"></stop></linearGradient><linearGradient id="paint3_linear_11466_61797-uid-31-uid-67-uid-109" x1="76.015" y1="70.632" x2="76.015" y2="66.033" gradientUnits="userSpaceOnUse"><stop stop-color="#C3D2C3"></stop><stop offset=".47" stop-color="#C7D5C7"></stop><stop offset=".96" stop-color="#D4DFD4"></stop><stop offset="1" stop-color="#D5E0D5"></stop></linearGradient><linearGradient id="paint4_linear_11466_61797-uid-31-uid-67-uid-109" x1="76.013" y1="78.725" x2="76.013" y2="74.126" gradientUnits="userSpaceOnUse"><stop stop-color="#C3D2C3"></stop><stop offset=".47" stop-color="#C7D5C7"></stop><stop offset=".96" stop-color="#D4DFD4"></stop><stop offset="1" stop-color="#D5E0D5"></stop></linearGradient><linearGradient id="paint5_linear_11466_61797-uid-31-uid-67-uid-109" x1="76.015" y1="86.823" x2="76.015" y2="82.224" gradientUnits="userSpaceOnUse"><stop stop-color="#C3D2C3"></stop><stop offset=".47" stop-color="#C7D5C7"></stop><stop offset=".96" stop-color="#D4DFD4"></stop><stop offset="1" stop-color="#D5E0D5"></stop></linearGradient><linearGradient id="paint6_linear_11466_61797-uid-31-uid-67-uid-109" x1="76.015" y1="94.919" x2="76.015" y2="90.319" gradientUnits="userSpaceOnUse"><stop stop-color="#C3D2C3"></stop><stop offset=".47" stop-color="#C7D5C7"></stop><stop offset=".96" stop-color="#D4DFD4"></stop><stop offset="1" stop-color="#D5E0D5"></stop></linearGradient><linearGradient id="paint7_linear_11466_61797-uid-31-uid-67-uid-109" x1="76.015" y1="103.015" x2="76.015" y2="98.415" gradientUnits="userSpaceOnUse"><stop stop-color="#C3D2C3"></stop><stop offset=".47" stop-color="#C7D5C7"></stop><stop offset=".96" stop-color="#D4DFD4"></stop><stop offset="1" stop-color="#D5E0D5"></stop></linearGradient><linearGradient id="paint8_linear_11466_61797-uid-31-uid-67-uid-109" x1="98.091" y1="111.369" x2="98.091" y2="54.482" gradientUnits="userSpaceOnUse"><stop stop-color="#9AAA97"></stop><stop offset=".3" stop-color="#9EAE9B"></stop><stop offset=".61" stop-color="#AAB9A8"></stop><stop offset=".92" stop-color="#BDCCBC"></stop><stop offset="1" stop-color="#C3D2C3"></stop></linearGradient><linearGradient id="paint9_linear_11466_61797-uid-31-uid-67-uid-109" x1="54.979" y1="23.44" x2="59.019" y2="27.479" gradientUnits="userSpaceOnUse"><stop offset=".4" stop-color="#C3D2C3"></stop><stop offset=".66" stop-color="#CEDACE"></stop><stop offset="1" stop-color="#E4EBE4"></stop></linearGradient><linearGradient id="paint10_linear_11466_61797-uid-31-uid-67-uid-109" x1="58.404" y1="23.44" x2="62.444" y2="27.479" gradientUnits="userSpaceOnUse"><stop offset=".4" stop-color="#C3D2C3"></stop><stop offset=".66" stop-color="#CEDACE"></stop><stop offset="1" stop-color="#E4EBE4"></stop></linearGradient><linearGradient id="paint11_linear_11466_61797-uid-31-uid-67-uid-109" x1="61.828" y1="23.44" x2="65.868" y2="27.479" gradientUnits="userSpaceOnUse"><stop offset=".4" stop-color="#C3D2C3"></stop><stop offset=".66" stop-color="#CEDACE"></stop><stop offset="1" stop-color="#E4EBE4"></stop></linearGradient><linearGradient id="paint12_linear_11466_61797-uid-31-uid-67-uid-109" x1="65.254" y1="23.44" x2="69.293" y2="27.479" gradientUnits="userSpaceOnUse"><stop offset=".4" stop-color="#C3D2C3"></stop><stop offset=".66" stop-color="#CEDACE"></stop><stop offset="1" stop-color="#E4EBE4"></stop></linearGradient><linearGradient id="paint13_linear_11466_61797-uid-31-uid-67-uid-109" x1="68.5" y1="23.619" x2="72.183" y2="27.301" gradientUnits="userSpaceOnUse"><stop offset=".4" stop-color="#9AAA97"></stop><stop offset=".6" stop-color="#A4B4A2"></stop><stop offset=".97" stop-color="#C0CFC0"></stop><stop offset="1" stop-color="#C3D2C3"></stop></linearGradient><linearGradient id="paint14_linear_11466_61797-uid-31-uid-67-uid-109" x1="71.211" y1="23.619" x2="74.893" y2="27.301" gradientUnits="userSpaceOnUse"><stop offset=".4" stop-color="#9AAA97"></stop><stop offset=".6" stop-color="#A4B4A2"></stop><stop offset=".97" stop-color="#C0CFC0"></stop><stop offset="1" stop-color="#C3D2C3"></stop></linearGradient><linearGradient id="paint15_linear_11466_61797-uid-31-uid-67-uid-109" x1="73.92" y1="23.619" x2="77.602" y2="27.301" gradientUnits="userSpaceOnUse"><stop offset=".4" stop-color="#9AAA97"></stop><stop offset=".6" stop-color="#A4B4A2"></stop><stop offset=".97" stop-color="#C0CFC0"></stop><stop offset="1" stop-color="#C3D2C3"></stop></linearGradient><linearGradient id="paint16_linear_11466_61797-uid-31-uid-67-uid-109" x1="76.629" y1="23.619" x2="80.312" y2="27.3" gradientUnits="userSpaceOnUse"><stop offset=".4" stop-color="#9AAA97"></stop><stop offset=".6" stop-color="#A4B4A2"></stop><stop offset=".97" stop-color="#C0CFC0"></stop><stop offset="1" stop-color="#C3D2C3"></stop></linearGradient><linearGradient id="paint20_linear_11466_61797-uid-31-uid-67-uid-109" x1="34.72" y1="44.8" x2="59.031" y2="55.016" gradientUnits="userSpaceOnUse"><stop offset=".5" stop-color="#F7B0B2" stop-opacity="0"></stop><stop offset=".56" stop-color="#F7B0B2" stop-opacity=".08"></stop><stop offset=".67" stop-color="#F7B0B2" stop-opacity=".3"></stop><stop offset=".84" stop-color="#F7B0B2" stop-opacity=".65"></stop><stop offset="1" stop-color="#F7B0B2"></stop></linearGradient><linearGradient id="paint30_linear_11466_61797-uid-31-uid-67-uid-109" x1="78.872" y1="125.046" x2="78.872" y2="118.439" gradientUnits="userSpaceOnUse"><stop stop-color="#9AAA97"></stop><stop offset=".93" stop-color="#E4EBE4"></stop></linearGradient><linearGradient id="paint31_linear_11466_61797-uid-31-uid-67-uid-109" x1="114.777" y1="125.047" x2="114.777" y2="82.232" gradientUnits="userSpaceOnUse"><stop stop-color="#9AAA97"></stop><stop offset=".93" stop-color="#E4EBE4"></stop></linearGradient><radialGradient id="paint17_radial_11466_61797-uid-31-uid-67-uid-109" cx="0" cy="0" r="1" gradientUnits="userSpaceOnUse" gradientTransform="translate(103.259 24.359) scale(1.7246)"><stop offset=".76" stop-color="#D5E0D5"></stop><stop offset="1" stop-color="#C3D2C3"></stop></radialGradient><radialGradient id="paint18_radial_11466_61797-uid-31-uid-67-uid-109" cx="0" cy="0" r="1" gradientUnits="userSpaceOnUse" gradientTransform="matrix(9.5001 31.99999 -37.15971 11.0319 38 36)"><stop offset=".38" stop-color="#54382D"></stop><stop offset=".67" stop-color="#36241E"></stop><stop offset=".67" stop-color="#36241E"></stop><stop offset=".81" stop-color="#2E1F1A"></stop><stop offset=".92" stop-color="#211613"></stop></radialGradient><radialGradient id="paint19_radial_11466_61797-uid-31-uid-67-uid-109" cx="0" cy="0" r="1" gradientUnits="userSpaceOnUse" gradientTransform="translate(61.372 45.549) scale(17.8604)"><stop offset=".76" stop-color="#F7B0B2"></stop><stop offset=".83" stop-color="#E29DA1"></stop><stop offset=".97" stop-color="#AD6C74"></stop><stop offset="1" stop-color="#A06069"></stop></radialGradient><radialGradient id="paint21_radial_11466_61797-uid-31-uid-67-uid-109" cx="0" cy="0" r="1" gradientUnits="userSpaceOnUse" gradientTransform="rotate(180 25.502 41.083) scale(38.4758)"><stop offset=".76" stop-color="#14A800"></stop><stop offset=".85" stop-color="#139300"></stop><stop offset="1" stop-color="#126B00"></stop></radialGradient><radialGradient id="paint22_radial_11466_61797-uid-31-uid-67-uid-109" cx="0" cy="0" r="1" gradientUnits="userSpaceOnUse" gradientTransform="rotate(-116.822 50 29.146) scale(28.7187 24.2114)"><stop offset=".76" stop-color="#126B00" stop-opacity="0"></stop><stop offset=".81" stop-color="#126B00" stop-opacity=".19"></stop><stop offset=".93" stop-color="#126B00" stop-opacity=".69"></stop><stop offset="1" stop-color="#126B00"></stop></radialGradient><radialGradient id="paint23_radial_11466_61797-uid-31-uid-67-uid-109" cx="0" cy="0" r="1" gradientUnits="userSpaceOnUse" gradientTransform="matrix(-25.8256 0 0 -15.2371 76.27 105.669)"><stop offset=".46" stop-color="#14A800"></stop><stop offset=".56" stop-color="#299B13"></stop><stop offset=".76" stop-color="#5E7842"></stop><stop offset="1" stop-color="#A84884"></stop></radialGradient><radialGradient id="paint24_radial_11466_61797-uid-31-uid-67-uid-109" cx="0" cy="0" r="1" gradientUnits="userSpaceOnUse" gradientTransform="rotate(-116.822 67.304 18.53) scale(29.7346 25.0678)"><stop offset=".76" stop-color="#126B00" stop-opacity="0"></stop><stop offset=".81" stop-color="#126B00" stop-opacity=".19"></stop><stop offset=".93" stop-color="#126B00" stop-opacity=".69"></stop><stop offset="1" stop-color="#126B00"></stop></radialGradient><radialGradient id="paint25_radial_11466_61797-uid-31-uid-67-uid-109" cx="0" cy="0" r="1" gradientUnits="userSpaceOnUse" gradientTransform="matrix(-21.4072 0 0 -14.985 38.74 106.367)"><stop offset=".46" stop-color="#14A800"></stop><stop offset=".67" stop-color="#139300"></stop><stop offset="1" stop-color="#126B00"></stop></radialGradient><radialGradient id="paint26_radial_11466_61797-uid-31-uid-67-uid-109" cx="0" cy="0" r="1" gradientUnits="userSpaceOnUse" gradientTransform="matrix(-20.5061 0 0 -13.329 62.925 111.883)"><stop offset=".54" stop-color="#F7B0B2"></stop><stop offset=".63" stop-color="#EFA9AB"></stop><stop offset=".76" stop-color="#DA9599"></stop><stop offset=".91" stop-color="#B6757C"></stop><stop offset="1" stop-color="#A06069"></stop></radialGradient><radialGradient id="paint27_radial_11466_61797-uid-31-uid-67-uid-109" cx="0" cy="0" r="1" gradientUnits="userSpaceOnUse" gradientTransform="matrix(-11.85146 -1.4365 .91476 -7.54705 58.734 119.764)"><stop offset=".61" stop-color="#A06069"></stop><stop offset=".62" stop-color="#A06069" stop-opacity=".97"></stop><stop offset=".8" stop-color="#A06069" stop-opacity=".45"></stop><stop offset=".94" stop-color="#A06069" stop-opacity=".13"></stop><stop offset="1" stop-color="#A06069" stop-opacity="0"></stop></radialGradient><radialGradient id="paint28_radial_11466_61797-uid-31-uid-67-uid-109" cx="0" cy="0" r="1" gradientUnits="userSpaceOnUse" gradientTransform="matrix(-9.69761 -2.4993 1.57346 -6.10521 58.003 119.56)"><stop offset=".54" stop-color="#A06069"></stop><stop offset=".62" stop-color="#A06069" stop-opacity=".87"></stop><stop offset=".78" stop-color="#A06069" stop-opacity=".53"></stop><stop offset="1" stop-color="#A06069" stop-opacity="0"></stop></radialGradient><radialGradient id="paint29_radial_11466_61797-uid-31-uid-67-uid-109" cx="0" cy="0" r="1" gradientUnits="userSpaceOnUse" gradientTransform="rotate(-166.661 34.618 57.809) scale(9.59053 6.6269)"><stop offset=".45" stop-color="#A06069"></stop><stop offset=".54" stop-color="#A06069" stop-opacity=".87"></stop><stop offset=".73" stop-color="#A06069" stop-opacity=".53"></stop><stop offset="1" stop-color="#A06069" stop-opacity="0"></stop></radialGradient><clipPath id="clip0_11466_61797-uid-31-uid-67-uid-109"><rect width="145" height="130" fill="#fff"></rect></clipPath></defs></svg>